ISO-10303-21;
HEADER;
/* Generated by software containing ST-Developer
 * from STEP Tools, Inc. (www.steptools.com) 
 */

FILE_DESCRIPTION(
/* description */ (''),
/* implementation_level */ '2;1');

FILE_NAME(
/* name */ 'EQLID.step',
/* time_stamp */ '2026-07-08T16:15:47+10:00',
/* author */ (''),
/* organization */ (''),
/* preprocessor_version */ 'ST-DEVELOPER v20.1',
/* originating_system */ 'Autodesk Translation Framework v15.8.0.0',
/* authorisation */ '');

FILE_SCHEMA (('AUTOMOTIVE_DESIGN { 1 0 10303 214 3 1 1 }'));
ENDSEC;

DATA;
#10=MECHANICAL_DESIGN_GEOMETRIC_PRESENTATION_REPRESENTATION('',(#13),#1715);
#11=SHAPE_REPRESENTATION_RELATIONSHIP('SRR','None',#1722,#12);
#12=ADVANCED_BREP_SHAPE_REPRESENTATION('',(#14),#1714);
#13=STYLED_ITEM('',(#1731),#14);
#14=MANIFOLD_SOLID_BREP('Body2',#1011);
#15=FACE_BOUND('',#356,.T.);
#16=FACE_BOUND('',#357,.T.);
#17=FACE_BOUND('',#358,.T.);
#18=FACE_BOUND('',#359,.T.);
#19=FACE_BOUND('',#366,.T.);
#20=FACE_BOUND('',#369,.T.);
#21=FACE_BOUND('',#372,.T.);
#22=FACE_BOUND('',#375,.T.);
#23=FACE_BOUND('',#409,.T.);
#24=FACE_BOUND('',#410,.T.);
#25=FACE_BOUND('',#411,.T.);
#26=FACE_BOUND('',#412,.T.);
#27=FACE_BOUND('',#413,.T.);
#28=FACE_BOUND('',#414,.T.);
#29=FACE_BOUND('',#415,.T.);
#30=FACE_BOUND('',#416,.T.);
#31=PLANE('',#1045);
#32=PLANE('',#1048);
#33=PLANE('',#1051);
#34=PLANE('',#1056);
#35=PLANE('',#1059);
#36=PLANE('',#1064);
#37=PLANE('',#1068);
#38=PLANE('',#1072);
#39=PLANE('',#1076);
#40=PLANE('',#1086);
#41=PLANE('',#1087);
#42=PLANE('',#1088);
#43=PLANE('',#1089);
#44=PLANE('',#1090);
#45=PLANE('',#1091);
#46=PLANE('',#1092);
#47=PLANE('',#1093);
#48=PLANE('',#1094);
#49=PLANE('',#1095);
#50=PLANE('',#1096);
#51=PLANE('',#1097);
#52=PLANE('',#1098);
#53=PLANE('',#1099);
#54=PLANE('',#1100);
#55=PLANE('',#1101);
#56=PLANE('',#1102);
#57=PLANE('',#1103);
#58=PLANE('',#1104);
#59=PLANE('',#1105);
#60=PLANE('',#1106);
#61=PLANE('',#1107);
#62=PLANE('',#1108);
#63=PLANE('',#1109);
#64=PLANE('',#1110);
#65=PLANE('',#1111);
#66=PLANE('',#1112);
#67=PLANE('',#1113);
#68=PLANE('',#1114);
#69=LINE('',#1419,#169);
#70=LINE('',#1420,#170);
#71=LINE('',#1439,#171);
#72=LINE('',#1440,#172);
#73=LINE('',#1459,#173);
#74=LINE('',#1460,#174);
#75=LINE('',#1476,#175);
#76=LINE('',#1477,#176);
#77=LINE('',#1480,#177);
#78=LINE('',#1482,#178);
#79=LINE('',#1483,#179);
#80=LINE('',#1486,#180);
#81=LINE('',#1490,#181);
#82=LINE('',#1491,#182);
#83=LINE('',#1494,#183);
#84=LINE('',#1507,#184);
#85=LINE('',#1508,#185);
#86=LINE('',#1511,#186);
#87=LINE('',#1515,#187);
#88=LINE('',#1516,#188);
#89=LINE('',#1521,#189);
#90=LINE('',#1528,#190);
#91=LINE('',#1535,#191);
#92=LINE('',#1542,#192);
#93=LINE('',#1550,#193);
#94=LINE('',#1554,#194);
#95=LINE('',#1558,#195);
#96=LINE('',#1562,#196);
#97=LINE('',#1566,#197);
#98=LINE('',#1568,#198);
#99=LINE('',#1570,#199);
#100=LINE('',#1571,#200);
#101=LINE('',#1575,#201);
#102=LINE('',#1577,#202);
#103=LINE('',#1579,#203);
#104=LINE('',#1580,#204);
#105=LINE('',#1584,#205);
#106=LINE('',#1586,#206);
#107=LINE('',#1588,#207);
#108=LINE('',#1589,#208);
#109=LINE('',#1593,#209);
#110=LINE('',#1595,#210);
#111=LINE('',#1597,#211);
#112=LINE('',#1598,#212);
#113=LINE('',#1601,#213);
#114=LINE('',#1603,#214);
#115=LINE('',#1604,#215);
#116=LINE('',#1607,#216);
#117=LINE('',#1609,#217);
#118=LINE('',#1610,#218);
#119=LINE('',#1613,#219);
#120=LINE('',#1615,#220);
#121=LINE('',#1616,#221);
#122=LINE('',#1619,#222);
#123=LINE('',#1621,#223);
#124=LINE('',#1622,#224);
#125=LINE('',#1625,#225);
#126=LINE('',#1627,#226);
#127=LINE('',#1629,#227);
#128=LINE('',#1631,#228);
#129=LINE('',#1632,#229);
#130=LINE('',#1635,#230);
#131=LINE('',#1637,#231);
#132=LINE('',#1639,#232);
#133=LINE('',#1641,#233);
#134=LINE('',#1642,#234);
#135=LINE('',#1646,#235);
#136=LINE('',#1648,#236);
#137=LINE('',#1650,#237);
#138=LINE('',#1651,#238);
#139=LINE('',#1654,#239);
#140=LINE('',#1656,#240);
#141=LINE('',#1657,#241);
#142=LINE('',#1660,#242);
#143=LINE('',#1662,#243);
#144=LINE('',#1663,#244);
#145=LINE('',#1666,#245);
#146=LINE('',#1667,#246);
#147=LINE('',#1670,#247);
#148=LINE('',#1671,#248);
#149=LINE('',#1673,#249);
#150=LINE('',#1674,#250);
#151=LINE('',#1677,#251);
#152=LINE('',#1678,#252);
#153=LINE('',#1681,#253);
#154=LINE('',#1682,#254);
#155=LINE('',#1685,#255);
#156=LINE('',#1687,#256);
#157=LINE('',#1688,#257);
#158=LINE('',#1690,#258);
#159=LINE('',#1693,#259);
#160=LINE('',#1694,#260);
#161=LINE('',#1697,#261);
#162=LINE('',#1698,#262);
#163=LINE('',#1700,#263);
#164=LINE('',#1702,#264);
#165=LINE('',#1704,#265);
#166=LINE('',#1706,#266);
#167=LINE('',#1708,#267);
#168=LINE('',#1710,#268);
#169=VECTOR('',#1129,10.);
#170=VECTOR('',#1130,10.);
#171=VECTOR('',#1141,10.);
#172=VECTOR('',#1142,10.);
#173=VECTOR('',#1153,10.);
#174=VECTOR('',#1154,10.);
#175=VECTOR('',#1163,10.);
#176=VECTOR('',#1164,10.);
#177=VECTOR('',#1167,10.);
#178=VECTOR('',#1168,10.);
#179=VECTOR('',#1169,10.);
#180=VECTOR('',#1172,10.);
#181=VECTOR('',#1177,10.);
#182=VECTOR('',#1178,10.);
#183=VECTOR('',#1181,10.);
#184=VECTOR('',#1196,10.);
#185=VECTOR('',#1197,10.);
#186=VECTOR('',#1200,10.);
#187=VECTOR('',#1205,10.);
#188=VECTOR('',#1206,10.);
#189=VECTOR('',#1213,3.);
#190=VECTOR('',#1222,3.);
#191=VECTOR('',#1231,3.);
#192=VECTOR('',#1240,3.);
#193=VECTOR('',#1251,1.5);
#194=VECTOR('',#1256,1.5);
#195=VECTOR('',#1261,1.5);
#196=VECTOR('',#1266,1.5);
#197=VECTOR('',#1269,10.);
#198=VECTOR('',#1270,10.);
#199=VECTOR('',#1271,10.);
#200=VECTOR('',#1272,10.);
#201=VECTOR('',#1275,10.);
#202=VECTOR('',#1276,10.);
#203=VECTOR('',#1277,10.);
#204=VECTOR('',#1278,10.);
#205=VECTOR('',#1281,10.);
#206=VECTOR('',#1282,10.);
#207=VECTOR('',#1283,10.);
#208=VECTOR('',#1284,10.);
#209=VECTOR('',#1287,10.);
#210=VECTOR('',#1288,10.);
#211=VECTOR('',#1289,10.);
#212=VECTOR('',#1290,10.);
#213=VECTOR('',#1293,10.);
#214=VECTOR('',#1294,10.);
#215=VECTOR('',#1295,10.);
#216=VECTOR('',#1298,10.);
#217=VECTOR('',#1299,10.);
#218=VECTOR('',#1300,10.);
#219=VECTOR('',#1303,10.);
#220=VECTOR('',#1304,10.);
#221=VECTOR('',#1305,10.);
#222=VECTOR('',#1308,10.);
#223=VECTOR('',#1309,10.);
#224=VECTOR('',#1310,10.);
#225=VECTOR('',#1313,10.);
#226=VECTOR('',#1314,10.);
#227=VECTOR('',#1315,10.);
#228=VECTOR('',#1316,10.);
#229=VECTOR('',#1317,10.);
#230=VECTOR('',#1320,10.);
#231=VECTOR('',#1321,10.);
#232=VECTOR('',#1322,10.);
#233=VECTOR('',#1323,10.);
#234=VECTOR('',#1324,10.);
#235=VECTOR('',#1327,10.);
#236=VECTOR('',#1328,10.);
#237=VECTOR('',#1329,10.);
#238=VECTOR('',#1330,10.);
#239=VECTOR('',#1333,10.);
#240=VECTOR('',#1334,10.);
#241=VECTOR('',#1335,10.);
#242=VECTOR('',#1338,10.);
#243=VECTOR('',#1339,10.);
#244=VECTOR('',#1340,10.);
#245=VECTOR('',#1343,10.);
#246=VECTOR('',#1344,10.);
#247=VECTOR('',#1347,10.);
#248=VECTOR('',#1348,10.);
#249=VECTOR('',#1351,10.);
#250=VECTOR('',#1352,10.);
#251=VECTOR('',#1355,10.);
#252=VECTOR('',#1356,10.);
#253=VECTOR('',#1359,10.);
#254=VECTOR('',#1360,10.);
#255=VECTOR('',#1363,10.);
#256=VECTOR('',#1364,10.);
#257=VECTOR('',#1365,10.);
#258=VECTOR('',#1368,10.);
#259=VECTOR('',#1371,10.);
#260=VECTOR('',#1372,10.);
#261=VECTOR('',#1375,10.);
#262=VECTOR('',#1376,10.);
#263=VECTOR('',#1379,10.);
#264=VECTOR('',#1382,10.);
#265=VECTOR('',#1385,10.);
#266=VECTOR('',#1388,10.);
#267=VECTOR('',#1391,10.);
#268=VECTOR('',#1394,10.);
#269=CYLINDRICAL_SURFACE('',#1029,0.5);
#270=CYLINDRICAL_SURFACE('',#1034,0.5);
#271=CYLINDRICAL_SURFACE('',#1039,0.5);
#272=CYLINDRICAL_SURFACE('',#1044,0.5);
#273=CYLINDRICAL_SURFACE('',#1046,1.);
#274=CYLINDRICAL_SURFACE('',#1049,1.);
#275=CYLINDRICAL_SURFACE('',#1057,1.);
#276=CYLINDRICAL_SURFACE('',#1060,1.);
#277=CYLINDRICAL_SURFACE('',#1062,3.);
#278=CYLINDRICAL_SURFACE('',#1066,3.);
#279=CYLINDRICAL_SURFACE('',#1070,3.);
#280=CYLINDRICAL_SURFACE('',#1074,3.);
#281=CYLINDRICAL_SURFACE('',#1078,1.5);
#282=CYLINDRICAL_SURFACE('',#1080,1.5);
#283=CYLINDRICAL_SURFACE('',#1082,1.5);
#284=CYLINDRICAL_SURFACE('',#1084,1.5);
#285=FACE_OUTER_BOUND('',#343,.T.);
#286=FACE_OUTER_BOUND('',#344,.T.);
#287=FACE_OUTER_BOUND('',#345,.T.);
#288=FACE_OUTER_BOUND('',#346,.T.);
#289=FACE_OUTER_BOUND('',#347,.T.);
#290=FACE_OUTER_BOUND('',#348,.T.);
#291=FACE_OUTER_BOUND('',#349,.T.);
#292=FACE_OUTER_BOUND('',#350,.T.);
#293=FACE_OUTER_BOUND('',#351,.T.);
#294=FACE_OUTER_BOUND('',#352,.T.);
#295=FACE_OUTER_BOUND('',#353,.T.);
#296=FACE_OUTER_BOUND('',#354,.T.);
#297=FACE_OUTER_BOUND('',#355,.T.);
#298=FACE_OUTER_BOUND('',#360,.T.);
#299=FACE_OUTER_BOUND('',#361,.T.);
#300=FACE_OUTER_BOUND('',#362,.T.);
#301=FACE_OUTER_BOUND('',#363,.T.);
#302=FACE_OUTER_BOUND('',#364,.T.);
#303=FACE_OUTER_BOUND('',#365,.T.);
#304=FACE_OUTER_BOUND('',#367,.T.);
#305=FACE_OUTER_BOUND('',#368,.T.);
#306=FACE_OUTER_BOUND('',#370,.T.);
#307=FACE_OUTER_BOUND('',#371,.T.);
#308=FACE_OUTER_BOUND('',#373,.T.);
#309=FACE_OUTER_BOUND('',#374,.T.);
#310=FACE_OUTER_BOUND('',#376,.T.);
#311=FACE_OUTER_BOUND('',#377,.T.);
#312=FACE_OUTER_BOUND('',#378,.T.);
#313=FACE_OUTER_BOUND('',#379,.T.);
#314=FACE_OUTER_BOUND('',#380,.T.);
#315=FACE_OUTER_BOUND('',#381,.T.);
#316=FACE_OUTER_BOUND('',#382,.T.);
#317=FACE_OUTER_BOUND('',#383,.T.);
#318=FACE_OUTER_BOUND('',#384,.T.);
#319=FACE_OUTER_BOUND('',#385,.T.);
#320=FACE_OUTER_BOUND('',#386,.T.);
#321=FACE_OUTER_BOUND('',#387,.T.);
#322=FACE_OUTER_BOUND('',#388,.T.);
#323=FACE_OUTER_BOUND('',#389,.T.);
#324=FACE_OUTER_BOUND('',#390,.T.);
#325=FACE_OUTER_BOUND('',#391,.T.);
#326=FACE_OUTER_BOUND('',#392,.T.);
#327=FACE_OUTER_BOUND('',#393,.T.);
#328=FACE_OUTER_BOUND('',#394,.T.);
#329=FACE_OUTER_BOUND('',#395,.T.);
#330=FACE_OUTER_BOUND('',#396,.T.);
#331=FACE_OUTER_BOUND('',#397,.T.);
#332=FACE_OUTER_BOUND('',#398,.T.);
#333=FACE_OUTER_BOUND('',#399,.T.);
#334=FACE_OUTER_BOUND('',#400,.T.);
#335=FACE_OUTER_BOUND('',#401,.T.);
#336=FACE_OUTER_BOUND('',#402,.T.);
#337=FACE_OUTER_BOUND('',#403,.T.);
#338=FACE_OUTER_BOUND('',#404,.T.);
#339=FACE_OUTER_BOUND('',#405,.T.);
#340=FACE_OUTER_BOUND('',#406,.T.);
#341=FACE_OUTER_BOUND('',#407,.T.);
#342=FACE_OUTER_BOUND('',#408,.T.);
#343=EDGE_LOOP('',(#677,#678,#679,#680));
#344=EDGE_LOOP('',(#681,#682,#683,#684));
#345=EDGE_LOOP('',(#685,#686,#687,#688));
#346=EDGE_LOOP('',(#689,#690,#691,#692));
#347=EDGE_LOOP('',(#693,#694,#695,#696));
#348=EDGE_LOOP('',(#697,#698,#699,#700));
#349=EDGE_LOOP('',(#701,#702,#703,#704));
#350=EDGE_LOOP('',(#705,#706,#707,#708));
#351=EDGE_LOOP('',(#709,#710,#711,#712));
#352=EDGE_LOOP('',(#713,#714,#715,#716));
#353=EDGE_LOOP('',(#717,#718,#719,#720));
#354=EDGE_LOOP('',(#721,#722,#723,#724));
#355=EDGE_LOOP('',(#725,#726,#727,#728,#729,#730,#731,#732));
#356=EDGE_LOOP('',(#733));
#357=EDGE_LOOP('',(#734));
#358=EDGE_LOOP('',(#735));
#359=EDGE_LOOP('',(#736));
#360=EDGE_LOOP('',(#737,#738,#739,#740));
#361=EDGE_LOOP('',(#741,#742,#743,#744));
#362=EDGE_LOOP('',(#745,#746,#747,#748));
#363=EDGE_LOOP('',(#749,#750,#751,#752));
#364=EDGE_LOOP('',(#753,#754,#755,#756));
#365=EDGE_LOOP('',(#757));
#366=EDGE_LOOP('',(#758));
#367=EDGE_LOOP('',(#759,#760,#761,#762));
#368=EDGE_LOOP('',(#763));
#369=EDGE_LOOP('',(#764));
#370=EDGE_LOOP('',(#765,#766,#767,#768));
#371=EDGE_LOOP('',(#769));
#372=EDGE_LOOP('',(#770));
#373=EDGE_LOOP('',(#771,#772,#773,#774));
#374=EDGE_LOOP('',(#775));
#375=EDGE_LOOP('',(#776));
#376=EDGE_LOOP('',(#777,#778,#779,#780));
#377=EDGE_LOOP('',(#781,#782,#783,#784));
#378=EDGE_LOOP('',(#785,#786,#787,#788));
#379=EDGE_LOOP('',(#789,#790,#791,#792));
#380=EDGE_LOOP('',(#793,#794,#795,#796));
#381=EDGE_LOOP('',(#797,#798,#799,#800));
#382=EDGE_LOOP('',(#801,#802,#803,#804));
#383=EDGE_LOOP('',(#805,#806,#807,#808));
#384=EDGE_LOOP('',(#809,#810,#811,#812));
#385=EDGE_LOOP('',(#813,#814,#815,#816));
#386=EDGE_LOOP('',(#817,#818,#819,#820));
#387=EDGE_LOOP('',(#821,#822,#823,#824));
#388=EDGE_LOOP('',(#825,#826,#827,#828,#829,#830,#831,#832));
#389=EDGE_LOOP('',(#833,#834,#835,#836,#837,#838,#839,#840));
#390=EDGE_LOOP('',(#841,#842,#843,#844));
#391=EDGE_LOOP('',(#845,#846,#847,#848));
#392=EDGE_LOOP('',(#849,#850,#851,#852));
#393=EDGE_LOOP('',(#853,#854,#855,#856));
#394=EDGE_LOOP('',(#857,#858,#859,#860));
#395=EDGE_LOOP('',(#861,#862,#863,#864));
#396=EDGE_LOOP('',(#865,#866,#867,#868));
#397=EDGE_LOOP('',(#869,#870,#871,#872));
#398=EDGE_LOOP('',(#873,#874,#875,#876));
#399=EDGE_LOOP('',(#877,#878,#879,#880));
#400=EDGE_LOOP('',(#881,#882,#883,#884));
#401=EDGE_LOOP('',(#885,#886,#887,#888));
#402=EDGE_LOOP('',(#889,#890,#891,#892));
#403=EDGE_LOOP('',(#893,#894,#895,#896));
#404=EDGE_LOOP('',(#897,#898,#899,#900));
#405=EDGE_LOOP('',(#901,#902,#903,#904));
#406=EDGE_LOOP('',(#905,#906,#907,#908));
#407=EDGE_LOOP('',(#909,#910,#911,#912));
#408=EDGE_LOOP('',(#913,#914,#915,#916,#917,#918,#919,#920));
#409=EDGE_LOOP('',(#921,#922,#923,#924));
#410=EDGE_LOOP('',(#925,#926,#927,#928,#929,#930,#931,#932));
#411=EDGE_LOOP('',(#933,#934,#935,#936));
#412=EDGE_LOOP('',(#937,#938,#939,#940,#941,#942,#943,#944));
#413=EDGE_LOOP('',(#945));
#414=EDGE_LOOP('',(#946));
#415=EDGE_LOOP('',(#947));
#416=EDGE_LOOP('',(#948));
#417=CIRCLE('',#1025,0.499999999999989);
#418=CIRCLE('',#1026,0.5);
#419=CIRCLE('',#1027,0.499999999999998);
#420=CIRCLE('',#1028,1.);
#421=CIRCLE('',#1030,0.499999999999998);
#422=CIRCLE('',#1031,0.499999999999998);
#423=CIRCLE('',#1032,1.);
#424=CIRCLE('',#1033,0.5);
#425=CIRCLE('',#1035,0.499999999999998);
#426=CIRCLE('',#1036,0.499999999999998);
#427=CIRCLE('',#1037,1.);
#428=CIRCLE('',#1038,0.5);
#429=CIRCLE('',#1040,0.499999999999998);
#430=CIRCLE('',#1041,0.499999999999998);
#431=CIRCLE('',#1042,1.);
#432=CIRCLE('',#1043,0.5);
#433=CIRCLE('',#1047,1.);
#434=CIRCLE('',#1050,1.);
#435=CIRCLE('',#1052,3.);
#436=CIRCLE('',#1053,3.);
#437=CIRCLE('',#1054,3.);
#438=CIRCLE('',#1055,3.);
#439=CIRCLE('',#1058,1.);
#440=CIRCLE('',#1061,1.);
#441=CIRCLE('',#1063,3.);
#442=CIRCLE('',#1065,1.5);
#443=CIRCLE('',#1067,3.);
#444=CIRCLE('',#1069,1.5);
#445=CIRCLE('',#1071,3.);
#446=CIRCLE('',#1073,1.5);
#447=CIRCLE('',#1075,3.);
#448=CIRCLE('',#1077,1.5);
#449=CIRCLE('',#1079,1.5);
#450=CIRCLE('',#1081,1.5);
#451=CIRCLE('',#1083,1.5);
#452=CIRCLE('',#1085,1.5);
#453=VERTEX_POINT('',#1407);
#454=VERTEX_POINT('',#1408);
#455=VERTEX_POINT('',#1410);
#456=VERTEX_POINT('',#1412);
#457=VERTEX_POINT('',#1416);
#458=VERTEX_POINT('',#1417);
#459=VERTEX_POINT('',#1430);
#460=VERTEX_POINT('',#1431);
#461=VERTEX_POINT('',#1436);
#462=VERTEX_POINT('',#1437);
#463=VERTEX_POINT('',#1450);
#464=VERTEX_POINT('',#1451);
#465=VERTEX_POINT('',#1456);
#466=VERTEX_POINT('',#1457);
#467=VERTEX_POINT('',#1470);
#468=VERTEX_POINT('',#1471);
#469=VERTEX_POINT('',#1479);
#470=VERTEX_POINT('',#1481);
#471=VERTEX_POINT('',#1485);
#472=VERTEX_POINT('',#1489);
#473=VERTEX_POINT('',#1493);
#474=VERTEX_POINT('',#1497);
#475=VERTEX_POINT('',#1499);
#476=VERTEX_POINT('',#1501);
#477=VERTEX_POINT('',#1503);
#478=VERTEX_POINT('',#1506);
#479=VERTEX_POINT('',#1510);
#480=VERTEX_POINT('',#1514);
#481=VERTEX_POINT('',#1520);
#482=VERTEX_POINT('',#1524);
#483=VERTEX_POINT('',#1527);
#484=VERTEX_POINT('',#1531);
#485=VERTEX_POINT('',#1534);
#486=VERTEX_POINT('',#1538);
#487=VERTEX_POINT('',#1541);
#488=VERTEX_POINT('',#1545);
#489=VERTEX_POINT('',#1548);
#490=VERTEX_POINT('',#1552);
#491=VERTEX_POINT('',#1556);
#492=VERTEX_POINT('',#1560);
#493=VERTEX_POINT('',#1564);
#494=VERTEX_POINT('',#1565);
#495=VERTEX_POINT('',#1567);
#496=VERTEX_POINT('',#1569);
#497=VERTEX_POINT('',#1573);
#498=VERTEX_POINT('',#1574);
#499=VERTEX_POINT('',#1576);
#500=VERTEX_POINT('',#1578);
#501=VERTEX_POINT('',#1582);
#502=VERTEX_POINT('',#1583);
#503=VERTEX_POINT('',#1585);
#504=VERTEX_POINT('',#1587);
#505=VERTEX_POINT('',#1591);
#506=VERTEX_POINT('',#1592);
#507=VERTEX_POINT('',#1594);
#508=VERTEX_POINT('',#1596);
#509=VERTEX_POINT('',#1600);
#510=VERTEX_POINT('',#1602);
#511=VERTEX_POINT('',#1606);
#512=VERTEX_POINT('',#1608);
#513=VERTEX_POINT('',#1612);
#514=VERTEX_POINT('',#1614);
#515=VERTEX_POINT('',#1618);
#516=VERTEX_POINT('',#1620);
#517=VERTEX_POINT('',#1624);
#518=VERTEX_POINT('',#1626);
#519=VERTEX_POINT('',#1628);
#520=VERTEX_POINT('',#1630);
#521=VERTEX_POINT('',#1634);
#522=VERTEX_POINT('',#1636);
#523=VERTEX_POINT('',#1638);
#524=VERTEX_POINT('',#1640);
#525=VERTEX_POINT('',#1644);
#526=VERTEX_POINT('',#1645);
#527=VERTEX_POINT('',#1647);
#528=VERTEX_POINT('',#1649);
#529=VERTEX_POINT('',#1653);
#530=VERTEX_POINT('',#1655);
#531=VERTEX_POINT('',#1659);
#532=VERTEX_POINT('',#1661);
#533=VERTEX_POINT('',#1665);
#534=VERTEX_POINT('',#1669);
#535=VERTEX_POINT('',#1676);
#536=VERTEX_POINT('',#1680);
#537=VERTEX_POINT('',#1684);
#538=VERTEX_POINT('',#1686);
#539=VERTEX_POINT('',#1692);
#540=VERTEX_POINT('',#1696);
#541=EDGE_CURVE('',#453,#454,#417,.T.);
#542=EDGE_CURVE('',#454,#455,#418,.T.);
#543=EDGE_CURVE('',#455,#456,#419,.T.);
#544=EDGE_CURVE('',#456,#453,#420,.T.);
#545=EDGE_CURVE('',#457,#458,#421,.T.);
#546=EDGE_CURVE('',#458,#456,#69,.T.);
#547=EDGE_CURVE('',#455,#457,#70,.T.);
#548=EDGE_CURVE('',#459,#460,#422,.T.);
#549=EDGE_CURVE('',#460,#458,#423,.T.);
#550=EDGE_CURVE('',#457,#459,#424,.T.);
#551=EDGE_CURVE('',#461,#462,#425,.T.);
#552=EDGE_CURVE('',#462,#460,#71,.T.);
#553=EDGE_CURVE('',#459,#461,#72,.T.);
#554=EDGE_CURVE('',#463,#464,#426,.T.);
#555=EDGE_CURVE('',#464,#462,#427,.T.);
#556=EDGE_CURVE('',#461,#463,#428,.T.);
#557=EDGE_CURVE('',#465,#466,#429,.T.);
#558=EDGE_CURVE('',#466,#464,#73,.T.);
#559=EDGE_CURVE('',#463,#465,#74,.T.);
#560=EDGE_CURVE('',#467,#468,#430,.T.);
#561=EDGE_CURVE('',#468,#466,#431,.T.);
#562=EDGE_CURVE('',#465,#467,#432,.T.);
#563=EDGE_CURVE('',#467,#454,#75,.T.);
#564=EDGE_CURVE('',#453,#468,#76,.T.);
#565=EDGE_CURVE('',#469,#466,#77,.T.);
#566=EDGE_CURVE('',#469,#470,#78,.T.);
#567=EDGE_CURVE('',#464,#470,#79,.T.);
#568=EDGE_CURVE('',#468,#471,#80,.T.);
#569=EDGE_CURVE('',#471,#469,#433,.T.);
#570=EDGE_CURVE('',#472,#453,#81,.T.);
#571=EDGE_CURVE('',#472,#471,#82,.T.);
#572=EDGE_CURVE('',#456,#473,#83,.T.);
#573=EDGE_CURVE('',#473,#472,#434,.T.);
#574=EDGE_CURVE('',#474,#474,#435,.T.);
#575=EDGE_CURVE('',#475,#475,#436,.T.);
#576=EDGE_CURVE('',#476,#476,#437,.T.);
#577=EDGE_CURVE('',#477,#477,#438,.T.);
#578=EDGE_CURVE('',#478,#458,#84,.T.);
#579=EDGE_CURVE('',#478,#473,#85,.T.);
#580=EDGE_CURVE('',#460,#479,#86,.T.);
#581=EDGE_CURVE('',#479,#478,#439,.T.);
#582=EDGE_CURVE('',#480,#462,#87,.T.);
#583=EDGE_CURVE('',#479,#480,#88,.T.);
#584=EDGE_CURVE('',#470,#480,#440,.T.);
#585=EDGE_CURVE('',#474,#481,#89,.T.);
#586=EDGE_CURVE('',#481,#481,#441,.T.);
#587=EDGE_CURVE('',#482,#482,#442,.T.);
#588=EDGE_CURVE('',#475,#483,#90,.T.);
#589=EDGE_CURVE('',#483,#483,#443,.T.);
#590=EDGE_CURVE('',#484,#484,#444,.T.);
#591=EDGE_CURVE('',#476,#485,#91,.T.);
#592=EDGE_CURVE('',#485,#485,#445,.T.);
#593=EDGE_CURVE('',#486,#486,#446,.T.);
#594=EDGE_CURVE('',#477,#487,#92,.T.);
#595=EDGE_CURVE('',#487,#487,#447,.T.);
#596=EDGE_CURVE('',#488,#488,#448,.T.);
#597=EDGE_CURVE('',#489,#489,#449,.T.);
#598=EDGE_CURVE('',#489,#484,#93,.T.);
#599=EDGE_CURVE('',#490,#490,#450,.T.);
#600=EDGE_CURVE('',#490,#482,#94,.T.);
#601=EDGE_CURVE('',#491,#491,#451,.T.);
#602=EDGE_CURVE('',#491,#488,#95,.T.);
#603=EDGE_CURVE('',#492,#492,#452,.T.);
#604=EDGE_CURVE('',#492,#486,#96,.T.);
#605=EDGE_CURVE('',#493,#494,#97,.T.);
#606=EDGE_CURVE('',#495,#493,#98,.T.);
#607=EDGE_CURVE('',#496,#495,#99,.T.);
#608=EDGE_CURVE('',#494,#496,#100,.T.);
#609=EDGE_CURVE('',#497,#498,#101,.T.);
#610=EDGE_CURVE('',#499,#497,#102,.T.);
#611=EDGE_CURVE('',#500,#499,#103,.T.);
#612=EDGE_CURVE('',#498,#500,#104,.T.);
#613=EDGE_CURVE('',#501,#502,#105,.T.);
#614=EDGE_CURVE('',#503,#501,#106,.T.);
#615=EDGE_CURVE('',#504,#503,#107,.T.);
#616=EDGE_CURVE('',#502,#504,#108,.T.);
#617=EDGE_CURVE('',#505,#506,#109,.T.);
#618=EDGE_CURVE('',#507,#505,#110,.T.);
#619=EDGE_CURVE('',#508,#507,#111,.T.);
#620=EDGE_CURVE('',#506,#508,#112,.T.);
#621=EDGE_CURVE('',#509,#493,#113,.T.);
#622=EDGE_CURVE('',#510,#509,#114,.T.);
#623=EDGE_CURVE('',#495,#510,#115,.T.);
#624=EDGE_CURVE('',#511,#504,#116,.T.);
#625=EDGE_CURVE('',#511,#512,#117,.T.);
#626=EDGE_CURVE('',#502,#512,#118,.T.);
#627=EDGE_CURVE('',#513,#501,#119,.T.);
#628=EDGE_CURVE('',#514,#513,#120,.T.);
#629=EDGE_CURVE('',#503,#514,#121,.T.);
#630=EDGE_CURVE('',#515,#496,#122,.T.);
#631=EDGE_CURVE('',#515,#516,#123,.T.);
#632=EDGE_CURVE('',#494,#516,#124,.T.);
#633=EDGE_CURVE('',#512,#517,#125,.T.);
#634=EDGE_CURVE('',#517,#518,#126,.T.);
#635=EDGE_CURVE('',#518,#519,#127,.T.);
#636=EDGE_CURVE('',#519,#520,#128,.T.);
#637=EDGE_CURVE('',#520,#513,#129,.T.);
#638=EDGE_CURVE('',#516,#521,#130,.T.);
#639=EDGE_CURVE('',#521,#522,#131,.T.);
#640=EDGE_CURVE('',#522,#523,#132,.T.);
#641=EDGE_CURVE('',#523,#524,#133,.T.);
#642=EDGE_CURVE('',#524,#509,#134,.T.);
#643=EDGE_CURVE('',#525,#526,#135,.T.);
#644=EDGE_CURVE('',#527,#525,#136,.T.);
#645=EDGE_CURVE('',#528,#527,#137,.T.);
#646=EDGE_CURVE('',#526,#528,#138,.T.);
#647=EDGE_CURVE('',#529,#522,#139,.T.);
#648=EDGE_CURVE('',#530,#529,#140,.T.);
#649=EDGE_CURVE('',#523,#530,#141,.T.);
#650=EDGE_CURVE('',#531,#528,#142,.T.);
#651=EDGE_CURVE('',#531,#532,#143,.T.);
#652=EDGE_CURVE('',#526,#532,#144,.T.);
#653=EDGE_CURVE('',#533,#521,#145,.T.);
#654=EDGE_CURVE('',#529,#533,#146,.T.);
#655=EDGE_CURVE('',#532,#534,#147,.T.);
#656=EDGE_CURVE('',#534,#525,#148,.T.);
#657=EDGE_CURVE('',#498,#505,#149,.T.);
#658=EDGE_CURVE('',#506,#497,#150,.T.);
#659=EDGE_CURVE('',#534,#535,#151,.T.);
#660=EDGE_CURVE('',#527,#535,#152,.T.);
#661=EDGE_CURVE('',#536,#530,#153,.T.);
#662=EDGE_CURVE('',#536,#524,#154,.T.);
#663=EDGE_CURVE('',#537,#518,#155,.T.);
#664=EDGE_CURVE('',#538,#537,#156,.T.);
#665=EDGE_CURVE('',#519,#538,#157,.T.);
#666=EDGE_CURVE('',#535,#531,#158,.T.);
#667=EDGE_CURVE('',#539,#517,#159,.T.);
#668=EDGE_CURVE('',#537,#539,#160,.T.);
#669=EDGE_CURVE('',#540,#538,#161,.T.);
#670=EDGE_CURVE('',#540,#520,#162,.T.);
#671=EDGE_CURVE('',#510,#536,#163,.T.);
#672=EDGE_CURVE('',#539,#511,#164,.T.);
#673=EDGE_CURVE('',#499,#508,#165,.T.);
#674=EDGE_CURVE('',#514,#540,#166,.T.);
#675=EDGE_CURVE('',#533,#515,#167,.T.);
#676=EDGE_CURVE('',#507,#500,#168,.T.);
#677=ORIENTED_EDGE('',*,*,#541,.T.);
#678=ORIENTED_EDGE('',*,*,#542,.T.);
#679=ORIENTED_EDGE('',*,*,#543,.T.);
#680=ORIENTED_EDGE('',*,*,#544,.T.);
#681=ORIENTED_EDGE('',*,*,#545,.T.);
#682=ORIENTED_EDGE('',*,*,#546,.T.);
#683=ORIENTED_EDGE('',*,*,#543,.F.);
#684=ORIENTED_EDGE('',*,*,#547,.T.);
#685=ORIENTED_EDGE('',*,*,#548,.T.);
#686=ORIENTED_EDGE('',*,*,#549,.T.);
#687=ORIENTED_EDGE('',*,*,#545,.F.);
#688=ORIENTED_EDGE('',*,*,#550,.T.);
#689=ORIENTED_EDGE('',*,*,#551,.T.);
#690=ORIENTED_EDGE('',*,*,#552,.T.);
#691=ORIENTED_EDGE('',*,*,#548,.F.);
#692=ORIENTED_EDGE('',*,*,#553,.T.);
#693=ORIENTED_EDGE('',*,*,#554,.T.);
#694=ORIENTED_EDGE('',*,*,#555,.T.);
#695=ORIENTED_EDGE('',*,*,#551,.F.);
#696=ORIENTED_EDGE('',*,*,#556,.T.);
#697=ORIENTED_EDGE('',*,*,#557,.T.);
#698=ORIENTED_EDGE('',*,*,#558,.T.);
#699=ORIENTED_EDGE('',*,*,#554,.F.);
#700=ORIENTED_EDGE('',*,*,#559,.T.);
#701=ORIENTED_EDGE('',*,*,#560,.T.);
#702=ORIENTED_EDGE('',*,*,#561,.T.);
#703=ORIENTED_EDGE('',*,*,#557,.F.);
#704=ORIENTED_EDGE('',*,*,#562,.T.);
#705=ORIENTED_EDGE('',*,*,#560,.F.);
#706=ORIENTED_EDGE('',*,*,#563,.T.);
#707=ORIENTED_EDGE('',*,*,#541,.F.);
#708=ORIENTED_EDGE('',*,*,#564,.T.);
#709=ORIENTED_EDGE('',*,*,#558,.F.);
#710=ORIENTED_EDGE('',*,*,#565,.F.);
#711=ORIENTED_EDGE('',*,*,#566,.T.);
#712=ORIENTED_EDGE('',*,*,#567,.F.);
#713=ORIENTED_EDGE('',*,*,#561,.F.);
#714=ORIENTED_EDGE('',*,*,#568,.T.);
#715=ORIENTED_EDGE('',*,*,#569,.T.);
#716=ORIENTED_EDGE('',*,*,#565,.T.);
#717=ORIENTED_EDGE('',*,*,#564,.F.);
#718=ORIENTED_EDGE('',*,*,#570,.F.);
#719=ORIENTED_EDGE('',*,*,#571,.T.);
#720=ORIENTED_EDGE('',*,*,#568,.F.);
#721=ORIENTED_EDGE('',*,*,#544,.F.);
#722=ORIENTED_EDGE('',*,*,#572,.T.);
#723=ORIENTED_EDGE('',*,*,#573,.T.);
#724=ORIENTED_EDGE('',*,*,#570,.T.);
#725=ORIENTED_EDGE('',*,*,#542,.F.);
#726=ORIENTED_EDGE('',*,*,#563,.F.);
#727=ORIENTED_EDGE('',*,*,#562,.F.);
#728=ORIENTED_EDGE('',*,*,#559,.F.);
#729=ORIENTED_EDGE('',*,*,#556,.F.);
#730=ORIENTED_EDGE('',*,*,#553,.F.);
#731=ORIENTED_EDGE('',*,*,#550,.F.);
#732=ORIENTED_EDGE('',*,*,#547,.F.);
#733=ORIENTED_EDGE('',*,*,#574,.T.);
#734=ORIENTED_EDGE('',*,*,#575,.T.);
#735=ORIENTED_EDGE('',*,*,#576,.T.);
#736=ORIENTED_EDGE('',*,*,#577,.T.);
#737=ORIENTED_EDGE('',*,*,#546,.F.);
#738=ORIENTED_EDGE('',*,*,#578,.F.);
#739=ORIENTED_EDGE('',*,*,#579,.T.);
#740=ORIENTED_EDGE('',*,*,#572,.F.);
#741=ORIENTED_EDGE('',*,*,#549,.F.);
#742=ORIENTED_EDGE('',*,*,#580,.T.);
#743=ORIENTED_EDGE('',*,*,#581,.T.);
#744=ORIENTED_EDGE('',*,*,#578,.T.);
#745=ORIENTED_EDGE('',*,*,#552,.F.);
#746=ORIENTED_EDGE('',*,*,#582,.F.);
#747=ORIENTED_EDGE('',*,*,#583,.F.);
#748=ORIENTED_EDGE('',*,*,#580,.F.);
#749=ORIENTED_EDGE('',*,*,#555,.F.);
#750=ORIENTED_EDGE('',*,*,#567,.T.);
#751=ORIENTED_EDGE('',*,*,#584,.T.);
#752=ORIENTED_EDGE('',*,*,#582,.T.);
#753=ORIENTED_EDGE('',*,*,#574,.F.);
#754=ORIENTED_EDGE('',*,*,#585,.T.);
#755=ORIENTED_EDGE('',*,*,#586,.T.);
#756=ORIENTED_EDGE('',*,*,#585,.F.);
#757=ORIENTED_EDGE('',*,*,#586,.F.);
#758=ORIENTED_EDGE('',*,*,#587,.F.);
#759=ORIENTED_EDGE('',*,*,#575,.F.);
#760=ORIENTED_EDGE('',*,*,#588,.T.);
#761=ORIENTED_EDGE('',*,*,#589,.T.);
#762=ORIENTED_EDGE('',*,*,#588,.F.);
#763=ORIENTED_EDGE('',*,*,#589,.F.);
#764=ORIENTED_EDGE('',*,*,#590,.F.);
#765=ORIENTED_EDGE('',*,*,#576,.F.);
#766=ORIENTED_EDGE('',*,*,#591,.T.);
#767=ORIENTED_EDGE('',*,*,#592,.T.);
#768=ORIENTED_EDGE('',*,*,#591,.F.);
#769=ORIENTED_EDGE('',*,*,#592,.F.);
#770=ORIENTED_EDGE('',*,*,#593,.F.);
#771=ORIENTED_EDGE('',*,*,#577,.F.);
#772=ORIENTED_EDGE('',*,*,#594,.T.);
#773=ORIENTED_EDGE('',*,*,#595,.T.);
#774=ORIENTED_EDGE('',*,*,#594,.F.);
#775=ORIENTED_EDGE('',*,*,#595,.F.);
#776=ORIENTED_EDGE('',*,*,#596,.F.);
#777=ORIENTED_EDGE('',*,*,#597,.F.);
#778=ORIENTED_EDGE('',*,*,#598,.T.);
#779=ORIENTED_EDGE('',*,*,#590,.T.);
#780=ORIENTED_EDGE('',*,*,#598,.F.);
#781=ORIENTED_EDGE('',*,*,#599,.F.);
#782=ORIENTED_EDGE('',*,*,#600,.T.);
#783=ORIENTED_EDGE('',*,*,#587,.T.);
#784=ORIENTED_EDGE('',*,*,#600,.F.);
#785=ORIENTED_EDGE('',*,*,#601,.F.);
#786=ORIENTED_EDGE('',*,*,#602,.T.);
#787=ORIENTED_EDGE('',*,*,#596,.T.);
#788=ORIENTED_EDGE('',*,*,#602,.F.);
#789=ORIENTED_EDGE('',*,*,#603,.F.);
#790=ORIENTED_EDGE('',*,*,#604,.T.);
#791=ORIENTED_EDGE('',*,*,#593,.T.);
#792=ORIENTED_EDGE('',*,*,#604,.F.);
#793=ORIENTED_EDGE('',*,*,#605,.F.);
#794=ORIENTED_EDGE('',*,*,#606,.F.);
#795=ORIENTED_EDGE('',*,*,#607,.F.);
#796=ORIENTED_EDGE('',*,*,#608,.F.);
#797=ORIENTED_EDGE('',*,*,#609,.F.);
#798=ORIENTED_EDGE('',*,*,#610,.F.);
#799=ORIENTED_EDGE('',*,*,#611,.F.);
#800=ORIENTED_EDGE('',*,*,#612,.F.);
#801=ORIENTED_EDGE('',*,*,#613,.F.);
#802=ORIENTED_EDGE('',*,*,#614,.F.);
#803=ORIENTED_EDGE('',*,*,#615,.F.);
#804=ORIENTED_EDGE('',*,*,#616,.F.);
#805=ORIENTED_EDGE('',*,*,#617,.F.);
#806=ORIENTED_EDGE('',*,*,#618,.F.);
#807=ORIENTED_EDGE('',*,*,#619,.F.);
#808=ORIENTED_EDGE('',*,*,#620,.F.);
#809=ORIENTED_EDGE('',*,*,#606,.T.);
#810=ORIENTED_EDGE('',*,*,#621,.F.);
#811=ORIENTED_EDGE('',*,*,#622,.F.);
#812=ORIENTED_EDGE('',*,*,#623,.F.);
#813=ORIENTED_EDGE('',*,*,#616,.T.);
#814=ORIENTED_EDGE('',*,*,#624,.F.);
#815=ORIENTED_EDGE('',*,*,#625,.T.);
#816=ORIENTED_EDGE('',*,*,#626,.F.);
#817=ORIENTED_EDGE('',*,*,#614,.T.);
#818=ORIENTED_EDGE('',*,*,#627,.F.);
#819=ORIENTED_EDGE('',*,*,#628,.F.);
#820=ORIENTED_EDGE('',*,*,#629,.F.);
#821=ORIENTED_EDGE('',*,*,#608,.T.);
#822=ORIENTED_EDGE('',*,*,#630,.F.);
#823=ORIENTED_EDGE('',*,*,#631,.T.);
#824=ORIENTED_EDGE('',*,*,#632,.F.);
#825=ORIENTED_EDGE('',*,*,#613,.T.);
#826=ORIENTED_EDGE('',*,*,#626,.T.);
#827=ORIENTED_EDGE('',*,*,#633,.T.);
#828=ORIENTED_EDGE('',*,*,#634,.T.);
#829=ORIENTED_EDGE('',*,*,#635,.T.);
#830=ORIENTED_EDGE('',*,*,#636,.T.);
#831=ORIENTED_EDGE('',*,*,#637,.T.);
#832=ORIENTED_EDGE('',*,*,#627,.T.);
#833=ORIENTED_EDGE('',*,*,#605,.T.);
#834=ORIENTED_EDGE('',*,*,#632,.T.);
#835=ORIENTED_EDGE('',*,*,#638,.T.);
#836=ORIENTED_EDGE('',*,*,#639,.T.);
#837=ORIENTED_EDGE('',*,*,#640,.T.);
#838=ORIENTED_EDGE('',*,*,#641,.T.);
#839=ORIENTED_EDGE('',*,*,#642,.T.);
#840=ORIENTED_EDGE('',*,*,#621,.T.);
#841=ORIENTED_EDGE('',*,*,#643,.F.);
#842=ORIENTED_EDGE('',*,*,#644,.F.);
#843=ORIENTED_EDGE('',*,*,#645,.F.);
#844=ORIENTED_EDGE('',*,*,#646,.F.);
#845=ORIENTED_EDGE('',*,*,#640,.F.);
#846=ORIENTED_EDGE('',*,*,#647,.F.);
#847=ORIENTED_EDGE('',*,*,#648,.F.);
#848=ORIENTED_EDGE('',*,*,#649,.F.);
#849=ORIENTED_EDGE('',*,*,#646,.T.);
#850=ORIENTED_EDGE('',*,*,#650,.F.);
#851=ORIENTED_EDGE('',*,*,#651,.T.);
#852=ORIENTED_EDGE('',*,*,#652,.F.);
#853=ORIENTED_EDGE('',*,*,#647,.T.);
#854=ORIENTED_EDGE('',*,*,#639,.F.);
#855=ORIENTED_EDGE('',*,*,#653,.F.);
#856=ORIENTED_EDGE('',*,*,#654,.F.);
#857=ORIENTED_EDGE('',*,*,#643,.T.);
#858=ORIENTED_EDGE('',*,*,#652,.T.);
#859=ORIENTED_EDGE('',*,*,#655,.T.);
#860=ORIENTED_EDGE('',*,*,#656,.T.);
#861=ORIENTED_EDGE('',*,*,#609,.T.);
#862=ORIENTED_EDGE('',*,*,#657,.T.);
#863=ORIENTED_EDGE('',*,*,#617,.T.);
#864=ORIENTED_EDGE('',*,*,#658,.T.);
#865=ORIENTED_EDGE('',*,*,#644,.T.);
#866=ORIENTED_EDGE('',*,*,#656,.F.);
#867=ORIENTED_EDGE('',*,*,#659,.T.);
#868=ORIENTED_EDGE('',*,*,#660,.F.);
#869=ORIENTED_EDGE('',*,*,#649,.T.);
#870=ORIENTED_EDGE('',*,*,#661,.F.);
#871=ORIENTED_EDGE('',*,*,#662,.T.);
#872=ORIENTED_EDGE('',*,*,#641,.F.);
#873=ORIENTED_EDGE('',*,*,#635,.F.);
#874=ORIENTED_EDGE('',*,*,#663,.F.);
#875=ORIENTED_EDGE('',*,*,#664,.F.);
#876=ORIENTED_EDGE('',*,*,#665,.F.);
#877=ORIENTED_EDGE('',*,*,#655,.F.);
#878=ORIENTED_EDGE('',*,*,#651,.F.);
#879=ORIENTED_EDGE('',*,*,#666,.F.);
#880=ORIENTED_EDGE('',*,*,#659,.F.);
#881=ORIENTED_EDGE('',*,*,#663,.T.);
#882=ORIENTED_EDGE('',*,*,#634,.F.);
#883=ORIENTED_EDGE('',*,*,#667,.F.);
#884=ORIENTED_EDGE('',*,*,#668,.F.);
#885=ORIENTED_EDGE('',*,*,#665,.T.);
#886=ORIENTED_EDGE('',*,*,#669,.F.);
#887=ORIENTED_EDGE('',*,*,#670,.T.);
#888=ORIENTED_EDGE('',*,*,#636,.F.);
#889=ORIENTED_EDGE('',*,*,#671,.F.);
#890=ORIENTED_EDGE('',*,*,#622,.T.);
#891=ORIENTED_EDGE('',*,*,#642,.F.);
#892=ORIENTED_EDGE('',*,*,#662,.F.);
#893=ORIENTED_EDGE('',*,*,#672,.F.);
#894=ORIENTED_EDGE('',*,*,#667,.T.);
#895=ORIENTED_EDGE('',*,*,#633,.F.);
#896=ORIENTED_EDGE('',*,*,#625,.F.);
#897=ORIENTED_EDGE('',*,*,#610,.T.);
#898=ORIENTED_EDGE('',*,*,#658,.F.);
#899=ORIENTED_EDGE('',*,*,#620,.T.);
#900=ORIENTED_EDGE('',*,*,#673,.F.);
#901=ORIENTED_EDGE('',*,*,#674,.F.);
#902=ORIENTED_EDGE('',*,*,#628,.T.);
#903=ORIENTED_EDGE('',*,*,#637,.F.);
#904=ORIENTED_EDGE('',*,*,#670,.F.);
#905=ORIENTED_EDGE('',*,*,#675,.F.);
#906=ORIENTED_EDGE('',*,*,#653,.T.);
#907=ORIENTED_EDGE('',*,*,#638,.F.);
#908=ORIENTED_EDGE('',*,*,#631,.F.);
#909=ORIENTED_EDGE('',*,*,#612,.T.);
#910=ORIENTED_EDGE('',*,*,#676,.F.);
#911=ORIENTED_EDGE('',*,*,#618,.T.);
#912=ORIENTED_EDGE('',*,*,#657,.F.);
#913=ORIENTED_EDGE('',*,*,#573,.F.);
#914=ORIENTED_EDGE('',*,*,#579,.F.);
#915=ORIENTED_EDGE('',*,*,#581,.F.);
#916=ORIENTED_EDGE('',*,*,#583,.T.);
#917=ORIENTED_EDGE('',*,*,#584,.F.);
#918=ORIENTED_EDGE('',*,*,#566,.F.);
#919=ORIENTED_EDGE('',*,*,#569,.F.);
#920=ORIENTED_EDGE('',*,*,#571,.F.);
#921=ORIENTED_EDGE('',*,*,#660,.T.);
#922=ORIENTED_EDGE('',*,*,#666,.T.);
#923=ORIENTED_EDGE('',*,*,#650,.T.);
#924=ORIENTED_EDGE('',*,*,#645,.T.);
#925=ORIENTED_EDGE('',*,*,#629,.T.);
#926=ORIENTED_EDGE('',*,*,#674,.T.);
#927=ORIENTED_EDGE('',*,*,#669,.T.);
#928=ORIENTED_EDGE('',*,*,#664,.T.);
#929=ORIENTED_EDGE('',*,*,#668,.T.);
#930=ORIENTED_EDGE('',*,*,#672,.T.);
#931=ORIENTED_EDGE('',*,*,#624,.T.);
#932=ORIENTED_EDGE('',*,*,#615,.T.);
#933=ORIENTED_EDGE('',*,*,#676,.T.);
#934=ORIENTED_EDGE('',*,*,#611,.T.);
#935=ORIENTED_EDGE('',*,*,#673,.T.);
#936=ORIENTED_EDGE('',*,*,#619,.T.);
#937=ORIENTED_EDGE('',*,*,#623,.T.);
#938=ORIENTED_EDGE('',*,*,#671,.T.);
#939=ORIENTED_EDGE('',*,*,#661,.T.);
#940=ORIENTED_EDGE('',*,*,#648,.T.);
#941=ORIENTED_EDGE('',*,*,#654,.T.);
#942=ORIENTED_EDGE('',*,*,#675,.T.);
#943=ORIENTED_EDGE('',*,*,#630,.T.);
#944=ORIENTED_EDGE('',*,*,#607,.T.);
#945=ORIENTED_EDGE('',*,*,#603,.T.);
#946=ORIENTED_EDGE('',*,*,#601,.T.);
#947=ORIENTED_EDGE('',*,*,#599,.T.);
#948=ORIENTED_EDGE('',*,*,#597,.T.);
#949=(
BOUNDED_SURFACE()
B_SPLINE_SURFACE(2,2,((#1398,#1399,#1400),(#1401,#1402,#1403),(#1404,#1405,
#1406)),.UNSPECIFIED.,.F.,.F.,.F.)
B_SPLINE_SURFACE_WITH_KNOTS((3,3),(3,3),(-1.5707963267949,0.),(-1.5707963267949,
0.),.UNSPECIFIED.)
GEOMETRIC_REPRESENTATION_ITEM()
RATIONAL_B_SPLINE_SURFACE(((1.,0.707106781186548,1.),(0.707106781186554,
0.500000000000005,0.707106781186554),(1.,0.707106781186548,1.)))
REPRESENTATION_ITEM('')
SURFACE()
);
#950=(
BOUNDED_SURFACE()
B_SPLINE_SURFACE(2,2,((#1421,#1422,#1423),(#1424,#1425,#1426),(#1427,#1428,
#1429)),.UNSPECIFIED.,.F.,.F.,.F.)
B_SPLINE_SURFACE_WITH_KNOTS((3,3),(3,3),(-1.57079632679492,0.),(0.,1.5707963267949),
 .UNSPECIFIED.)
GEOMETRIC_REPRESENTATION_ITEM()
RATIONAL_B_SPLINE_SURFACE(((1.,0.707106781186548,1.),(0.707106781186574,
0.500000000000019,0.707106781186574),(1.,0.707106781186548,1.)))
REPRESENTATION_ITEM('')
SURFACE()
);
#951=(
BOUNDED_SURFACE()
B_SPLINE_SURFACE(2,2,((#1441,#1442,#1443),(#1444,#1445,#1446),(#1447,#1448,
#1449)),.UNSPECIFIED.,.F.,.F.,.F.)
B_SPLINE_SURFACE_WITH_KNOTS((3,3),(3,3),(-1.5707963267949,0.),(1.5707963267949,
3.14159265358979),.UNSPECIFIED.)
GEOMETRIC_REPRESENTATION_ITEM()
RATIONAL_B_SPLINE_SURFACE(((1.,0.707106781186548,1.),(0.707106781186554,
0.500000000000005,0.707106781186554),(1.,0.707106781186548,1.)))
REPRESENTATION_ITEM('')
SURFACE()
);
#952=(
BOUNDED_SURFACE()
B_SPLINE_SURFACE(2,2,((#1461,#1462,#1463),(#1464,#1465,#1466),(#1467,#1468,
#1469)),.UNSPECIFIED.,.F.,.F.,.F.)
B_SPLINE_SURFACE_WITH_KNOTS((3,3),(3,3),(-1.57079632679492,0.),(-3.14159265358979,
-1.5707963267949),.UNSPECIFIED.)
GEOMETRIC_REPRESENTATION_ITEM()
RATIONAL_B_SPLINE_SURFACE(((1.,0.707106781186548,1.),(0.707106781186574,
0.500000000000019,0.707106781186574),(1.,0.707106781186548,1.)))
REPRESENTATION_ITEM('')
SURFACE()
);
#953=ADVANCED_FACE('',(#285),#949,.F.);
#954=ADVANCED_FACE('',(#286),#269,.T.);
#955=ADVANCED_FACE('',(#287),#950,.F.);
#956=ADVANCED_FACE('',(#288),#270,.T.);
#957=ADVANCED_FACE('',(#289),#951,.F.);
#958=ADVANCED_FACE('',(#290),#271,.T.);
#959=ADVANCED_FACE('',(#291),#952,.F.);
#960=ADVANCED_FACE('',(#292),#272,.T.);
#961=ADVANCED_FACE('',(#293),#31,.T.);
#962=ADVANCED_FACE('',(#294),#273,.T.);
#963=ADVANCED_FACE('',(#295),#32,.T.);
#964=ADVANCED_FACE('',(#296),#274,.T.);
#965=ADVANCED_FACE('',(#297,#15,#16,#17,#18),#33,.T.);
#966=ADVANCED_FACE('',(#298),#34,.T.);
#967=ADVANCED_FACE('',(#299),#275,.T.);
#968=ADVANCED_FACE('',(#300),#35,.T.);
#969=ADVANCED_FACE('',(#301),#276,.T.);
#970=ADVANCED_FACE('',(#302),#277,.F.);
#971=ADVANCED_FACE('',(#303,#19),#36,.T.);
#972=ADVANCED_FACE('',(#304),#278,.F.);
#973=ADVANCED_FACE('',(#305,#20),#37,.T.);
#974=ADVANCED_FACE('',(#306),#279,.F.);
#975=ADVANCED_FACE('',(#307,#21),#38,.T.);
#976=ADVANCED_FACE('',(#308),#280,.F.);
#977=ADVANCED_FACE('',(#309,#22),#39,.T.);
#978=ADVANCED_FACE('',(#310),#281,.F.);
#979=ADVANCED_FACE('',(#311),#282,.F.);
#980=ADVANCED_FACE('',(#312),#283,.F.);
#981=ADVANCED_FACE('',(#313),#284,.F.);
#982=ADVANCED_FACE('',(#314),#40,.F.);
#983=ADVANCED_FACE('',(#315),#41,.F.);
#984=ADVANCED_FACE('',(#316),#42,.F.);
#985=ADVANCED_FACE('',(#317),#43,.F.);
#986=ADVANCED_FACE('',(#318),#44,.T.);
#987=ADVANCED_FACE('',(#319),#45,.T.);
#988=ADVANCED_FACE('',(#320),#46,.T.);
#989=ADVANCED_FACE('',(#321),#47,.T.);
#990=ADVANCED_FACE('',(#322),#48,.T.);
#991=ADVANCED_FACE('',(#323),#49,.T.);
#992=ADVANCED_FACE('',(#324),#50,.F.);
#993=ADVANCED_FACE('',(#325),#51,.F.);
#994=ADVANCED_FACE('',(#326),#52,.T.);
#995=ADVANCED_FACE('',(#327),#53,.T.);
#996=ADVANCED_FACE('',(#328),#54,.T.);
#997=ADVANCED_FACE('',(#329),#55,.T.);
#998=ADVANCED_FACE('',(#330),#56,.T.);
#999=ADVANCED_FACE('',(#331),#57,.T.);
#1000=ADVANCED_FACE('',(#332),#58,.F.);
#1001=ADVANCED_FACE('',(#333),#59,.F.);
#1002=ADVANCED_FACE('',(#334),#60,.T.);
#1003=ADVANCED_FACE('',(#335),#61,.T.);
#1004=ADVANCED_FACE('',(#336),#62,.T.);
#1005=ADVANCED_FACE('',(#337),#63,.T.);
#1006=ADVANCED_FACE('',(#338),#64,.T.);
#1007=ADVANCED_FACE('',(#339),#65,.T.);
#1008=ADVANCED_FACE('',(#340),#66,.T.);
#1009=ADVANCED_FACE('',(#341),#67,.T.);
#1010=ADVANCED_FACE('',(#342,#23,#24,#25,#26,#27,#28,#29,#30),#68,.F.);
#1011=CLOSED_SHELL('',(#953,#954,#955,#956,#957,#958,#959,#960,#961,#962,
#963,#964,#965,#966,#967,#968,#969,#970,#971,#972,#973,#974,#975,#976,#977,
#978,#979,#980,#981,#982,#983,#984,#985,#986,#987,#988,#989,#990,#991,#992,
#993,#994,#995,#996,#997,#998,#999,#1000,#1001,#1002,#1003,#1004,#1005,
#1006,#1007,#1008,#1009,#1010));
#1012=DERIVED_UNIT_ELEMENT(#1014,1.);
#1013=DERIVED_UNIT_ELEMENT(#1717,-3.);
#1014=(
MASS_UNIT()
NAMED_UNIT(*)
SI_UNIT(.KILO.,.GRAM.)
);
#1015=DERIVED_UNIT((#1012,#1013));
#1016=MEASURE_REPRESENTATION_ITEM('density measure',
POSITIVE_RATIO_MEASURE(7850.),#1015);
#1017=PROPERTY_DEFINITION_REPRESENTATION(#1022,#1019);
#1018=PROPERTY_DEFINITION_REPRESENTATION(#1023,#1020);
#1019=REPRESENTATION('material name',(#1021),#1714);
#1020=REPRESENTATION('density',(#1016),#1714);
#1021=DESCRIPTIVE_REPRESENTATION_ITEM('Steel','Steel');
#1022=PROPERTY_DEFINITION('material property','material name',#1724);
#1023=PROPERTY_DEFINITION('material property','density of part',#1724);
#1024=AXIS2_PLACEMENT_3D('',#1397,#1115,#1116);
#1025=AXIS2_PLACEMENT_3D('',#1409,#1117,#1118);
#1026=AXIS2_PLACEMENT_3D('',#1411,#1119,#1120);
#1027=AXIS2_PLACEMENT_3D('',#1413,#1121,#1122);
#1028=AXIS2_PLACEMENT_3D('',#1414,#1123,#1124);
#1029=AXIS2_PLACEMENT_3D('',#1415,#1125,#1126);
#1030=AXIS2_PLACEMENT_3D('',#1418,#1127,#1128);
#1031=AXIS2_PLACEMENT_3D('',#1432,#1131,#1132);
#1032=AXIS2_PLACEMENT_3D('',#1433,#1133,#1134);
#1033=AXIS2_PLACEMENT_3D('',#1434,#1135,#1136);
#1034=AXIS2_PLACEMENT_3D('',#1435,#1137,#1138);
#1035=AXIS2_PLACEMENT_3D('',#1438,#1139,#1140);
#1036=AXIS2_PLACEMENT_3D('',#1452,#1143,#1144);
#1037=AXIS2_PLACEMENT_3D('',#1453,#1145,#1146);
#1038=AXIS2_PLACEMENT_3D('',#1454,#1147,#1148);
#1039=AXIS2_PLACEMENT_3D('',#1455,#1149,#1150);
#1040=AXIS2_PLACEMENT_3D('',#1458,#1151,#1152);
#1041=AXIS2_PLACEMENT_3D('',#1472,#1155,#1156);
#1042=AXIS2_PLACEMENT_3D('',#1473,#1157,#1158);
#1043=AXIS2_PLACEMENT_3D('',#1474,#1159,#1160);
#1044=AXIS2_PLACEMENT_3D('',#1475,#1161,#1162);
#1045=AXIS2_PLACEMENT_3D('',#1478,#1165,#1166);
#1046=AXIS2_PLACEMENT_3D('',#1484,#1170,#1171);
#1047=AXIS2_PLACEMENT_3D('',#1487,#1173,#1174);
#1048=AXIS2_PLACEMENT_3D('',#1488,#1175,#1176);
#1049=AXIS2_PLACEMENT_3D('',#1492,#1179,#1180);
#1050=AXIS2_PLACEMENT_3D('',#1495,#1182,#1183);
#1051=AXIS2_PLACEMENT_3D('',#1496,#1184,#1185);
#1052=AXIS2_PLACEMENT_3D('',#1498,#1186,#1187);
#1053=AXIS2_PLACEMENT_3D('',#1500,#1188,#1189);
#1054=AXIS2_PLACEMENT_3D('',#1502,#1190,#1191);
#1055=AXIS2_PLACEMENT_3D('',#1504,#1192,#1193);
#1056=AXIS2_PLACEMENT_3D('',#1505,#1194,#1195);
#1057=AXIS2_PLACEMENT_3D('',#1509,#1198,#1199);
#1058=AXIS2_PLACEMENT_3D('',#1512,#1201,#1202);
#1059=AXIS2_PLACEMENT_3D('',#1513,#1203,#1204);
#1060=AXIS2_PLACEMENT_3D('',#1517,#1207,#1208);
#1061=AXIS2_PLACEMENT_3D('',#1518,#1209,#1210);
#1062=AXIS2_PLACEMENT_3D('',#1519,#1211,#1212);
#1063=AXIS2_PLACEMENT_3D('',#1522,#1214,#1215);
#1064=AXIS2_PLACEMENT_3D('',#1523,#1216,#1217);
#1065=AXIS2_PLACEMENT_3D('',#1525,#1218,#1219);
#1066=AXIS2_PLACEMENT_3D('',#1526,#1220,#1221);
#1067=AXIS2_PLACEMENT_3D('',#1529,#1223,#1224);
#1068=AXIS2_PLACEMENT_3D('',#1530,#1225,#1226);
#1069=AXIS2_PLACEMENT_3D('',#1532,#1227,#1228);
#1070=AXIS2_PLACEMENT_3D('',#1533,#1229,#1230);
#1071=AXIS2_PLACEMENT_3D('',#1536,#1232,#1233);
#1072=AXIS2_PLACEMENT_3D('',#1537,#1234,#1235);
#1073=AXIS2_PLACEMENT_3D('',#1539,#1236,#1237);
#1074=AXIS2_PLACEMENT_3D('',#1540,#1238,#1239);
#1075=AXIS2_PLACEMENT_3D('',#1543,#1241,#1242);
#1076=AXIS2_PLACEMENT_3D('',#1544,#1243,#1244);
#1077=AXIS2_PLACEMENT_3D('',#1546,#1245,#1246);
#1078=AXIS2_PLACEMENT_3D('',#1547,#1247,#1248);
#1079=AXIS2_PLACEMENT_3D('',#1549,#1249,#1250);
#1080=AXIS2_PLACEMENT_3D('',#1551,#1252,#1253);
#1081=AXIS2_PLACEMENT_3D('',#1553,#1254,#1255);
#1082=AXIS2_PLACEMENT_3D('',#1555,#1257,#1258);
#1083=AXIS2_PLACEMENT_3D('',#1557,#1259,#1260);
#1084=AXIS2_PLACEMENT_3D('',#1559,#1262,#1263);
#1085=AXIS2_PLACEMENT_3D('',#1561,#1264,#1265);
#1086=AXIS2_PLACEMENT_3D('',#1563,#1267,#1268);
#1087=AXIS2_PLACEMENT_3D('',#1572,#1273,#1274);
#1088=AXIS2_PLACEMENT_3D('',#1581,#1279,#1280);
#1089=AXIS2_PLACEMENT_3D('',#1590,#1285,#1286);
#1090=AXIS2_PLACEMENT_3D('',#1599,#1291,#1292);
#1091=AXIS2_PLACEMENT_3D('',#1605,#1296,#1297);
#1092=AXIS2_PLACEMENT_3D('',#1611,#1301,#1302);
#1093=AXIS2_PLACEMENT_3D('',#1617,#1306,#1307);
#1094=AXIS2_PLACEMENT_3D('',#1623,#1311,#1312);
#1095=AXIS2_PLACEMENT_3D('',#1633,#1318,#1319);
#1096=AXIS2_PLACEMENT_3D('',#1643,#1325,#1326);
#1097=AXIS2_PLACEMENT_3D('',#1652,#1331,#1332);
#1098=AXIS2_PLACEMENT_3D('',#1658,#1336,#1337);
#1099=AXIS2_PLACEMENT_3D('',#1664,#1341,#1342);
#1100=AXIS2_PLACEMENT_3D('',#1668,#1345,#1346);
#1101=AXIS2_PLACEMENT_3D('',#1672,#1349,#1350);
#1102=AXIS2_PLACEMENT_3D('',#1675,#1353,#1354);
#1103=AXIS2_PLACEMENT_3D('',#1679,#1357,#1358);
#1104=AXIS2_PLACEMENT_3D('',#1683,#1361,#1362);
#1105=AXIS2_PLACEMENT_3D('',#1689,#1366,#1367);
#1106=AXIS2_PLACEMENT_3D('',#1691,#1369,#1370);
#1107=AXIS2_PLACEMENT_3D('',#1695,#1373,#1374);
#1108=AXIS2_PLACEMENT_3D('',#1699,#1377,#1378);
#1109=AXIS2_PLACEMENT_3D('',#1701,#1380,#1381);
#1110=AXIS2_PLACEMENT_3D('',#1703,#1383,#1384);
#1111=AXIS2_PLACEMENT_3D('',#1705,#1386,#1387);
#1112=AXIS2_PLACEMENT_3D('',#1707,#1389,#1390);
#1113=AXIS2_PLACEMENT_3D('',#1709,#1392,#1393);
#1114=AXIS2_PLACEMENT_3D('',#1711,#1395,#1396);
#1115=DIRECTION('axis',(0.,0.,1.));
#1116=DIRECTION('refdir',(1.,0.,0.));
#1117=DIRECTION('center_axis',(1.,0.,0.));
#1118=DIRECTION('ref_axis',(0.,-1.,0.));
#1119=DIRECTION('center_axis',(0.,0.,1.));
#1120=DIRECTION('ref_axis',(0.707106781186548,-0.707106781186548,0.));
#1121=DIRECTION('center_axis',(0.,-1.,0.));
#1122=DIRECTION('ref_axis',(0.,0.,-1.));
#1123=DIRECTION('center_axis',(0.,0.,-1.));
#1124=DIRECTION('ref_axis',(0.707106781186548,-0.707106781186548,0.));
#1125=DIRECTION('center_axis',(0.,-1.,0.));
#1126=DIRECTION('ref_axis',(0.707106781186554,0.,-0.707106781186541));
#1127=DIRECTION('center_axis',(0.,-1.,0.));
#1128=DIRECTION('ref_axis',(0.,0.,-1.));
#1129=DIRECTION('',(0.,-1.,0.));
#1130=DIRECTION('',(0.,1.,0.));
#1131=DIRECTION('center_axis',(1.,0.,0.));
#1132=DIRECTION('ref_axis',(0.,0.,-1.));
#1133=DIRECTION('center_axis',(0.,0.,-1.));
#1134=DIRECTION('ref_axis',(0.707106781186548,0.707106781186548,0.));
#1135=DIRECTION('center_axis',(0.,0.,1.));
#1136=DIRECTION('ref_axis',(0.707106781186548,0.707106781186548,0.));
#1137=DIRECTION('center_axis',(1.,0.,0.));
#1138=DIRECTION('ref_axis',(0.,0.707106781186541,-0.707106781186554));
#1139=DIRECTION('center_axis',(1.,0.,0.));
#1140=DIRECTION('ref_axis',(0.,0.,-1.));
#1141=DIRECTION('',(1.,0.,0.));
#1142=DIRECTION('',(-1.,0.,0.));
#1143=DIRECTION('center_axis',(0.,1.,0.));
#1144=DIRECTION('ref_axis',(0.,0.,-1.));
#1145=DIRECTION('center_axis',(0.,0.,-1.));
#1146=DIRECTION('ref_axis',(-0.707106781186548,0.707106781186548,0.));
#1147=DIRECTION('center_axis',(0.,0.,1.));
#1148=DIRECTION('ref_axis',(-0.707106781186548,0.707106781186548,0.));
#1149=DIRECTION('center_axis',(0.,1.,0.));
#1150=DIRECTION('ref_axis',(-0.707106781186554,0.,-0.707106781186541));
#1151=DIRECTION('center_axis',(0.,1.,0.));
#1152=DIRECTION('ref_axis',(0.,0.,-1.));
#1153=DIRECTION('',(0.,1.,0.));
#1154=DIRECTION('',(0.,-1.,0.));
#1155=DIRECTION('center_axis',(-1.,0.,0.));
#1156=DIRECTION('ref_axis',(0.,0.,-1.));
#1157=DIRECTION('center_axis',(0.,0.,-1.));
#1158=DIRECTION('ref_axis',(-0.707106781186548,-0.707106781186548,0.));
#1159=DIRECTION('center_axis',(0.,0.,1.));
#1160=DIRECTION('ref_axis',(-0.707106781186548,-0.707106781186548,0.));
#1161=DIRECTION('center_axis',(-1.,0.,0.));
#1162=DIRECTION('ref_axis',(0.,-0.707106781186541,-0.707106781186554));
#1163=DIRECTION('',(1.,0.,0.));
#1164=DIRECTION('',(-1.,0.,0.));
#1165=DIRECTION('center_axis',(-1.,0.,0.));
#1166=DIRECTION('ref_axis',(0.,0.,1.));
#1167=DIRECTION('',(0.,0.,-1.));
#1168=DIRECTION('',(0.,1.,0.));
#1169=DIRECTION('',(0.,0.,1.));
#1170=DIRECTION('center_axis',(0.,0.,-1.));
#1171=DIRECTION('ref_axis',(-0.707106781186541,-0.707106781186554,0.));
#1172=DIRECTION('',(0.,0.,1.));
#1173=DIRECTION('center_axis',(0.,0.,-1.));
#1174=DIRECTION('ref_axis',(-0.707106781186541,-0.707106781186554,0.));
#1175=DIRECTION('center_axis',(0.,-1.,0.));
#1176=DIRECTION('ref_axis',(0.,0.,-1.));
#1177=DIRECTION('',(0.,0.,-1.));
#1178=DIRECTION('',(-1.,0.,0.));
#1179=DIRECTION('center_axis',(0.,0.,-1.));
#1180=DIRECTION('ref_axis',(0.707106781186541,-0.707106781186554,0.));
#1181=DIRECTION('',(0.,0.,1.));
#1182=DIRECTION('center_axis',(0.,0.,-1.));
#1183=DIRECTION('ref_axis',(0.707106781186541,-0.707106781186554,0.));
#1184=DIRECTION('center_axis',(0.,0.,-1.));
#1185=DIRECTION('ref_axis',(-1.,0.,0.));
#1186=DIRECTION('center_axis',(0.,0.,1.));
#1187=DIRECTION('ref_axis',(1.,0.,0.));
#1188=DIRECTION('center_axis',(0.,0.,1.));
#1189=DIRECTION('ref_axis',(1.,0.,0.));
#1190=DIRECTION('center_axis',(0.,0.,1.));
#1191=DIRECTION('ref_axis',(1.,0.,0.));
#1192=DIRECTION('center_axis',(0.,0.,1.));
#1193=DIRECTION('ref_axis',(1.,0.,0.));
#1194=DIRECTION('center_axis',(1.,0.,0.));
#1195=DIRECTION('ref_axis',(0.,0.,-1.));
#1196=DIRECTION('',(0.,0.,-1.));
#1197=DIRECTION('',(0.,-1.,0.));
#1198=DIRECTION('center_axis',(0.,0.,-1.));
#1199=DIRECTION('ref_axis',(0.707106781186541,0.707106781186554,0.));
#1200=DIRECTION('',(0.,0.,1.));
#1201=DIRECTION('center_axis',(0.,0.,-1.));
#1202=DIRECTION('ref_axis',(0.707106781186541,0.707106781186554,0.));
#1203=DIRECTION('center_axis',(0.,1.,0.));
#1204=DIRECTION('ref_axis',(0.,0.,1.));
#1205=DIRECTION('',(0.,0.,-1.));
#1206=DIRECTION('',(-1.,0.,0.));
#1207=DIRECTION('center_axis',(0.,0.,-1.));
#1208=DIRECTION('ref_axis',(-0.707106781186541,0.707106781186554,0.));
#1209=DIRECTION('center_axis',(0.,0.,-1.));
#1210=DIRECTION('ref_axis',(-0.707106781186541,0.707106781186554,0.));
#1211=DIRECTION('center_axis',(0.,0.,1.));
#1212=DIRECTION('ref_axis',(1.,0.,0.));
#1213=DIRECTION('',(0.,0.,1.));
#1214=DIRECTION('center_axis',(0.,0.,1.));
#1215=DIRECTION('ref_axis',(1.,0.,0.));
#1216=DIRECTION('center_axis',(0.,0.,-1.));
#1217=DIRECTION('ref_axis',(1.,0.,0.));
#1218=DIRECTION('center_axis',(0.,0.,-1.));
#1219=DIRECTION('ref_axis',(-1.,0.,0.));
#1220=DIRECTION('center_axis',(0.,0.,1.));
#1221=DIRECTION('ref_axis',(1.,0.,0.));
#1222=DIRECTION('',(0.,0.,1.));
#1223=DIRECTION('center_axis',(0.,0.,1.));
#1224=DIRECTION('ref_axis',(1.,0.,0.));
#1225=DIRECTION('center_axis',(0.,0.,-1.));
#1226=DIRECTION('ref_axis',(1.,0.,0.));
#1227=DIRECTION('center_axis',(0.,0.,-1.));
#1228=DIRECTION('ref_axis',(-1.,0.,0.));
#1229=DIRECTION('center_axis',(0.,0.,1.));
#1230=DIRECTION('ref_axis',(1.,0.,0.));
#1231=DIRECTION('',(0.,0.,1.));
#1232=DIRECTION('center_axis',(0.,0.,1.));
#1233=DIRECTION('ref_axis',(1.,0.,0.));
#1234=DIRECTION('center_axis',(0.,0.,-1.));
#1235=DIRECTION('ref_axis',(1.,0.,0.));
#1236=DIRECTION('center_axis',(0.,0.,-1.));
#1237=DIRECTION('ref_axis',(-1.,0.,0.));
#1238=DIRECTION('center_axis',(0.,0.,1.));
#1239=DIRECTION('ref_axis',(1.,0.,0.));
#1240=DIRECTION('',(0.,0.,1.));
#1241=DIRECTION('center_axis',(0.,0.,1.));
#1242=DIRECTION('ref_axis',(1.,0.,0.));
#1243=DIRECTION('center_axis',(0.,0.,-1.));
#1244=DIRECTION('ref_axis',(1.,0.,0.));
#1245=DIRECTION('center_axis',(0.,0.,-1.));
#1246=DIRECTION('ref_axis',(-1.,0.,0.));
#1247=DIRECTION('center_axis',(0.,0.,-1.));
#1248=DIRECTION('ref_axis',(-1.,0.,0.));
#1249=DIRECTION('center_axis',(0.,0.,-1.));
#1250=DIRECTION('ref_axis',(-1.,0.,0.));
#1251=DIRECTION('',(0.,0.,-1.));
#1252=DIRECTION('center_axis',(0.,0.,-1.));
#1253=DIRECTION('ref_axis',(-1.,0.,0.));
#1254=DIRECTION('center_axis',(0.,0.,-1.));
#1255=DIRECTION('ref_axis',(-1.,0.,0.));
#1256=DIRECTION('',(0.,0.,-1.));
#1257=DIRECTION('center_axis',(0.,0.,-1.));
#1258=DIRECTION('ref_axis',(-1.,0.,0.));
#1259=DIRECTION('center_axis',(0.,0.,-1.));
#1260=DIRECTION('ref_axis',(-1.,0.,0.));
#1261=DIRECTION('',(0.,0.,-1.));
#1262=DIRECTION('center_axis',(0.,0.,-1.));
#1263=DIRECTION('ref_axis',(-1.,0.,0.));
#1264=DIRECTION('center_axis',(0.,0.,-1.));
#1265=DIRECTION('ref_axis',(-1.,0.,0.));
#1266=DIRECTION('',(0.,0.,-1.));
#1267=DIRECTION('center_axis',(-1.,0.,0.));
#1268=DIRECTION('ref_axis',(0.,0.,1.));
#1269=DIRECTION('',(0.,1.,0.));
#1270=DIRECTION('',(0.,0.,1.));
#1271=DIRECTION('',(0.,-1.,0.));
#1272=DIRECTION('',(0.,0.,-1.));
#1273=DIRECTION('center_axis',(-1.,0.,0.));
#1274=DIRECTION('ref_axis',(0.,0.,1.));
#1275=DIRECTION('',(0.,1.,0.));
#1276=DIRECTION('',(0.,0.,1.));
#1277=DIRECTION('',(0.,-1.,0.));
#1278=DIRECTION('',(0.,0.,-1.));
#1279=DIRECTION('center_axis',(1.,0.,0.));
#1280=DIRECTION('ref_axis',(0.,0.,-1.));
#1281=DIRECTION('',(0.,-1.,0.));
#1282=DIRECTION('',(0.,0.,1.));
#1283=DIRECTION('',(0.,1.,0.));
#1284=DIRECTION('',(0.,0.,-1.));
#1285=DIRECTION('center_axis',(1.,0.,0.));
#1286=DIRECTION('ref_axis',(0.,0.,-1.));
#1287=DIRECTION('',(0.,-1.,0.));
#1288=DIRECTION('',(0.,0.,1.));
#1289=DIRECTION('',(0.,1.,0.));
#1290=DIRECTION('',(0.,0.,-1.));
#1291=DIRECTION('center_axis',(0.,-1.,0.));
#1292=DIRECTION('ref_axis',(1.,0.,0.));
#1293=DIRECTION('',(1.,0.,0.));
#1294=DIRECTION('',(0.,0.,1.));
#1295=DIRECTION('',(-1.,0.,0.));
#1296=DIRECTION('center_axis',(0.,-1.,0.));
#1297=DIRECTION('ref_axis',(1.,0.,0.));
#1298=DIRECTION('',(-1.,0.,0.));
#1299=DIRECTION('',(0.,0.,1.));
#1300=DIRECTION('',(1.,0.,0.));
#1301=DIRECTION('center_axis',(0.,1.,0.));
#1302=DIRECTION('ref_axis',(-1.,0.,0.));
#1303=DIRECTION('',(-1.,0.,0.));
#1304=DIRECTION('',(0.,0.,1.));
#1305=DIRECTION('',(1.,0.,0.));
#1306=DIRECTION('center_axis',(0.,1.,0.));
#1307=DIRECTION('ref_axis',(-1.,0.,0.));
#1308=DIRECTION('',(1.,0.,0.));
#1309=DIRECTION('',(0.,0.,1.));
#1310=DIRECTION('',(-1.,0.,0.));
#1311=DIRECTION('center_axis',(0.,0.,1.));
#1312=DIRECTION('ref_axis',(1.,0.,0.));
#1313=DIRECTION('',(0.,-1.,0.));
#1314=DIRECTION('',(-1.,0.,0.));
#1315=DIRECTION('',(0.,-1.,0.));
#1316=DIRECTION('',(1.,0.,0.));
#1317=DIRECTION('',(0.,1.,0.));
#1318=DIRECTION('center_axis',(0.,0.,1.));
#1319=DIRECTION('ref_axis',(1.,0.,0.));
#1320=DIRECTION('',(0.,-1.,0.));
#1321=DIRECTION('',(1.,0.,0.));
#1322=DIRECTION('',(0.,1.,0.));
#1323=DIRECTION('',(-1.,0.,0.));
#1324=DIRECTION('',(0.,1.,0.));
#1325=DIRECTION('center_axis',(1.,0.,0.));
#1326=DIRECTION('ref_axis',(0.,0.,-1.));
#1327=DIRECTION('',(0.,-1.,0.));
#1328=DIRECTION('',(0.,0.,1.));
#1329=DIRECTION('',(0.,1.,0.));
#1330=DIRECTION('',(0.,0.,-1.));
#1331=DIRECTION('center_axis',(-1.,0.,0.));
#1332=DIRECTION('ref_axis',(0.,0.,1.));
#1333=DIRECTION('',(0.,0.,1.));
#1334=DIRECTION('',(0.,-1.,0.));
#1335=DIRECTION('',(0.,0.,-1.));
#1336=DIRECTION('center_axis',(0.,-1.,0.));
#1337=DIRECTION('ref_axis',(1.,0.,0.));
#1338=DIRECTION('',(-1.,0.,0.));
#1339=DIRECTION('',(0.,0.,1.));
#1340=DIRECTION('',(1.,0.,0.));
#1341=DIRECTION('center_axis',(0.,-1.,0.));
#1342=DIRECTION('ref_axis',(1.,0.,0.));
#1343=DIRECTION('',(0.,0.,1.));
#1344=DIRECTION('',(-1.,0.,0.));
#1345=DIRECTION('center_axis',(0.,0.,1.));
#1346=DIRECTION('ref_axis',(1.,0.,0.));
#1347=DIRECTION('',(0.,1.,0.));
#1348=DIRECTION('',(-1.,0.,0.));
#1349=DIRECTION('center_axis',(0.,0.,1.));
#1350=DIRECTION('ref_axis',(1.,0.,0.));
#1351=DIRECTION('',(-1.,0.,0.));
#1352=DIRECTION('',(1.,0.,0.));
#1353=DIRECTION('center_axis',(0.,1.,0.));
#1354=DIRECTION('ref_axis',(-1.,0.,0.));
#1355=DIRECTION('',(0.,0.,-1.));
#1356=DIRECTION('',(1.,0.,0.));
#1357=DIRECTION('center_axis',(0.,1.,0.));
#1358=DIRECTION('ref_axis',(-1.,0.,0.));
#1359=DIRECTION('',(1.,0.,0.));
#1360=DIRECTION('',(0.,0.,1.));
#1361=DIRECTION('center_axis',(1.,0.,0.));
#1362=DIRECTION('ref_axis',(0.,0.,-1.));
#1363=DIRECTION('',(0.,0.,1.));
#1364=DIRECTION('',(0.,1.,0.));
#1365=DIRECTION('',(0.,0.,-1.));
#1366=DIRECTION('center_axis',(-1.,0.,0.));
#1367=DIRECTION('ref_axis',(0.,0.,1.));
#1368=DIRECTION('',(0.,-1.,0.));
#1369=DIRECTION('center_axis',(0.,1.,0.));
#1370=DIRECTION('ref_axis',(-1.,0.,0.));
#1371=DIRECTION('',(0.,0.,1.));
#1372=DIRECTION('',(1.,0.,0.));
#1373=DIRECTION('center_axis',(0.,-1.,0.));
#1374=DIRECTION('ref_axis',(1.,0.,0.));
#1375=DIRECTION('',(-1.,0.,0.));
#1376=DIRECTION('',(0.,0.,1.));
#1377=DIRECTION('center_axis',(1.,0.,0.));
#1378=DIRECTION('ref_axis',(0.,1.,0.));
#1379=DIRECTION('',(0.,-1.,0.));
#1380=DIRECTION('center_axis',(-1.,0.,0.));
#1381=DIRECTION('ref_axis',(0.,-1.,0.));
#1382=DIRECTION('',(0.,1.,0.));
#1383=DIRECTION('center_axis',(0.,-1.,0.));
#1384=DIRECTION('ref_axis',(1.,0.,0.));
#1385=DIRECTION('',(-1.,0.,0.));
#1386=DIRECTION('center_axis',(1.,0.,0.));
#1387=DIRECTION('ref_axis',(0.,1.,0.));
#1388=DIRECTION('',(0.,-1.,0.));
#1389=DIRECTION('center_axis',(-1.,0.,0.));
#1390=DIRECTION('ref_axis',(0.,-1.,0.));
#1391=DIRECTION('',(0.,1.,0.));
#1392=DIRECTION('center_axis',(0.,1.,0.));
#1393=DIRECTION('ref_axis',(-1.,0.,0.));
#1394=DIRECTION('',(1.,0.,0.));
#1395=DIRECTION('center_axis',(0.,0.,-1.));
#1396=DIRECTION('ref_axis',(1.,0.,0.));
#1397=CARTESIAN_POINT('',(0.,0.,0.));
#1398=CARTESIAN_POINT('Ctrl Pts',(64.4,-44.9,-31.));
#1399=CARTESIAN_POINT('Ctrl Pts',(64.9,-44.9,-31.));
#1400=CARTESIAN_POINT('Ctrl Pts',(64.9,-44.4,-31.));
#1401=CARTESIAN_POINT('Ctrl Pts',(64.4,-45.4,-31.));
#1402=CARTESIAN_POINT('Ctrl Pts',(65.4,-45.4,-31.));
#1403=CARTESIAN_POINT('Ctrl Pts',(65.4,-44.4,-31.));
#1404=CARTESIAN_POINT('Ctrl Pts',(64.4,-45.4,-30.5));
#1405=CARTESIAN_POINT('Ctrl Pts',(65.4,-45.4,-30.5));
#1406=CARTESIAN_POINT('Ctrl Pts',(65.4,-44.4,-30.5));
#1407=CARTESIAN_POINT('',(64.4,-45.4,-30.5));
#1408=CARTESIAN_POINT('',(64.4,-44.9,-31.));
#1409=CARTESIAN_POINT('Origin',(64.4,-44.9,-30.5));
#1410=CARTESIAN_POINT('',(64.9,-44.4,-31.));
#1411=CARTESIAN_POINT('Origin',(64.4,-44.4,-31.));
#1412=CARTESIAN_POINT('',(65.4,-44.4,-30.5));
#1413=CARTESIAN_POINT('Origin',(64.9,-44.4,-30.5));
#1414=CARTESIAN_POINT('Origin',(64.4,-44.4,-30.5));
#1415=CARTESIAN_POINT('Origin',(64.9,22.5,-30.5));
#1416=CARTESIAN_POINT('',(64.9,44.4,-31.));
#1417=CARTESIAN_POINT('',(65.4,44.4,-30.5));
#1418=CARTESIAN_POINT('Origin',(64.9,44.4,-30.5));
#1419=CARTESIAN_POINT('',(65.4,22.5,-30.5));
#1420=CARTESIAN_POINT('',(64.9,22.5,-31.));
#1421=CARTESIAN_POINT('Ctrl Pts',(64.9,44.4,-31.));
#1422=CARTESIAN_POINT('Ctrl Pts',(64.9,44.9,-31.));
#1423=CARTESIAN_POINT('Ctrl Pts',(64.4,44.9,-31.));
#1424=CARTESIAN_POINT('Ctrl Pts',(65.4,44.4,-31.));
#1425=CARTESIAN_POINT('Ctrl Pts',(65.4,45.4,-31.));
#1426=CARTESIAN_POINT('Ctrl Pts',(64.4,45.4,-31.));
#1427=CARTESIAN_POINT('Ctrl Pts',(65.4,44.4,-30.5));
#1428=CARTESIAN_POINT('Ctrl Pts',(65.4,45.4,-30.5));
#1429=CARTESIAN_POINT('Ctrl Pts',(64.4,45.4,-30.5));
#1430=CARTESIAN_POINT('',(64.4,44.9,-31.));
#1431=CARTESIAN_POINT('',(64.4,45.4,-30.5));
#1432=CARTESIAN_POINT('Origin',(64.4,44.9,-30.5));
#1433=CARTESIAN_POINT('Origin',(64.4,44.4,-30.5));
#1434=CARTESIAN_POINT('Origin',(64.4,44.4,-31.));
#1435=CARTESIAN_POINT('Origin',(-32.5,44.9,-30.5));
#1436=CARTESIAN_POINT('',(-64.4,44.9,-31.));
#1437=CARTESIAN_POINT('',(-64.4,45.4,-30.5));
#1438=CARTESIAN_POINT('Origin',(-64.4,44.9,-30.5));
#1439=CARTESIAN_POINT('',(-32.5,45.4,-30.5));
#1440=CARTESIAN_POINT('',(-32.5,44.9,-31.));
#1441=CARTESIAN_POINT('Ctrl Pts',(-64.4,44.9,-31.));
#1442=CARTESIAN_POINT('Ctrl Pts',(-64.9,44.9,-31.));
#1443=CARTESIAN_POINT('Ctrl Pts',(-64.9,44.4,-31.));
#1444=CARTESIAN_POINT('Ctrl Pts',(-64.4,45.4,-31.));
#1445=CARTESIAN_POINT('Ctrl Pts',(-65.4,45.4,-31.));
#1446=CARTESIAN_POINT('Ctrl Pts',(-65.4,44.4,-31.));
#1447=CARTESIAN_POINT('Ctrl Pts',(-64.4,45.4,-30.5));
#1448=CARTESIAN_POINT('Ctrl Pts',(-65.4,45.4,-30.5));
#1449=CARTESIAN_POINT('Ctrl Pts',(-65.4,44.4,-30.5));
#1450=CARTESIAN_POINT('',(-64.9,44.4,-31.));
#1451=CARTESIAN_POINT('',(-65.4,44.4,-30.5));
#1452=CARTESIAN_POINT('Origin',(-64.9,44.4,-30.5));
#1453=CARTESIAN_POINT('Origin',(-64.4,44.4,-30.5));
#1454=CARTESIAN_POINT('Origin',(-64.4,44.4,-31.));
#1455=CARTESIAN_POINT('Origin',(-64.9,-22.5,-30.5));
#1456=CARTESIAN_POINT('',(-64.9,-44.4,-31.));
#1457=CARTESIAN_POINT('',(-65.4,-44.4,-30.5));
#1458=CARTESIAN_POINT('Origin',(-64.9,-44.4,-30.5));
#1459=CARTESIAN_POINT('',(-65.4,-22.5,-30.5));
#1460=CARTESIAN_POINT('',(-64.9,-22.5,-31.));
#1461=CARTESIAN_POINT('Ctrl Pts',(-64.9,-44.4,-31.));
#1462=CARTESIAN_POINT('Ctrl Pts',(-64.9,-44.9,-31.));
#1463=CARTESIAN_POINT('Ctrl Pts',(-64.4,-44.9,-31.));
#1464=CARTESIAN_POINT('Ctrl Pts',(-65.4,-44.4,-31.));
#1465=CARTESIAN_POINT('Ctrl Pts',(-65.4,-45.4,-31.));
#1466=CARTESIAN_POINT('Ctrl Pts',(-64.4,-45.4,-31.));
#1467=CARTESIAN_POINT('Ctrl Pts',(-65.4,-44.4,-30.5));
#1468=CARTESIAN_POINT('Ctrl Pts',(-65.4,-45.4,-30.5));
#1469=CARTESIAN_POINT('Ctrl Pts',(-64.4,-45.4,-30.5));
#1470=CARTESIAN_POINT('',(-64.4,-44.9,-31.));
#1471=CARTESIAN_POINT('',(-64.4,-45.4,-30.5));
#1472=CARTESIAN_POINT('Origin',(-64.4,-44.9,-30.5));
#1473=CARTESIAN_POINT('Origin',(-64.4,-44.4,-30.5));
#1474=CARTESIAN_POINT('Origin',(-64.4,-44.4,-31.));
#1475=CARTESIAN_POINT('Origin',(32.5,-44.9,-30.5));
#1476=CARTESIAN_POINT('',(32.5,-44.9,-31.));
#1477=CARTESIAN_POINT('',(32.5,-45.4,-30.5));
#1478=CARTESIAN_POINT('Origin',(-65.4,-45.,-29.));
#1479=CARTESIAN_POINT('',(-65.4,-44.4,-29.));
#1480=CARTESIAN_POINT('',(-65.4,-44.4,-29.));
#1481=CARTESIAN_POINT('',(-65.4,44.4,-29.));
#1482=CARTESIAN_POINT('',(-65.4,-45.,-29.));
#1483=CARTESIAN_POINT('',(-65.4,44.4,-29.));
#1484=CARTESIAN_POINT('Origin',(-64.4,-44.4,-29.));
#1485=CARTESIAN_POINT('',(-64.4,-45.4,-29.));
#1486=CARTESIAN_POINT('',(-64.4,-45.4,-29.));
#1487=CARTESIAN_POINT('Origin',(-64.4,-44.4,-29.));
#1488=CARTESIAN_POINT('Origin',(65.,-45.4,-29.));
#1489=CARTESIAN_POINT('',(64.4,-45.4,-29.));
#1490=CARTESIAN_POINT('',(64.4,-45.4,-29.));
#1491=CARTESIAN_POINT('',(65.,-45.4,-29.));
#1492=CARTESIAN_POINT('Origin',(64.4,-44.4,-29.));
#1493=CARTESIAN_POINT('',(65.4,-44.4,-29.));
#1494=CARTESIAN_POINT('',(65.4,-44.4,-29.));
#1495=CARTESIAN_POINT('Origin',(64.4,-44.4,-29.));
#1496=CARTESIAN_POINT('Origin',(0.,0.,-31.));
#1497=CARTESIAN_POINT('',(33.0859199513625,-40.9,-31.));
#1498=CARTESIAN_POINT('Origin',(36.0859199513625,-40.9,-31.));
#1499=CARTESIAN_POINT('',(33.0859199513625,40.9,-31.));
#1500=CARTESIAN_POINT('Origin',(36.0859199513625,40.9,-31.));
#1501=CARTESIAN_POINT('',(-39.0859199513625,-40.9,-31.));
#1502=CARTESIAN_POINT('Origin',(-36.0859199513625,-40.9,-31.));
#1503=CARTESIAN_POINT('',(-39.0859199513625,40.9,-31.));
#1504=CARTESIAN_POINT('Origin',(-36.0859199513625,40.9,-31.));
#1505=CARTESIAN_POINT('Origin',(65.4,45.,-29.));
#1506=CARTESIAN_POINT('',(65.4,44.4,-29.));
#1507=CARTESIAN_POINT('',(65.4,44.4,-29.));
#1508=CARTESIAN_POINT('',(65.4,45.,-29.));
#1509=CARTESIAN_POINT('Origin',(64.4,44.4,-29.));
#1510=CARTESIAN_POINT('',(64.4,45.4,-29.));
#1511=CARTESIAN_POINT('',(64.4,45.4,-29.));
#1512=CARTESIAN_POINT('Origin',(64.4,44.4,-29.));
#1513=CARTESIAN_POINT('Origin',(-65.,45.4,-29.));
#1514=CARTESIAN_POINT('',(-64.4,45.4,-29.));
#1515=CARTESIAN_POINT('',(-64.4,45.4,-29.));
#1516=CARTESIAN_POINT('',(-65.,45.4,-29.));
#1517=CARTESIAN_POINT('Origin',(-64.4,44.4,-29.));
#1518=CARTESIAN_POINT('Origin',(-64.4,44.4,-29.));
#1519=CARTESIAN_POINT('Origin',(36.0859199513625,-40.9,-30.6));
#1520=CARTESIAN_POINT('',(33.0859199513625,-40.9,-30.));
#1521=CARTESIAN_POINT('',(33.0859199513625,-40.9,-30.6));
#1522=CARTESIAN_POINT('Origin',(36.0859199513625,-40.9,-30.));
#1523=CARTESIAN_POINT('Origin',(36.0859199513625,-40.9,-30.));
#1524=CARTESIAN_POINT('',(37.5859199513625,-40.9,-30.));
#1525=CARTESIAN_POINT('Origin',(36.0859199513625,-40.9,-30.));
#1526=CARTESIAN_POINT('Origin',(36.0859199513625,40.9,-30.6));
#1527=CARTESIAN_POINT('',(33.0859199513625,40.9,-30.));
#1528=CARTESIAN_POINT('',(33.0859199513625,40.9,-30.6));
#1529=CARTESIAN_POINT('Origin',(36.0859199513625,40.9,-30.));
#1530=CARTESIAN_POINT('Origin',(36.0859199513625,40.9,-30.));
#1531=CARTESIAN_POINT('',(37.5859199513625,40.9,-30.));
#1532=CARTESIAN_POINT('Origin',(36.0859199513625,40.9,-30.));
#1533=CARTESIAN_POINT('Origin',(-36.0859199513625,-40.9,-30.6));
#1534=CARTESIAN_POINT('',(-39.0859199513625,-40.9,-30.));
#1535=CARTESIAN_POINT('',(-39.0859199513625,-40.9,-30.6));
#1536=CARTESIAN_POINT('Origin',(-36.0859199513625,-40.9,-30.));
#1537=CARTESIAN_POINT('Origin',(-36.0859199513625,-40.9,-30.));
#1538=CARTESIAN_POINT('',(-34.5859199513625,-40.9,-30.));
#1539=CARTESIAN_POINT('Origin',(-36.0859199513625,-40.9,-30.));
#1540=CARTESIAN_POINT('Origin',(-36.0859199513625,40.9,-30.6));
#1541=CARTESIAN_POINT('',(-39.0859199513625,40.9,-30.));
#1542=CARTESIAN_POINT('',(-39.0859199513625,40.9,-30.6));
#1543=CARTESIAN_POINT('Origin',(-36.0859199513625,40.9,-30.));
#1544=CARTESIAN_POINT('Origin',(-36.0859199513625,40.9,-30.));
#1545=CARTESIAN_POINT('',(-34.5859199513625,40.9,-30.));
#1546=CARTESIAN_POINT('Origin',(-36.0859199513625,40.9,-30.));
#1547=CARTESIAN_POINT('Origin',(36.0859199513625,40.9,-27.4));
#1548=CARTESIAN_POINT('',(37.5859199513625,40.9,-29.));
#1549=CARTESIAN_POINT('Origin',(36.0859199513625,40.9,-29.));
#1550=CARTESIAN_POINT('',(37.5859199513625,40.9,-27.4));
#1551=CARTESIAN_POINT('Origin',(36.0859199513625,-40.9,-27.4));
#1552=CARTESIAN_POINT('',(37.5859199513625,-40.9,-29.));
#1553=CARTESIAN_POINT('Origin',(36.0859199513625,-40.9,-29.));
#1554=CARTESIAN_POINT('',(37.5859199513625,-40.9,-27.4));
#1555=CARTESIAN_POINT('Origin',(-36.0859199513625,40.9,-27.4));
#1556=CARTESIAN_POINT('',(-34.5859199513625,40.9,-29.));
#1557=CARTESIAN_POINT('Origin',(-36.0859199513625,40.9,-29.));
#1558=CARTESIAN_POINT('',(-34.5859199513625,40.9,-27.4));
#1559=CARTESIAN_POINT('Origin',(-36.0859199513625,-40.9,-27.4));
#1560=CARTESIAN_POINT('',(-34.5859199513625,-40.9,-29.));
#1561=CARTESIAN_POINT('Origin',(-36.0859199513625,-40.9,-29.));
#1562=CARTESIAN_POINT('',(-34.5859199513625,-40.9,-27.4));
#1563=CARTESIAN_POINT('Origin',(-40.1859199513625,42.4,-27.4));
#1564=CARTESIAN_POINT('',(-40.1859199513625,42.4,-27.4));
#1565=CARTESIAN_POINT('',(-40.1859199513625,43.2,-27.4));
#1566=CARTESIAN_POINT('',(-40.1859199513625,21.2,-27.4));
#1567=CARTESIAN_POINT('',(-40.1859199513625,42.4,-29.));
#1568=CARTESIAN_POINT('',(-40.1859199513625,42.4,-28.2));
#1569=CARTESIAN_POINT('',(-40.1859199513625,43.2,-29.));
#1570=CARTESIAN_POINT('',(-40.1859199513625,38.4,-29.));
#1571=CARTESIAN_POINT('',(-40.1859199513625,43.2,-28.2));
#1572=CARTESIAN_POINT('Origin',(31.9859199513625,42.4,-27.4));
#1573=CARTESIAN_POINT('',(31.9859199513625,42.4,-27.4));
#1574=CARTESIAN_POINT('',(31.9859199513625,43.2,-27.4));
#1575=CARTESIAN_POINT('',(31.9859199513625,21.2,-27.4));
#1576=CARTESIAN_POINT('',(31.9859199513625,42.4,-29.));
#1577=CARTESIAN_POINT('',(31.9859199513625,42.4,-28.2));
#1578=CARTESIAN_POINT('',(31.9859199513625,43.2,-29.));
#1579=CARTESIAN_POINT('',(31.9859199513625,43.4,-29.));
#1580=CARTESIAN_POINT('',(31.9859199513625,43.2,-28.2));
#1581=CARTESIAN_POINT('Origin',(40.1859199513625,43.2,-27.4));
#1582=CARTESIAN_POINT('',(40.1859199513625,43.2,-27.4));
#1583=CARTESIAN_POINT('',(40.1859199513625,42.4,-27.4));
#1584=CARTESIAN_POINT('',(40.1859199513625,21.6,-27.4));
#1585=CARTESIAN_POINT('',(40.1859199513625,43.2,-29.));
#1586=CARTESIAN_POINT('',(40.1859199513625,43.2,-28.2));
#1587=CARTESIAN_POINT('',(40.1859199513625,42.4,-29.));
#1588=CARTESIAN_POINT('',(40.1859199513625,38.4,-29.));
#1589=CARTESIAN_POINT('',(40.1859199513625,42.4,-28.2));
#1590=CARTESIAN_POINT('Origin',(-31.9859199513625,43.2,-27.4));
#1591=CARTESIAN_POINT('',(-31.9859199513625,43.2,-27.4));
#1592=CARTESIAN_POINT('',(-31.9859199513625,42.4,-27.4));
#1593=CARTESIAN_POINT('',(-31.9859199513625,21.6,-27.4));
#1594=CARTESIAN_POINT('',(-31.9859199513625,43.2,-29.));
#1595=CARTESIAN_POINT('',(-31.9859199513625,43.2,-28.2));
#1596=CARTESIAN_POINT('',(-31.9859199513625,42.4,-29.));
#1597=CARTESIAN_POINT('',(-31.9859199513625,43.4,-29.));
#1598=CARTESIAN_POINT('',(-31.9859199513625,42.4,-28.2));
#1599=CARTESIAN_POINT('Origin',(-62.4,42.4,-29.));
#1600=CARTESIAN_POINT('',(-62.4,42.4,-27.4));
#1601=CARTESIAN_POINT('',(62.4,42.4,-27.4));
#1602=CARTESIAN_POINT('',(-62.4,42.4,-29.));
#1603=CARTESIAN_POINT('',(-62.4,42.4,-29.));
#1604=CARTESIAN_POINT('',(-31.2,42.4,-29.));
#1605=CARTESIAN_POINT('Origin',(-62.4,42.4,-29.));
#1606=CARTESIAN_POINT('',(62.4,42.4,-29.));
#1607=CARTESIAN_POINT('',(-31.2,42.4,-29.));
#1608=CARTESIAN_POINT('',(62.4,42.4,-27.4));
#1609=CARTESIAN_POINT('',(62.4,42.4,-29.));
#1610=CARTESIAN_POINT('',(62.4,42.4,-27.4));
#1611=CARTESIAN_POINT('Origin',(63.2,43.2,-29.));
#1612=CARTESIAN_POINT('',(63.2,43.2,-27.4));
#1613=CARTESIAN_POINT('',(63.2,43.2,-27.4));
#1614=CARTESIAN_POINT('',(63.2,43.2,-29.));
#1615=CARTESIAN_POINT('',(63.2,43.2,-29.));
#1616=CARTESIAN_POINT('',(31.6,43.2,-29.));
#1617=CARTESIAN_POINT('Origin',(63.2,43.2,-29.));
#1618=CARTESIAN_POINT('',(-63.2,43.2,-29.));
#1619=CARTESIAN_POINT('',(31.6,43.2,-29.));
#1620=CARTESIAN_POINT('',(-63.2,43.2,-27.4));
#1621=CARTESIAN_POINT('',(-63.2,43.2,-29.));
#1622=CARTESIAN_POINT('',(63.2,43.2,-27.4));
#1623=CARTESIAN_POINT('Origin',(0.,0.,-27.4));
#1624=CARTESIAN_POINT('',(62.4,-42.4,-27.4));
#1625=CARTESIAN_POINT('',(62.4,-42.4,-27.4));
#1626=CARTESIAN_POINT('',(40.2859199513625,-42.4,-27.4));
#1627=CARTESIAN_POINT('',(-62.4,-42.4,-27.4));
#1628=CARTESIAN_POINT('',(40.2859199513625,-43.2,-27.4));
#1629=CARTESIAN_POINT('',(40.2859199513625,-21.2,-27.4));
#1630=CARTESIAN_POINT('',(63.2,-43.2,-27.4));
#1631=CARTESIAN_POINT('',(-63.2,-43.2,-27.4));
#1632=CARTESIAN_POINT('',(63.2,-43.2,-27.4));
#1633=CARTESIAN_POINT('Origin',(0.,0.,-27.4));
#1634=CARTESIAN_POINT('',(-63.2,-43.2,-27.4));
#1635=CARTESIAN_POINT('',(-63.2,43.2,-27.4));
#1636=CARTESIAN_POINT('',(-40.1859199513625,-43.2,-27.4));
#1637=CARTESIAN_POINT('',(-63.2,-43.2,-27.4));
#1638=CARTESIAN_POINT('',(-40.1859199513625,-42.4,-27.4));
#1639=CARTESIAN_POINT('',(-40.1859199513625,-21.6,-27.4));
#1640=CARTESIAN_POINT('',(-62.4,-42.4,-27.4));
#1641=CARTESIAN_POINT('',(-62.4,-42.4,-27.4));
#1642=CARTESIAN_POINT('',(-62.4,42.4,-27.4));
#1643=CARTESIAN_POINT('Origin',(-31.9859199513625,-42.4,-27.4));
#1644=CARTESIAN_POINT('',(-31.9859199513625,-42.4,-27.4));
#1645=CARTESIAN_POINT('',(-31.9859199513625,-43.2,-27.4));
#1646=CARTESIAN_POINT('',(-31.9859199513625,-21.2,-27.4));
#1647=CARTESIAN_POINT('',(-31.9859199513625,-42.4,-29.));
#1648=CARTESIAN_POINT('',(-31.9859199513625,-42.4,-28.2));
#1649=CARTESIAN_POINT('',(-31.9859199513625,-43.2,-29.));
#1650=CARTESIAN_POINT('',(-31.9859199513625,-43.4,-29.));
#1651=CARTESIAN_POINT('',(-31.9859199513625,-43.2,-28.2));
#1652=CARTESIAN_POINT('Origin',(-40.1859199513625,-43.2,-27.4));
#1653=CARTESIAN_POINT('',(-40.1859199513625,-43.2,-29.));
#1654=CARTESIAN_POINT('',(-40.1859199513625,-43.2,-28.2));
#1655=CARTESIAN_POINT('',(-40.1859199513625,-42.4,-29.));
#1656=CARTESIAN_POINT('',(-40.1859199513625,-38.4,-29.));
#1657=CARTESIAN_POINT('',(-40.1859199513625,-42.4,-28.2));
#1658=CARTESIAN_POINT('Origin',(-63.2,-43.2,-29.));
#1659=CARTESIAN_POINT('',(31.8859199513625,-43.2,-29.));
#1660=CARTESIAN_POINT('',(-31.6,-43.2,-29.));
#1661=CARTESIAN_POINT('',(31.8859199513625,-43.2,-27.4));
#1662=CARTESIAN_POINT('',(31.8859199513625,-43.2,-28.2));
#1663=CARTESIAN_POINT('',(-63.2,-43.2,-27.4));
#1664=CARTESIAN_POINT('Origin',(-63.2,-43.2,-29.));
#1665=CARTESIAN_POINT('',(-63.2,-43.2,-29.));
#1666=CARTESIAN_POINT('',(-63.2,-43.2,-29.));
#1667=CARTESIAN_POINT('',(-31.6,-43.2,-29.));
#1668=CARTESIAN_POINT('Origin',(0.,0.,-27.4));
#1669=CARTESIAN_POINT('',(31.8859199513625,-42.4,-27.4));
#1670=CARTESIAN_POINT('',(31.8859199513625,-21.6,-27.4));
#1671=CARTESIAN_POINT('',(-62.4,-42.4,-27.4));
#1672=CARTESIAN_POINT('Origin',(0.,0.,-27.4));
#1673=CARTESIAN_POINT('',(63.2,43.2,-27.4));
#1674=CARTESIAN_POINT('',(62.4,42.4,-27.4));
#1675=CARTESIAN_POINT('Origin',(62.4,-42.4,-29.));
#1676=CARTESIAN_POINT('',(31.8859199513625,-42.4,-29.));
#1677=CARTESIAN_POINT('',(31.8859199513625,-42.4,-28.2));
#1678=CARTESIAN_POINT('',(31.2,-42.4,-29.));
#1679=CARTESIAN_POINT('Origin',(62.4,-42.4,-29.));
#1680=CARTESIAN_POINT('',(-62.4,-42.4,-29.));
#1681=CARTESIAN_POINT('',(31.2,-42.4,-29.));
#1682=CARTESIAN_POINT('',(-62.4,-42.4,-29.));
#1683=CARTESIAN_POINT('Origin',(40.2859199513625,-42.4,-27.4));
#1684=CARTESIAN_POINT('',(40.2859199513625,-42.4,-29.));
#1685=CARTESIAN_POINT('',(40.2859199513625,-42.4,-28.2));
#1686=CARTESIAN_POINT('',(40.2859199513625,-43.2,-29.));
#1687=CARTESIAN_POINT('',(40.2859199513625,-38.4,-29.));
#1688=CARTESIAN_POINT('',(40.2859199513625,-43.2,-28.2));
#1689=CARTESIAN_POINT('Origin',(31.8859199513625,-43.2,-27.4));
#1690=CARTESIAN_POINT('',(31.8859199513625,-43.4,-29.));
#1691=CARTESIAN_POINT('Origin',(62.4,-42.4,-29.));
#1692=CARTESIAN_POINT('',(62.4,-42.4,-29.));
#1693=CARTESIAN_POINT('',(62.4,-42.4,-29.));
#1694=CARTESIAN_POINT('',(31.2,-42.4,-29.));
#1695=CARTESIAN_POINT('Origin',(-63.2,-43.2,-29.));
#1696=CARTESIAN_POINT('',(63.2,-43.2,-29.));
#1697=CARTESIAN_POINT('',(-31.6,-43.2,-29.));
#1698=CARTESIAN_POINT('',(63.2,-43.2,-29.));
#1699=CARTESIAN_POINT('Origin',(-62.4,-42.4,-29.));
#1700=CARTESIAN_POINT('',(-62.4,-21.2,-29.));
#1701=CARTESIAN_POINT('Origin',(62.4,42.4,-29.));
#1702=CARTESIAN_POINT('',(62.4,21.2,-29.));
#1703=CARTESIAN_POINT('Origin',(-62.4,42.4,-29.));
#1704=CARTESIAN_POINT('',(-31.2,42.4,-29.));
#1705=CARTESIAN_POINT('Origin',(63.2,-43.2,-29.));
#1706=CARTESIAN_POINT('',(63.2,-21.6,-29.));
#1707=CARTESIAN_POINT('Origin',(-63.2,43.2,-29.));
#1708=CARTESIAN_POINT('',(-63.2,21.6,-29.));
#1709=CARTESIAN_POINT('Origin',(63.2,43.2,-29.));
#1710=CARTESIAN_POINT('',(31.6,43.2,-29.));
#1711=CARTESIAN_POINT('Origin',(0.,0.,-29.));
#1712=UNCERTAINTY_MEASURE_WITH_UNIT(LENGTH_MEASURE(0.01),#1716,
'DISTANCE_ACCURACY_VALUE',
'Maximum model space distance between geometric entities at asserted c
onnectivities');
#1713=UNCERTAINTY_MEASURE_WITH_UNIT(LENGTH_MEASURE(0.01),#1716,
'DISTANCE_ACCURACY_VALUE',
'Maximum model space distance between geometric entities at asserted c
onnectivities');
#1714=(
GEOMETRIC_REPRESENTATION_CONTEXT(3)
GLOBAL_UNCERTAINTY_ASSIGNED_CONTEXT((#1712))
GLOBAL_UNIT_ASSIGNED_CONTEXT((#1716,#1718,#1719))
REPRESENTATION_CONTEXT('','3D')
);
#1715=(
GEOMETRIC_REPRESENTATION_CONTEXT(3)
GLOBAL_UNCERTAINTY_ASSIGNED_CONTEXT((#1713))
GLOBAL_UNIT_ASSIGNED_CONTEXT((#1716,#1718,#1719))
REPRESENTATION_CONTEXT('','3D')
);
#1716=(
LENGTH_UNIT()
NAMED_UNIT(*)
SI_UNIT(.MILLI.,.METRE.)
);
#1717=(
LENGTH_UNIT()
NAMED_UNIT(*)
SI_UNIT($,.METRE.)
);
#1718=(
NAMED_UNIT(*)
PLANE_ANGLE_UNIT()
SI_UNIT($,.RADIAN.)
);
#1719=(
NAMED_UNIT(*)
SI_UNIT($,.STERADIAN.)
SOLID_ANGLE_UNIT()
);
#1720=SHAPE_DEFINITION_REPRESENTATION(#1721,#1722);
#1721=PRODUCT_DEFINITION_SHAPE('',$,#1724);
#1722=SHAPE_REPRESENTATION('',(#1024),#1714);
#1723=PRODUCT_DEFINITION_CONTEXT('part definition',#1728,'design');
#1724=PRODUCT_DEFINITION('ParaEQwithsides','ParaEQwithsides v10',#1725,
#1723);
#1725=PRODUCT_DEFINITION_FORMATION('',$,#1730);
#1726=PRODUCT_RELATED_PRODUCT_CATEGORY('ParaEQwithsides v10',
'ParaEQwithsides v10',(#1730));
#1727=APPLICATION_PROTOCOL_DEFINITION('international standard',
'automotive_design',2009,#1728);
#1728=APPLICATION_CONTEXT(
'Core Data for Automotive Mechanical Design Process');
#1729=PRODUCT_CONTEXT('part definition',#1728,'mechanical');
#1730=PRODUCT('ParaEQwithsides','ParaEQwithsides v10',$,(#1729));
#1731=PRESENTATION_STYLE_ASSIGNMENT((#1732));
#1732=SURFACE_STYLE_USAGE(.BOTH.,#1733);
#1733=SURFACE_SIDE_STYLE('',(#1734));
#1734=SURFACE_STYLE_FILL_AREA(#1735);
#1735=FILL_AREA_STYLE('Steel - Satin',(#1736));
#1736=FILL_AREA_STYLE_COLOUR('Steel - Satin',#1737);
#1737=COLOUR_RGB('Steel - Satin',0.627450980392157,0.627450980392157,0.627450980392157);
ENDSEC;
END-ISO-10303-21;
