ISO-10303-21;
HEADER;
/* Generated by software containing ST-Developer
 * from STEP Tools, Inc. (www.steptools.com) 
 */

FILE_DESCRIPTION(
/* description */ (''),
/* implementation_level */ '2;1');

FILE_NAME(
/* name */ 'SIDE.step',
/* time_stamp */ '2026-07-08T16:15:10+10:00',
/* author */ (''),
/* organization */ (''),
/* preprocessor_version */ 'ST-DEVELOPER v20.1',
/* originating_system */ 'Autodesk Translation Framework v15.8.0.0',
/* authorisation */ '');

FILE_SCHEMA (('AUTOMOTIVE_DESIGN { 1 0 10303 214 3 1 1 }'));
ENDSEC;

DATA;
#10=MECHANICAL_DESIGN_GEOMETRIC_PRESENTATION_REPRESENTATION('',(#13),#1343);
#11=SHAPE_REPRESENTATION_RELATIONSHIP('SRR','None',#1350,#12);
#12=ADVANCED_BREP_SHAPE_REPRESENTATION('',(#14),#1342);
#13=STYLED_ITEM('',(#1359),#14);
#14=MANIFOLD_SOLID_BREP('Body3',#755);
#15=FACE_BOUND('',#222,.T.);
#16=FACE_BOUND('',#223,.T.);
#17=FACE_BOUND('',#224,.T.);
#18=FACE_BOUND('',#225,.T.);
#19=FACE_BOUND('',#226,.T.);
#20=FACE_BOUND('',#237,.T.);
#21=FACE_BOUND('',#238,.T.);
#22=FACE_BOUND('',#239,.T.);
#23=FACE_BOUND('',#240,.T.);
#24=FACE_BOUND('',#241,.T.);
#25=FACE_BOUND('',#247,.T.);
#26=FACE_BOUND('',#250,.T.);
#27=FACE_BOUND('',#253,.T.);
#28=FACE_BOUND('',#256,.T.);
#29=PLANE('',#793);
#30=PLANE('',#796);
#31=PLANE('',#799);
#32=PLANE('',#831);
#33=PLANE('',#841);
#34=PLANE('',#842);
#35=PLANE('',#845);
#36=PLANE('',#849);
#37=PLANE('',#853);
#38=PLANE('',#857);
#39=PLANE('',#864);
#40=PLANE('',#866);
#41=PLANE('',#868);
#42=PLANE('',#870);
#43=LINE('',#1139,#91);
#44=LINE('',#1140,#92);
#45=LINE('',#1151,#93);
#46=LINE('',#1152,#94);
#47=LINE('',#1163,#95);
#48=LINE('',#1164,#96);
#49=LINE('',#1172,#97);
#50=LINE('',#1173,#98);
#51=LINE('',#1176,#99);
#52=LINE('',#1178,#100);
#53=LINE('',#1179,#101);
#54=LINE('',#1182,#102);
#55=LINE('',#1186,#103);
#56=LINE('',#1187,#104);
#57=LINE('',#1190,#105);
#58=LINE('',#1195,#106);
#59=LINE('',#1199,#107);
#60=LINE('',#1203,#108);
#61=LINE('',#1207,#109);
#62=LINE('',#1229,#110);
#63=LINE('',#1230,#111);
#64=LINE('',#1240,#112);
#65=LINE('',#1241,#113);
#66=LINE('',#1249,#114);
#67=LINE('',#1255,#115);
#68=LINE('',#1257,#116);
#69=LINE('',#1261,#117);
#70=LINE('',#1265,#118);
#71=LINE('',#1269,#119);
#72=LINE('',#1273,#120);
#73=LINE('',#1284,#121);
#74=LINE('',#1285,#122);
#75=LINE('',#1290,#123);
#76=LINE('',#1297,#124);
#77=LINE('',#1304,#125);
#78=LINE('',#1311,#126);
#79=LINE('',#1317,#127);
#80=LINE('',#1319,#128);
#81=LINE('',#1321,#129);
#82=LINE('',#1323,#130);
#83=LINE('',#1325,#131);
#84=LINE('',#1326,#132);
#85=LINE('',#1328,#133);
#86=LINE('',#1330,#134);
#87=LINE('',#1332,#135);
#88=LINE('',#1334,#136);
#89=LINE('',#1336,#137);
#90=LINE('',#1338,#138);
#91=VECTOR('',#887,10.);
#92=VECTOR('',#888,10.);
#93=VECTOR('',#901,10.);
#94=VECTOR('',#902,10.);
#95=VECTOR('',#915,10.);
#96=VECTOR('',#916,10.);
#97=VECTOR('',#927,10.);
#98=VECTOR('',#928,10.);
#99=VECTOR('',#931,10.);
#100=VECTOR('',#932,10.);
#101=VECTOR('',#933,10.);
#102=VECTOR('',#936,10.);
#103=VECTOR('',#941,10.);
#104=VECTOR('',#942,10.);
#105=VECTOR('',#945,10.);
#106=VECTOR('',#950,10.);
#107=VECTOR('',#953,10.);
#108=VECTOR('',#956,10.);
#109=VECTOR('',#959,10.);
#110=VECTOR('',#984,10.);
#111=VECTOR('',#985,10.);
#112=VECTOR('',#998,10.);
#113=VECTOR('',#999,10.);
#114=VECTOR('',#1010,10.);
#115=VECTOR('',#1019,10.);
#116=VECTOR('',#1022,10.);
#117=VECTOR('',#1025,10.);
#118=VECTOR('',#1028,10.);
#119=VECTOR('',#1031,10.);
#120=VECTOR('',#1034,10.);
#121=VECTOR('',#1047,10.);
#122=VECTOR('',#1048,10.);
#123=VECTOR('',#1055,3.);
#124=VECTOR('',#1064,3.);
#125=VECTOR('',#1073,3.);
#126=VECTOR('',#1082,3.);
#127=VECTOR('',#1091,1.55);
#128=VECTOR('',#1094,1.55);
#129=VECTOR('',#1097,1.55);
#130=VECTOR('',#1100,1.55);
#131=VECTOR('',#1103,10.);
#132=VECTOR('',#1104,10.);
#133=VECTOR('',#1107,10.);
#134=VECTOR('',#1110,10.);
#135=VECTOR('',#1113,10.);
#136=VECTOR('',#1116,10.);
#137=VECTOR('',#1119,10.);
#138=VECTOR('',#1122,10.);
#139=CYLINDRICAL_SURFACE('',#774,0.5);
#140=CYLINDRICAL_SURFACE('',#780,0.5);
#141=CYLINDRICAL_SURFACE('',#786,0.5);
#142=CYLINDRICAL_SURFACE('',#792,0.5);
#143=CYLINDRICAL_SURFACE('',#794,3.);
#144=CYLINDRICAL_SURFACE('',#797,3.);
#145=CYLINDRICAL_SURFACE('',#813,0.5);
#146=CYLINDRICAL_SURFACE('',#819,0.5);
#147=CYLINDRICAL_SURFACE('',#824,0.5);
#148=CYLINDRICAL_SURFACE('',#829,0.5);
#149=CYLINDRICAL_SURFACE('',#830,3.);
#150=CYLINDRICAL_SURFACE('',#840,3.);
#151=CYLINDRICAL_SURFACE('',#843,3.);
#152=CYLINDRICAL_SURFACE('',#847,3.);
#153=CYLINDRICAL_SURFACE('',#851,3.);
#154=CYLINDRICAL_SURFACE('',#855,3.);
#155=CYLINDRICAL_SURFACE('',#859,1.55);
#156=CYLINDRICAL_SURFACE('',#860,1.55);
#157=CYLINDRICAL_SURFACE('',#861,1.55);
#158=CYLINDRICAL_SURFACE('',#862,1.55);
#159=CYLINDRICAL_SURFACE('',#863,2.00000000000001);
#160=CYLINDRICAL_SURFACE('',#865,2.);
#161=CYLINDRICAL_SURFACE('',#867,2.00000000000001);
#162=CYLINDRICAL_SURFACE('',#869,1.99999999999999);
#163=FACE_OUTER_BOUND('',#209,.T.);
#164=FACE_OUTER_BOUND('',#210,.T.);
#165=FACE_OUTER_BOUND('',#211,.T.);
#166=FACE_OUTER_BOUND('',#212,.T.);
#167=FACE_OUTER_BOUND('',#213,.T.);
#168=FACE_OUTER_BOUND('',#214,.T.);
#169=FACE_OUTER_BOUND('',#215,.T.);
#170=FACE_OUTER_BOUND('',#216,.T.);
#171=FACE_OUTER_BOUND('',#217,.T.);
#172=FACE_OUTER_BOUND('',#218,.T.);
#173=FACE_OUTER_BOUND('',#219,.T.);
#174=FACE_OUTER_BOUND('',#220,.T.);
#175=FACE_OUTER_BOUND('',#221,.T.);
#176=FACE_OUTER_BOUND('',#227,.T.);
#177=FACE_OUTER_BOUND('',#228,.T.);
#178=FACE_OUTER_BOUND('',#229,.T.);
#179=FACE_OUTER_BOUND('',#230,.T.);
#180=FACE_OUTER_BOUND('',#231,.T.);
#181=FACE_OUTER_BOUND('',#232,.T.);
#182=FACE_OUTER_BOUND('',#233,.T.);
#183=FACE_OUTER_BOUND('',#234,.T.);
#184=FACE_OUTER_BOUND('',#235,.T.);
#185=FACE_OUTER_BOUND('',#236,.T.);
#186=FACE_OUTER_BOUND('',#242,.T.);
#187=FACE_OUTER_BOUND('',#243,.T.);
#188=FACE_OUTER_BOUND('',#244,.T.);
#189=FACE_OUTER_BOUND('',#245,.T.);
#190=FACE_OUTER_BOUND('',#246,.T.);
#191=FACE_OUTER_BOUND('',#248,.T.);
#192=FACE_OUTER_BOUND('',#249,.T.);
#193=FACE_OUTER_BOUND('',#251,.T.);
#194=FACE_OUTER_BOUND('',#252,.T.);
#195=FACE_OUTER_BOUND('',#254,.T.);
#196=FACE_OUTER_BOUND('',#255,.T.);
#197=FACE_OUTER_BOUND('',#257,.T.);
#198=FACE_OUTER_BOUND('',#258,.T.);
#199=FACE_OUTER_BOUND('',#259,.T.);
#200=FACE_OUTER_BOUND('',#260,.T.);
#201=FACE_OUTER_BOUND('',#261,.T.);
#202=FACE_OUTER_BOUND('',#262,.T.);
#203=FACE_OUTER_BOUND('',#263,.T.);
#204=FACE_OUTER_BOUND('',#264,.T.);
#205=FACE_OUTER_BOUND('',#265,.T.);
#206=FACE_OUTER_BOUND('',#266,.T.);
#207=FACE_OUTER_BOUND('',#267,.T.);
#208=FACE_OUTER_BOUND('',#268,.T.);
#209=EDGE_LOOP('',(#493,#494,#495,#496));
#210=EDGE_LOOP('',(#497,#498,#499,#500));
#211=EDGE_LOOP('',(#501,#502,#503,#504));
#212=EDGE_LOOP('',(#505,#506,#507,#508));
#213=EDGE_LOOP('',(#509,#510,#511,#512));
#214=EDGE_LOOP('',(#513,#514,#515,#516));
#215=EDGE_LOOP('',(#517,#518,#519,#520));
#216=EDGE_LOOP('',(#521,#522,#523,#524));
#217=EDGE_LOOP('',(#525,#526,#527,#528));
#218=EDGE_LOOP('',(#529,#530,#531,#532));
#219=EDGE_LOOP('',(#533,#534,#535,#536));
#220=EDGE_LOOP('',(#537,#538,#539,#540));
#221=EDGE_LOOP('',(#541,#542,#543,#544,#545,#546,#547,#548));
#222=EDGE_LOOP('',(#549));
#223=EDGE_LOOP('',(#550));
#224=EDGE_LOOP('',(#551));
#225=EDGE_LOOP('',(#552));
#226=EDGE_LOOP('',(#553,#554,#555,#556,#557,#558,#559,#560));
#227=EDGE_LOOP('',(#561,#562,#563,#564));
#228=EDGE_LOOP('',(#565,#566,#567,#568));
#229=EDGE_LOOP('',(#569,#570,#571,#572));
#230=EDGE_LOOP('',(#573,#574,#575,#576));
#231=EDGE_LOOP('',(#577,#578,#579,#580));
#232=EDGE_LOOP('',(#581,#582,#583,#584));
#233=EDGE_LOOP('',(#585,#586,#587,#588));
#234=EDGE_LOOP('',(#589,#590,#591,#592));
#235=EDGE_LOOP('',(#593,#594,#595,#596));
#236=EDGE_LOOP('',(#597,#598,#599,#600,#601,#602,#603,#604));
#237=EDGE_LOOP('',(#605));
#238=EDGE_LOOP('',(#606));
#239=EDGE_LOOP('',(#607));
#240=EDGE_LOOP('',(#608));
#241=EDGE_LOOP('',(#609,#610,#611,#612,#613,#614,#615,#616));
#242=EDGE_LOOP('',(#617,#618,#619,#620));
#243=EDGE_LOOP('',(#621,#622,#623,#624));
#244=EDGE_LOOP('',(#625,#626,#627,#628));
#245=EDGE_LOOP('',(#629,#630,#631,#632));
#246=EDGE_LOOP('',(#633));
#247=EDGE_LOOP('',(#634));
#248=EDGE_LOOP('',(#635,#636,#637,#638));
#249=EDGE_LOOP('',(#639));
#250=EDGE_LOOP('',(#640));
#251=EDGE_LOOP('',(#641,#642,#643,#644));
#252=EDGE_LOOP('',(#645));
#253=EDGE_LOOP('',(#646));
#254=EDGE_LOOP('',(#647,#648,#649,#650));
#255=EDGE_LOOP('',(#651));
#256=EDGE_LOOP('',(#652));
#257=EDGE_LOOP('',(#653,#654,#655,#656));
#258=EDGE_LOOP('',(#657,#658,#659,#660));
#259=EDGE_LOOP('',(#661,#662,#663,#664));
#260=EDGE_LOOP('',(#665,#666,#667,#668));
#261=EDGE_LOOP('',(#669,#670,#671,#672));
#262=EDGE_LOOP('',(#673,#674,#675,#676));
#263=EDGE_LOOP('',(#677,#678,#679,#680));
#264=EDGE_LOOP('',(#681,#682,#683,#684));
#265=EDGE_LOOP('',(#685,#686,#687,#688));
#266=EDGE_LOOP('',(#689,#690,#691,#692));
#267=EDGE_LOOP('',(#693,#694,#695,#696));
#268=EDGE_LOOP('',(#697,#698,#699,#700));
#269=CIRCLE('',#770,0.499999999999999);
#270=CIRCLE('',#771,3.5);
#271=CIRCLE('',#772,0.499999999999998);
#272=CIRCLE('',#773,3.);
#273=CIRCLE('',#775,0.499999999999998);
#274=CIRCLE('',#777,0.499999999999998);
#275=CIRCLE('',#778,3.);
#276=CIRCLE('',#779,3.5);
#277=CIRCLE('',#781,0.499999999999998);
#278=CIRCLE('',#783,0.499999999999998);
#279=CIRCLE('',#784,3.);
#280=CIRCLE('',#785,3.5);
#281=CIRCLE('',#787,0.499999999999998);
#282=CIRCLE('',#789,0.499999999999998);
#283=CIRCLE('',#790,3.);
#284=CIRCLE('',#791,3.5);
#285=CIRCLE('',#795,3.);
#286=CIRCLE('',#798,3.);
#287=CIRCLE('',#800,2.00000000000001);
#288=CIRCLE('',#801,2.);
#289=CIRCLE('',#802,2.00000000000001);
#290=CIRCLE('',#803,1.99999999999999);
#291=CIRCLE('',#804,1.55);
#292=CIRCLE('',#805,1.55);
#293=CIRCLE('',#806,1.55);
#294=CIRCLE('',#807,1.55);
#295=CIRCLE('',#809,0.499999999999999);
#296=CIRCLE('',#810,3.5);
#297=CIRCLE('',#811,0.499999999999998);
#298=CIRCLE('',#812,3.);
#299=CIRCLE('',#814,0.499999999999998);
#300=CIRCLE('',#816,0.499999999999998);
#301=CIRCLE('',#817,3.);
#302=CIRCLE('',#818,3.5);
#303=CIRCLE('',#820,0.499999999999998);
#304=CIRCLE('',#822,0.499999999999998);
#305=CIRCLE('',#823,3.5);
#306=CIRCLE('',#825,0.499999999999998);
#307=CIRCLE('',#827,0.499999999999998);
#308=CIRCLE('',#828,3.5);
#309=CIRCLE('',#832,1.99999999999999);
#310=CIRCLE('',#833,2.00000000000001);
#311=CIRCLE('',#834,2.);
#312=CIRCLE('',#835,2.00000000000001);
#313=CIRCLE('',#836,3.);
#314=CIRCLE('',#837,3.);
#315=CIRCLE('',#838,3.);
#316=CIRCLE('',#839,3.);
#317=CIRCLE('',#844,3.);
#318=CIRCLE('',#846,1.55);
#319=CIRCLE('',#848,3.);
#320=CIRCLE('',#850,1.55);
#321=CIRCLE('',#852,3.);
#322=CIRCLE('',#854,1.55);
#323=CIRCLE('',#856,3.);
#324=CIRCLE('',#858,1.55);
#325=VERTEX_POINT('',#1127);
#326=VERTEX_POINT('',#1128);
#327=VERTEX_POINT('',#1130);
#328=VERTEX_POINT('',#1132);
#329=VERTEX_POINT('',#1136);
#330=VERTEX_POINT('',#1137);
#331=VERTEX_POINT('',#1142);
#332=VERTEX_POINT('',#1143);
#333=VERTEX_POINT('',#1148);
#334=VERTEX_POINT('',#1149);
#335=VERTEX_POINT('',#1154);
#336=VERTEX_POINT('',#1155);
#337=VERTEX_POINT('',#1160);
#338=VERTEX_POINT('',#1161);
#339=VERTEX_POINT('',#1166);
#340=VERTEX_POINT('',#1167);
#341=VERTEX_POINT('',#1175);
#342=VERTEX_POINT('',#1177);
#343=VERTEX_POINT('',#1181);
#344=VERTEX_POINT('',#1185);
#345=VERTEX_POINT('',#1189);
#346=VERTEX_POINT('',#1193);
#347=VERTEX_POINT('',#1194);
#348=VERTEX_POINT('',#1196);
#349=VERTEX_POINT('',#1198);
#350=VERTEX_POINT('',#1200);
#351=VERTEX_POINT('',#1202);
#352=VERTEX_POINT('',#1204);
#353=VERTEX_POINT('',#1206);
#354=VERTEX_POINT('',#1209);
#355=VERTEX_POINT('',#1211);
#356=VERTEX_POINT('',#1213);
#357=VERTEX_POINT('',#1215);
#358=VERTEX_POINT('',#1218);
#359=VERTEX_POINT('',#1220);
#360=VERTEX_POINT('',#1222);
#361=VERTEX_POINT('',#1226);
#362=VERTEX_POINT('',#1227);
#363=VERTEX_POINT('',#1232);
#364=VERTEX_POINT('',#1233);
#365=VERTEX_POINT('',#1238);
#366=VERTEX_POINT('',#1243);
#367=VERTEX_POINT('',#1247);
#368=VERTEX_POINT('',#1251);
#369=VERTEX_POINT('',#1259);
#370=VERTEX_POINT('',#1260);
#371=VERTEX_POINT('',#1262);
#372=VERTEX_POINT('',#1264);
#373=VERTEX_POINT('',#1266);
#374=VERTEX_POINT('',#1268);
#375=VERTEX_POINT('',#1270);
#376=VERTEX_POINT('',#1272);
#377=VERTEX_POINT('',#1275);
#378=VERTEX_POINT('',#1277);
#379=VERTEX_POINT('',#1279);
#380=VERTEX_POINT('',#1281);
#381=VERTEX_POINT('',#1289);
#382=VERTEX_POINT('',#1293);
#383=VERTEX_POINT('',#1296);
#384=VERTEX_POINT('',#1300);
#385=VERTEX_POINT('',#1303);
#386=VERTEX_POINT('',#1307);
#387=VERTEX_POINT('',#1310);
#388=VERTEX_POINT('',#1314);
#389=EDGE_CURVE('',#325,#326,#269,.T.);
#390=EDGE_CURVE('',#326,#327,#270,.T.);
#391=EDGE_CURVE('',#327,#328,#271,.T.);
#392=EDGE_CURVE('',#328,#325,#272,.T.);
#393=EDGE_CURVE('',#329,#330,#273,.T.);
#394=EDGE_CURVE('',#330,#328,#43,.T.);
#395=EDGE_CURVE('',#327,#329,#44,.T.);
#396=EDGE_CURVE('',#331,#332,#274,.T.);
#397=EDGE_CURVE('',#332,#330,#275,.T.);
#398=EDGE_CURVE('',#329,#331,#276,.T.);
#399=EDGE_CURVE('',#333,#334,#277,.T.);
#400=EDGE_CURVE('',#334,#332,#45,.T.);
#401=EDGE_CURVE('',#331,#333,#46,.T.);
#402=EDGE_CURVE('',#335,#336,#278,.T.);
#403=EDGE_CURVE('',#336,#334,#279,.T.);
#404=EDGE_CURVE('',#333,#335,#280,.T.);
#405=EDGE_CURVE('',#337,#338,#281,.T.);
#406=EDGE_CURVE('',#338,#336,#47,.T.);
#407=EDGE_CURVE('',#335,#337,#48,.T.);
#408=EDGE_CURVE('',#339,#340,#282,.T.);
#409=EDGE_CURVE('',#340,#338,#283,.T.);
#410=EDGE_CURVE('',#337,#339,#284,.T.);
#411=EDGE_CURVE('',#325,#340,#49,.T.);
#412=EDGE_CURVE('',#339,#326,#50,.T.);
#413=EDGE_CURVE('',#341,#338,#51,.T.);
#414=EDGE_CURVE('',#342,#341,#52,.T.);
#415=EDGE_CURVE('',#336,#342,#53,.T.);
#416=EDGE_CURVE('',#340,#343,#54,.T.);
#417=EDGE_CURVE('',#341,#343,#285,.T.);
#418=EDGE_CURVE('',#344,#325,#55,.T.);
#419=EDGE_CURVE('',#343,#344,#56,.T.);
#420=EDGE_CURVE('',#328,#345,#57,.T.);
#421=EDGE_CURVE('',#344,#345,#286,.T.);
#422=EDGE_CURVE('',#346,#347,#58,.T.);
#423=EDGE_CURVE('',#348,#346,#287,.T.);
#424=EDGE_CURVE('',#349,#348,#59,.T.);
#425=EDGE_CURVE('',#350,#349,#288,.T.);
#426=EDGE_CURVE('',#351,#350,#60,.T.);
#427=EDGE_CURVE('',#352,#351,#289,.T.);
#428=EDGE_CURVE('',#353,#352,#61,.T.);
#429=EDGE_CURVE('',#347,#353,#290,.T.);
#430=EDGE_CURVE('',#354,#354,#291,.T.);
#431=EDGE_CURVE('',#355,#355,#292,.T.);
#432=EDGE_CURVE('',#356,#356,#293,.T.);
#433=EDGE_CURVE('',#357,#357,#294,.T.);
#434=EDGE_CURVE('',#342,#358,#295,.T.);
#435=EDGE_CURVE('',#358,#359,#296,.T.);
#436=EDGE_CURVE('',#359,#360,#297,.T.);
#437=EDGE_CURVE('',#360,#342,#298,.T.);
#438=EDGE_CURVE('',#361,#362,#299,.T.);
#439=EDGE_CURVE('',#362,#360,#62,.T.);
#440=EDGE_CURVE('',#359,#361,#63,.T.);
#441=EDGE_CURVE('',#363,#364,#300,.T.);
#442=EDGE_CURVE('',#364,#362,#301,.T.);
#443=EDGE_CURVE('',#361,#363,#302,.T.);
#444=EDGE_CURVE('',#365,#345,#303,.T.);
#445=EDGE_CURVE('',#345,#364,#64,.T.);
#446=EDGE_CURVE('',#363,#365,#65,.T.);
#447=EDGE_CURVE('',#366,#344,#304,.T.);
#448=EDGE_CURVE('',#365,#366,#305,.T.);
#449=EDGE_CURVE('',#367,#343,#306,.T.);
#450=EDGE_CURVE('',#366,#367,#66,.T.);
#451=EDGE_CURVE('',#368,#341,#307,.T.);
#452=EDGE_CURVE('',#367,#368,#308,.T.);
#453=EDGE_CURVE('',#368,#358,#67,.T.);
#454=EDGE_CURVE('',#360,#334,#68,.T.);
#455=EDGE_CURVE('',#369,#370,#69,.T.);
#456=EDGE_CURVE('',#370,#371,#309,.T.);
#457=EDGE_CURVE('',#371,#372,#70,.T.);
#458=EDGE_CURVE('',#372,#373,#310,.T.);
#459=EDGE_CURVE('',#373,#374,#71,.T.);
#460=EDGE_CURVE('',#374,#375,#311,.T.);
#461=EDGE_CURVE('',#375,#376,#72,.T.);
#462=EDGE_CURVE('',#376,#369,#312,.T.);
#463=EDGE_CURVE('',#377,#377,#313,.T.);
#464=EDGE_CURVE('',#378,#378,#314,.T.);
#465=EDGE_CURVE('',#379,#379,#315,.T.);
#466=EDGE_CURVE('',#380,#380,#316,.T.);
#467=EDGE_CURVE('',#332,#362,#73,.T.);
#468=EDGE_CURVE('',#364,#330,#74,.T.);
#469=EDGE_CURVE('',#377,#381,#75,.T.);
#470=EDGE_CURVE('',#381,#381,#317,.T.);
#471=EDGE_CURVE('',#382,#382,#318,.T.);
#472=EDGE_CURVE('',#378,#383,#76,.T.);
#473=EDGE_CURVE('',#383,#383,#319,.T.);
#474=EDGE_CURVE('',#384,#384,#320,.T.);
#475=EDGE_CURVE('',#379,#385,#77,.T.);
#476=EDGE_CURVE('',#385,#385,#321,.T.);
#477=EDGE_CURVE('',#386,#386,#322,.T.);
#478=EDGE_CURVE('',#380,#387,#78,.T.);
#479=EDGE_CURVE('',#387,#387,#323,.T.);
#480=EDGE_CURVE('',#388,#388,#324,.T.);
#481=EDGE_CURVE('',#384,#357,#79,.T.);
#482=EDGE_CURVE('',#388,#356,#80,.T.);
#483=EDGE_CURVE('',#386,#355,#81,.T.);
#484=EDGE_CURVE('',#382,#354,#82,.T.);
#485=EDGE_CURVE('',#346,#369,#83,.T.);
#486=EDGE_CURVE('',#348,#376,#84,.T.);
#487=EDGE_CURVE('',#349,#375,#85,.T.);
#488=EDGE_CURVE('',#350,#374,#86,.T.);
#489=EDGE_CURVE('',#351,#373,#87,.T.);
#490=EDGE_CURVE('',#352,#372,#88,.T.);
#491=EDGE_CURVE('',#353,#371,#89,.T.);
#492=EDGE_CURVE('',#347,#370,#90,.T.);
#493=ORIENTED_EDGE('',*,*,#389,.T.);
#494=ORIENTED_EDGE('',*,*,#390,.T.);
#495=ORIENTED_EDGE('',*,*,#391,.T.);
#496=ORIENTED_EDGE('',*,*,#392,.T.);
#497=ORIENTED_EDGE('',*,*,#393,.T.);
#498=ORIENTED_EDGE('',*,*,#394,.T.);
#499=ORIENTED_EDGE('',*,*,#391,.F.);
#500=ORIENTED_EDGE('',*,*,#395,.T.);
#501=ORIENTED_EDGE('',*,*,#396,.T.);
#502=ORIENTED_EDGE('',*,*,#397,.T.);
#503=ORIENTED_EDGE('',*,*,#393,.F.);
#504=ORIENTED_EDGE('',*,*,#398,.T.);
#505=ORIENTED_EDGE('',*,*,#399,.T.);
#506=ORIENTED_EDGE('',*,*,#400,.T.);
#507=ORIENTED_EDGE('',*,*,#396,.F.);
#508=ORIENTED_EDGE('',*,*,#401,.T.);
#509=ORIENTED_EDGE('',*,*,#402,.T.);
#510=ORIENTED_EDGE('',*,*,#403,.T.);
#511=ORIENTED_EDGE('',*,*,#399,.F.);
#512=ORIENTED_EDGE('',*,*,#404,.T.);
#513=ORIENTED_EDGE('',*,*,#405,.T.);
#514=ORIENTED_EDGE('',*,*,#406,.T.);
#515=ORIENTED_EDGE('',*,*,#402,.F.);
#516=ORIENTED_EDGE('',*,*,#407,.T.);
#517=ORIENTED_EDGE('',*,*,#408,.T.);
#518=ORIENTED_EDGE('',*,*,#409,.T.);
#519=ORIENTED_EDGE('',*,*,#405,.F.);
#520=ORIENTED_EDGE('',*,*,#410,.T.);
#521=ORIENTED_EDGE('',*,*,#389,.F.);
#522=ORIENTED_EDGE('',*,*,#411,.T.);
#523=ORIENTED_EDGE('',*,*,#408,.F.);
#524=ORIENTED_EDGE('',*,*,#412,.T.);
#525=ORIENTED_EDGE('',*,*,#406,.F.);
#526=ORIENTED_EDGE('',*,*,#413,.F.);
#527=ORIENTED_EDGE('',*,*,#414,.F.);
#528=ORIENTED_EDGE('',*,*,#415,.F.);
#529=ORIENTED_EDGE('',*,*,#409,.F.);
#530=ORIENTED_EDGE('',*,*,#416,.T.);
#531=ORIENTED_EDGE('',*,*,#417,.F.);
#532=ORIENTED_EDGE('',*,*,#413,.T.);
#533=ORIENTED_EDGE('',*,*,#411,.F.);
#534=ORIENTED_EDGE('',*,*,#418,.F.);
#535=ORIENTED_EDGE('',*,*,#419,.F.);
#536=ORIENTED_EDGE('',*,*,#416,.F.);
#537=ORIENTED_EDGE('',*,*,#392,.F.);
#538=ORIENTED_EDGE('',*,*,#420,.T.);
#539=ORIENTED_EDGE('',*,*,#421,.F.);
#540=ORIENTED_EDGE('',*,*,#418,.T.);
#541=ORIENTED_EDGE('',*,*,#422,.F.);
#542=ORIENTED_EDGE('',*,*,#423,.F.);
#543=ORIENTED_EDGE('',*,*,#424,.F.);
#544=ORIENTED_EDGE('',*,*,#425,.F.);
#545=ORIENTED_EDGE('',*,*,#426,.F.);
#546=ORIENTED_EDGE('',*,*,#427,.F.);
#547=ORIENTED_EDGE('',*,*,#428,.F.);
#548=ORIENTED_EDGE('',*,*,#429,.F.);
#549=ORIENTED_EDGE('',*,*,#430,.T.);
#550=ORIENTED_EDGE('',*,*,#431,.T.);
#551=ORIENTED_EDGE('',*,*,#432,.T.);
#552=ORIENTED_EDGE('',*,*,#433,.T.);
#553=ORIENTED_EDGE('',*,*,#390,.F.);
#554=ORIENTED_EDGE('',*,*,#412,.F.);
#555=ORIENTED_EDGE('',*,*,#410,.F.);
#556=ORIENTED_EDGE('',*,*,#407,.F.);
#557=ORIENTED_EDGE('',*,*,#404,.F.);
#558=ORIENTED_EDGE('',*,*,#401,.F.);
#559=ORIENTED_EDGE('',*,*,#398,.F.);
#560=ORIENTED_EDGE('',*,*,#395,.F.);
#561=ORIENTED_EDGE('',*,*,#434,.T.);
#562=ORIENTED_EDGE('',*,*,#435,.T.);
#563=ORIENTED_EDGE('',*,*,#436,.T.);
#564=ORIENTED_EDGE('',*,*,#437,.T.);
#565=ORIENTED_EDGE('',*,*,#438,.T.);
#566=ORIENTED_EDGE('',*,*,#439,.T.);
#567=ORIENTED_EDGE('',*,*,#436,.F.);
#568=ORIENTED_EDGE('',*,*,#440,.T.);
#569=ORIENTED_EDGE('',*,*,#441,.T.);
#570=ORIENTED_EDGE('',*,*,#442,.T.);
#571=ORIENTED_EDGE('',*,*,#438,.F.);
#572=ORIENTED_EDGE('',*,*,#443,.T.);
#573=ORIENTED_EDGE('',*,*,#444,.T.);
#574=ORIENTED_EDGE('',*,*,#445,.T.);
#575=ORIENTED_EDGE('',*,*,#441,.F.);
#576=ORIENTED_EDGE('',*,*,#446,.T.);
#577=ORIENTED_EDGE('',*,*,#447,.T.);
#578=ORIENTED_EDGE('',*,*,#421,.T.);
#579=ORIENTED_EDGE('',*,*,#444,.F.);
#580=ORIENTED_EDGE('',*,*,#448,.T.);
#581=ORIENTED_EDGE('',*,*,#449,.T.);
#582=ORIENTED_EDGE('',*,*,#419,.T.);
#583=ORIENTED_EDGE('',*,*,#447,.F.);
#584=ORIENTED_EDGE('',*,*,#450,.T.);
#585=ORIENTED_EDGE('',*,*,#451,.T.);
#586=ORIENTED_EDGE('',*,*,#417,.T.);
#587=ORIENTED_EDGE('',*,*,#449,.F.);
#588=ORIENTED_EDGE('',*,*,#452,.T.);
#589=ORIENTED_EDGE('',*,*,#434,.F.);
#590=ORIENTED_EDGE('',*,*,#414,.T.);
#591=ORIENTED_EDGE('',*,*,#451,.F.);
#592=ORIENTED_EDGE('',*,*,#453,.T.);
#593=ORIENTED_EDGE('',*,*,#403,.F.);
#594=ORIENTED_EDGE('',*,*,#415,.T.);
#595=ORIENTED_EDGE('',*,*,#437,.F.);
#596=ORIENTED_EDGE('',*,*,#454,.T.);
#597=ORIENTED_EDGE('',*,*,#455,.T.);
#598=ORIENTED_EDGE('',*,*,#456,.T.);
#599=ORIENTED_EDGE('',*,*,#457,.T.);
#600=ORIENTED_EDGE('',*,*,#458,.T.);
#601=ORIENTED_EDGE('',*,*,#459,.T.);
#602=ORIENTED_EDGE('',*,*,#460,.T.);
#603=ORIENTED_EDGE('',*,*,#461,.T.);
#604=ORIENTED_EDGE('',*,*,#462,.T.);
#605=ORIENTED_EDGE('',*,*,#463,.T.);
#606=ORIENTED_EDGE('',*,*,#464,.T.);
#607=ORIENTED_EDGE('',*,*,#465,.T.);
#608=ORIENTED_EDGE('',*,*,#466,.T.);
#609=ORIENTED_EDGE('',*,*,#435,.F.);
#610=ORIENTED_EDGE('',*,*,#453,.F.);
#611=ORIENTED_EDGE('',*,*,#452,.F.);
#612=ORIENTED_EDGE('',*,*,#450,.F.);
#613=ORIENTED_EDGE('',*,*,#448,.F.);
#614=ORIENTED_EDGE('',*,*,#446,.F.);
#615=ORIENTED_EDGE('',*,*,#443,.F.);
#616=ORIENTED_EDGE('',*,*,#440,.F.);
#617=ORIENTED_EDGE('',*,*,#397,.F.);
#618=ORIENTED_EDGE('',*,*,#467,.T.);
#619=ORIENTED_EDGE('',*,*,#442,.F.);
#620=ORIENTED_EDGE('',*,*,#468,.T.);
#621=ORIENTED_EDGE('',*,*,#400,.F.);
#622=ORIENTED_EDGE('',*,*,#454,.F.);
#623=ORIENTED_EDGE('',*,*,#439,.F.);
#624=ORIENTED_EDGE('',*,*,#467,.F.);
#625=ORIENTED_EDGE('',*,*,#394,.F.);
#626=ORIENTED_EDGE('',*,*,#468,.F.);
#627=ORIENTED_EDGE('',*,*,#445,.F.);
#628=ORIENTED_EDGE('',*,*,#420,.F.);
#629=ORIENTED_EDGE('',*,*,#463,.F.);
#630=ORIENTED_EDGE('',*,*,#469,.T.);
#631=ORIENTED_EDGE('',*,*,#470,.T.);
#632=ORIENTED_EDGE('',*,*,#469,.F.);
#633=ORIENTED_EDGE('',*,*,#470,.F.);
#634=ORIENTED_EDGE('',*,*,#471,.F.);
#635=ORIENTED_EDGE('',*,*,#464,.F.);
#636=ORIENTED_EDGE('',*,*,#472,.T.);
#637=ORIENTED_EDGE('',*,*,#473,.T.);
#638=ORIENTED_EDGE('',*,*,#472,.F.);
#639=ORIENTED_EDGE('',*,*,#473,.F.);
#640=ORIENTED_EDGE('',*,*,#474,.F.);
#641=ORIENTED_EDGE('',*,*,#465,.F.);
#642=ORIENTED_EDGE('',*,*,#475,.T.);
#643=ORIENTED_EDGE('',*,*,#476,.T.);
#644=ORIENTED_EDGE('',*,*,#475,.F.);
#645=ORIENTED_EDGE('',*,*,#476,.F.);
#646=ORIENTED_EDGE('',*,*,#477,.F.);
#647=ORIENTED_EDGE('',*,*,#466,.F.);
#648=ORIENTED_EDGE('',*,*,#478,.T.);
#649=ORIENTED_EDGE('',*,*,#479,.T.);
#650=ORIENTED_EDGE('',*,*,#478,.F.);
#651=ORIENTED_EDGE('',*,*,#479,.F.);
#652=ORIENTED_EDGE('',*,*,#480,.F.);
#653=ORIENTED_EDGE('',*,*,#474,.T.);
#654=ORIENTED_EDGE('',*,*,#481,.T.);
#655=ORIENTED_EDGE('',*,*,#433,.F.);
#656=ORIENTED_EDGE('',*,*,#481,.F.);
#657=ORIENTED_EDGE('',*,*,#480,.T.);
#658=ORIENTED_EDGE('',*,*,#482,.T.);
#659=ORIENTED_EDGE('',*,*,#432,.F.);
#660=ORIENTED_EDGE('',*,*,#482,.F.);
#661=ORIENTED_EDGE('',*,*,#477,.T.);
#662=ORIENTED_EDGE('',*,*,#483,.T.);
#663=ORIENTED_EDGE('',*,*,#431,.F.);
#664=ORIENTED_EDGE('',*,*,#483,.F.);
#665=ORIENTED_EDGE('',*,*,#471,.T.);
#666=ORIENTED_EDGE('',*,*,#484,.T.);
#667=ORIENTED_EDGE('',*,*,#430,.F.);
#668=ORIENTED_EDGE('',*,*,#484,.F.);
#669=ORIENTED_EDGE('',*,*,#423,.T.);
#670=ORIENTED_EDGE('',*,*,#485,.T.);
#671=ORIENTED_EDGE('',*,*,#462,.F.);
#672=ORIENTED_EDGE('',*,*,#486,.F.);
#673=ORIENTED_EDGE('',*,*,#424,.T.);
#674=ORIENTED_EDGE('',*,*,#486,.T.);
#675=ORIENTED_EDGE('',*,*,#461,.F.);
#676=ORIENTED_EDGE('',*,*,#487,.F.);
#677=ORIENTED_EDGE('',*,*,#425,.T.);
#678=ORIENTED_EDGE('',*,*,#487,.T.);
#679=ORIENTED_EDGE('',*,*,#460,.F.);
#680=ORIENTED_EDGE('',*,*,#488,.F.);
#681=ORIENTED_EDGE('',*,*,#426,.T.);
#682=ORIENTED_EDGE('',*,*,#488,.T.);
#683=ORIENTED_EDGE('',*,*,#459,.F.);
#684=ORIENTED_EDGE('',*,*,#489,.F.);
#685=ORIENTED_EDGE('',*,*,#427,.T.);
#686=ORIENTED_EDGE('',*,*,#489,.T.);
#687=ORIENTED_EDGE('',*,*,#458,.F.);
#688=ORIENTED_EDGE('',*,*,#490,.F.);
#689=ORIENTED_EDGE('',*,*,#428,.T.);
#690=ORIENTED_EDGE('',*,*,#490,.T.);
#691=ORIENTED_EDGE('',*,*,#457,.F.);
#692=ORIENTED_EDGE('',*,*,#491,.F.);
#693=ORIENTED_EDGE('',*,*,#429,.T.);
#694=ORIENTED_EDGE('',*,*,#491,.T.);
#695=ORIENTED_EDGE('',*,*,#456,.F.);
#696=ORIENTED_EDGE('',*,*,#492,.F.);
#697=ORIENTED_EDGE('',*,*,#422,.T.);
#698=ORIENTED_EDGE('',*,*,#492,.T.);
#699=ORIENTED_EDGE('',*,*,#455,.F.);
#700=ORIENTED_EDGE('',*,*,#485,.F.);
#701=TOROIDAL_SURFACE('',#769,3.5,0.5);
#702=TOROIDAL_SURFACE('',#776,3.5,0.5);
#703=TOROIDAL_SURFACE('',#782,3.5,0.5);
#704=TOROIDAL_SURFACE('',#788,3.5,0.5);
#705=TOROIDAL_SURFACE('',#808,3.5,0.5);
#706=TOROIDAL_SURFACE('',#815,3.5,0.5);
#707=TOROIDAL_SURFACE('',#821,3.5,0.5);
#708=TOROIDAL_SURFACE('',#826,3.5,0.5);
#709=ADVANCED_FACE('',(#163),#701,.T.);
#710=ADVANCED_FACE('',(#164),#139,.T.);
#711=ADVANCED_FACE('',(#165),#702,.T.);
#712=ADVANCED_FACE('',(#166),#140,.T.);
#713=ADVANCED_FACE('',(#167),#703,.T.);
#714=ADVANCED_FACE('',(#168),#141,.T.);
#715=ADVANCED_FACE('',(#169),#704,.T.);
#716=ADVANCED_FACE('',(#170),#142,.T.);
#717=ADVANCED_FACE('',(#171),#29,.T.);
#718=ADVANCED_FACE('',(#172),#143,.F.);
#719=ADVANCED_FACE('',(#173),#30,.T.);
#720=ADVANCED_FACE('',(#174),#144,.F.);
#721=ADVANCED_FACE('',(#175,#15,#16,#17,#18,#19),#31,.F.);
#722=ADVANCED_FACE('',(#176),#705,.T.);
#723=ADVANCED_FACE('',(#177),#145,.T.);
#724=ADVANCED_FACE('',(#178),#706,.T.);
#725=ADVANCED_FACE('',(#179),#146,.T.);
#726=ADVANCED_FACE('',(#180),#707,.T.);
#727=ADVANCED_FACE('',(#181),#147,.T.);
#728=ADVANCED_FACE('',(#182),#708,.T.);
#729=ADVANCED_FACE('',(#183),#148,.T.);
#730=ADVANCED_FACE('',(#184),#149,.F.);
#731=ADVANCED_FACE('',(#185,#20,#21,#22,#23,#24),#32,.T.);
#732=ADVANCED_FACE('',(#186),#150,.F.);
#733=ADVANCED_FACE('',(#187),#33,.T.);
#734=ADVANCED_FACE('',(#188),#34,.T.);
#735=ADVANCED_FACE('',(#189),#151,.F.);
#736=ADVANCED_FACE('',(#190,#25),#35,.T.);
#737=ADVANCED_FACE('',(#191),#152,.F.);
#738=ADVANCED_FACE('',(#192,#26),#36,.T.);
#739=ADVANCED_FACE('',(#193),#153,.F.);
#740=ADVANCED_FACE('',(#194,#27),#37,.T.);
#741=ADVANCED_FACE('',(#195),#154,.F.);
#742=ADVANCED_FACE('',(#196,#28),#38,.T.);
#743=ADVANCED_FACE('',(#197),#155,.F.);
#744=ADVANCED_FACE('',(#198),#156,.F.);
#745=ADVANCED_FACE('',(#199),#157,.F.);
#746=ADVANCED_FACE('',(#200),#158,.F.);
#747=ADVANCED_FACE('',(#201),#159,.T.);
#748=ADVANCED_FACE('',(#202),#39,.T.);
#749=ADVANCED_FACE('',(#203),#160,.T.);
#750=ADVANCED_FACE('',(#204),#40,.T.);
#751=ADVANCED_FACE('',(#205),#161,.T.);
#752=ADVANCED_FACE('',(#206),#41,.T.);
#753=ADVANCED_FACE('',(#207),#162,.T.);
#754=ADVANCED_FACE('',(#208),#42,.T.);
#755=CLOSED_SHELL('',(#709,#710,#711,#712,#713,#714,#715,#716,#717,#718,
#719,#720,#721,#722,#723,#724,#725,#726,#727,#728,#729,#730,#731,#732,#733,
#734,#735,#736,#737,#738,#739,#740,#741,#742,#743,#744,#745,#746,#747,#748,
#749,#750,#751,#752,#753,#754));
#756=DERIVED_UNIT_ELEMENT(#758,1.);
#757=DERIVED_UNIT_ELEMENT(#1345,-3.);
#758=(
MASS_UNIT()
NAMED_UNIT(*)
SI_UNIT(.KILO.,.GRAM.)
);
#759=DERIVED_UNIT((#756,#757));
#760=MEASURE_REPRESENTATION_ITEM('density measure',
POSITIVE_RATIO_MEASURE(7850.),#759);
#761=PROPERTY_DEFINITION_REPRESENTATION(#766,#763);
#762=PROPERTY_DEFINITION_REPRESENTATION(#767,#764);
#763=REPRESENTATION('material name',(#765),#1342);
#764=REPRESENTATION('density',(#760),#1342);
#765=DESCRIPTIVE_REPRESENTATION_ITEM('Steel','Steel');
#766=PROPERTY_DEFINITION('material property','material name',#1352);
#767=PROPERTY_DEFINITION('material property','density of part',#1352);
#768=AXIS2_PLACEMENT_3D('',#1125,#871,#872);
#769=AXIS2_PLACEMENT_3D('',#1126,#873,#874);
#770=AXIS2_PLACEMENT_3D('',#1129,#875,#876);
#771=AXIS2_PLACEMENT_3D('',#1131,#877,#878);
#772=AXIS2_PLACEMENT_3D('',#1133,#879,#880);
#773=AXIS2_PLACEMENT_3D('',#1134,#881,#882);
#774=AXIS2_PLACEMENT_3D('',#1135,#883,#884);
#775=AXIS2_PLACEMENT_3D('',#1138,#885,#886);
#776=AXIS2_PLACEMENT_3D('',#1141,#889,#890);
#777=AXIS2_PLACEMENT_3D('',#1144,#891,#892);
#778=AXIS2_PLACEMENT_3D('',#1145,#893,#894);
#779=AXIS2_PLACEMENT_3D('',#1146,#895,#896);
#780=AXIS2_PLACEMENT_3D('',#1147,#897,#898);
#781=AXIS2_PLACEMENT_3D('',#1150,#899,#900);
#782=AXIS2_PLACEMENT_3D('',#1153,#903,#904);
#783=AXIS2_PLACEMENT_3D('',#1156,#905,#906);
#784=AXIS2_PLACEMENT_3D('',#1157,#907,#908);
#785=AXIS2_PLACEMENT_3D('',#1158,#909,#910);
#786=AXIS2_PLACEMENT_3D('',#1159,#911,#912);
#787=AXIS2_PLACEMENT_3D('',#1162,#913,#914);
#788=AXIS2_PLACEMENT_3D('',#1165,#917,#918);
#789=AXIS2_PLACEMENT_3D('',#1168,#919,#920);
#790=AXIS2_PLACEMENT_3D('',#1169,#921,#922);
#791=AXIS2_PLACEMENT_3D('',#1170,#923,#924);
#792=AXIS2_PLACEMENT_3D('',#1171,#925,#926);
#793=AXIS2_PLACEMENT_3D('',#1174,#929,#930);
#794=AXIS2_PLACEMENT_3D('',#1180,#934,#935);
#795=AXIS2_PLACEMENT_3D('',#1183,#937,#938);
#796=AXIS2_PLACEMENT_3D('',#1184,#939,#940);
#797=AXIS2_PLACEMENT_3D('',#1188,#943,#944);
#798=AXIS2_PLACEMENT_3D('',#1191,#946,#947);
#799=AXIS2_PLACEMENT_3D('',#1192,#948,#949);
#800=AXIS2_PLACEMENT_3D('',#1197,#951,#952);
#801=AXIS2_PLACEMENT_3D('',#1201,#954,#955);
#802=AXIS2_PLACEMENT_3D('',#1205,#957,#958);
#803=AXIS2_PLACEMENT_3D('',#1208,#960,#961);
#804=AXIS2_PLACEMENT_3D('',#1210,#962,#963);
#805=AXIS2_PLACEMENT_3D('',#1212,#964,#965);
#806=AXIS2_PLACEMENT_3D('',#1214,#966,#967);
#807=AXIS2_PLACEMENT_3D('',#1216,#968,#969);
#808=AXIS2_PLACEMENT_3D('',#1217,#970,#971);
#809=AXIS2_PLACEMENT_3D('',#1219,#972,#973);
#810=AXIS2_PLACEMENT_3D('',#1221,#974,#975);
#811=AXIS2_PLACEMENT_3D('',#1223,#976,#977);
#812=AXIS2_PLACEMENT_3D('',#1224,#978,#979);
#813=AXIS2_PLACEMENT_3D('',#1225,#980,#981);
#814=AXIS2_PLACEMENT_3D('',#1228,#982,#983);
#815=AXIS2_PLACEMENT_3D('',#1231,#986,#987);
#816=AXIS2_PLACEMENT_3D('',#1234,#988,#989);
#817=AXIS2_PLACEMENT_3D('',#1235,#990,#991);
#818=AXIS2_PLACEMENT_3D('',#1236,#992,#993);
#819=AXIS2_PLACEMENT_3D('',#1237,#994,#995);
#820=AXIS2_PLACEMENT_3D('',#1239,#996,#997);
#821=AXIS2_PLACEMENT_3D('',#1242,#1000,#1001);
#822=AXIS2_PLACEMENT_3D('',#1244,#1002,#1003);
#823=AXIS2_PLACEMENT_3D('',#1245,#1004,#1005);
#824=AXIS2_PLACEMENT_3D('',#1246,#1006,#1007);
#825=AXIS2_PLACEMENT_3D('',#1248,#1008,#1009);
#826=AXIS2_PLACEMENT_3D('',#1250,#1011,#1012);
#827=AXIS2_PLACEMENT_3D('',#1252,#1013,#1014);
#828=AXIS2_PLACEMENT_3D('',#1253,#1015,#1016);
#829=AXIS2_PLACEMENT_3D('',#1254,#1017,#1018);
#830=AXIS2_PLACEMENT_3D('',#1256,#1020,#1021);
#831=AXIS2_PLACEMENT_3D('',#1258,#1023,#1024);
#832=AXIS2_PLACEMENT_3D('',#1263,#1026,#1027);
#833=AXIS2_PLACEMENT_3D('',#1267,#1029,#1030);
#834=AXIS2_PLACEMENT_3D('',#1271,#1032,#1033);
#835=AXIS2_PLACEMENT_3D('',#1274,#1035,#1036);
#836=AXIS2_PLACEMENT_3D('',#1276,#1037,#1038);
#837=AXIS2_PLACEMENT_3D('',#1278,#1039,#1040);
#838=AXIS2_PLACEMENT_3D('',#1280,#1041,#1042);
#839=AXIS2_PLACEMENT_3D('',#1282,#1043,#1044);
#840=AXIS2_PLACEMENT_3D('',#1283,#1045,#1046);
#841=AXIS2_PLACEMENT_3D('',#1286,#1049,#1050);
#842=AXIS2_PLACEMENT_3D('',#1287,#1051,#1052);
#843=AXIS2_PLACEMENT_3D('',#1288,#1053,#1054);
#844=AXIS2_PLACEMENT_3D('',#1291,#1056,#1057);
#845=AXIS2_PLACEMENT_3D('',#1292,#1058,#1059);
#846=AXIS2_PLACEMENT_3D('',#1294,#1060,#1061);
#847=AXIS2_PLACEMENT_3D('',#1295,#1062,#1063);
#848=AXIS2_PLACEMENT_3D('',#1298,#1065,#1066);
#849=AXIS2_PLACEMENT_3D('',#1299,#1067,#1068);
#850=AXIS2_PLACEMENT_3D('',#1301,#1069,#1070);
#851=AXIS2_PLACEMENT_3D('',#1302,#1071,#1072);
#852=AXIS2_PLACEMENT_3D('',#1305,#1074,#1075);
#853=AXIS2_PLACEMENT_3D('',#1306,#1076,#1077);
#854=AXIS2_PLACEMENT_3D('',#1308,#1078,#1079);
#855=AXIS2_PLACEMENT_3D('',#1309,#1080,#1081);
#856=AXIS2_PLACEMENT_3D('',#1312,#1083,#1084);
#857=AXIS2_PLACEMENT_3D('',#1313,#1085,#1086);
#858=AXIS2_PLACEMENT_3D('',#1315,#1087,#1088);
#859=AXIS2_PLACEMENT_3D('',#1316,#1089,#1090);
#860=AXIS2_PLACEMENT_3D('',#1318,#1092,#1093);
#861=AXIS2_PLACEMENT_3D('',#1320,#1095,#1096);
#862=AXIS2_PLACEMENT_3D('',#1322,#1098,#1099);
#863=AXIS2_PLACEMENT_3D('',#1324,#1101,#1102);
#864=AXIS2_PLACEMENT_3D('',#1327,#1105,#1106);
#865=AXIS2_PLACEMENT_3D('',#1329,#1108,#1109);
#866=AXIS2_PLACEMENT_3D('',#1331,#1111,#1112);
#867=AXIS2_PLACEMENT_3D('',#1333,#1114,#1115);
#868=AXIS2_PLACEMENT_3D('',#1335,#1117,#1118);
#869=AXIS2_PLACEMENT_3D('',#1337,#1120,#1121);
#870=AXIS2_PLACEMENT_3D('',#1339,#1123,#1124);
#871=DIRECTION('axis',(0.,0.,1.));
#872=DIRECTION('refdir',(1.,0.,0.));
#873=DIRECTION('center_axis',(-1.,0.,0.));
#874=DIRECTION('ref_axis',(0.,0.,1.));
#875=DIRECTION('center_axis',(0.,-0.993437853001907,0.114373214621964));
#876=DIRECTION('ref_axis',(0.,0.114373214621964,0.993437853001907));
#877=DIRECTION('center_axis',(-1.,0.,0.));
#878=DIRECTION('ref_axis',(0.,-0.749869180747182,-0.661586133292975));
#879=DIRECTION('center_axis',(0.,-0.0103080816065139,-0.999946870315415));
#880=DIRECTION('ref_axis',(-1.,0.,0.));
#881=DIRECTION('center_axis',(1.,0.,0.));
#882=DIRECTION('ref_axis',(0.,-0.749869180747182,-0.661586133292975));
#883=DIRECTION('center_axis',(0.,-0.01030808160652,-0.999946870315415));
#884=DIRECTION('ref_axis',(-0.707106781186559,0.707069212826284,-0.00728891440499649));
#885=DIRECTION('center_axis',(0.,-0.0103080816065183,-0.999946870315415));
#886=DIRECTION('ref_axis',(-1.,0.,0.));
#887=DIRECTION('',(0.,-0.01030808160652,-0.999946870315415));
#888=DIRECTION('',(0.,0.01030808160652,0.999946870315415));
#889=DIRECTION('center_axis',(-1.,0.,0.));
#890=DIRECTION('ref_axis',(0.,0.,1.));
#891=DIRECTION('center_axis',(0.,-1.,0.));
#892=DIRECTION('ref_axis',(-1.,0.,0.));
#893=DIRECTION('center_axis',(1.,0.,0.));
#894=DIRECTION('ref_axis',(0.,-0.703452883423431,0.710741894644786));
#895=DIRECTION('center_axis',(-1.,0.,0.));
#896=DIRECTION('ref_axis',(0.,-0.703452883423431,0.710741894644786));
#897=DIRECTION('center_axis',(0.,1.,0.));
#898=DIRECTION('ref_axis',(-0.707106781186554,0.,-0.707106781186541));
#899=DIRECTION('center_axis',(0.,-1.,8.88178419700127E-15));
#900=DIRECTION('ref_axis',(-1.,0.,0.));
#901=DIRECTION('',(0.,-1.,0.));
#902=DIRECTION('',(0.,1.,0.));
#903=DIRECTION('center_axis',(-1.,0.,0.));
#904=DIRECTION('ref_axis',(0.,0.,1.));
#905=DIRECTION('center_axis',(0.,0.00793560920646643,0.999968512557532));
#906=DIRECTION('ref_axis',(-1.,0.,0.));
#907=DIRECTION('center_axis',(1.,0.,0.));
#908=DIRECTION('ref_axis',(0.,0.709906898546023,0.70429553129121));
#909=DIRECTION('center_axis',(-1.,0.,0.));
#910=DIRECTION('ref_axis',(0.,0.709906898546023,0.704295531291209));
#911=DIRECTION('center_axis',(0.,0.00793560920646486,0.999968512557532));
#912=DIRECTION('ref_axis',(-0.707106781186553,-0.70708451620245,0.00561132308273876));
#913=DIRECTION('center_axis',(0.,0.00793560920646643,0.999968512557532));
#914=DIRECTION('ref_axis',(-1.,0.,0.));
#915=DIRECTION('',(0.,0.00793560920646486,0.999968512557532));
#916=DIRECTION('',(0.,-0.00793560920646486,-0.999968512557532));
#917=DIRECTION('center_axis',(-1.,0.,0.));
#918=DIRECTION('ref_axis',(0.,0.662475226754071,-0.749083823037945));
#919=DIRECTION('center_axis',(0.,0.993437853001907,-0.114373214621965));
#920=DIRECTION('ref_axis',(-1.,0.,0.));
#921=DIRECTION('center_axis',(1.,0.,0.));
#922=DIRECTION('ref_axis',(0.,0.662475226754071,-0.749083823037944));
#923=DIRECTION('center_axis',(-1.,0.,0.));
#924=DIRECTION('ref_axis',(0.,0.662475226754071,-0.749083823037944));
#925=DIRECTION('center_axis',(0.,-0.993437853001906,0.114373214621967));
#926=DIRECTION('ref_axis',(-0.707106781186554,0.0808740756452943,0.702466642545047));
#927=DIRECTION('',(0.,0.993437853001906,-0.114373214621967));
#928=DIRECTION('',(0.,-0.993437853001906,0.114373214621967));
#929=DIRECTION('center_axis',(0.,-0.999968512557532,0.00793560920646486));
#930=DIRECTION('ref_axis',(0.,0.00793560920646486,0.999968512557532));
#931=DIRECTION('',(-1.,0.,0.));
#932=DIRECTION('',(0.,-0.00793560920646486,-0.999968512557532));
#933=DIRECTION('',(1.,0.,0.));
#934=DIRECTION('center_axis',(1.,0.,0.));
#935=DIRECTION('ref_axis',(0.,0.66247522675407,-0.749083823037945));
#936=DIRECTION('',(1.,0.,0.));
#937=DIRECTION('center_axis',(-1.,0.,0.));
#938=DIRECTION('ref_axis',(0.,0.662475226754071,-0.749083823037944));
#939=DIRECTION('center_axis',(0.,0.114373214621967,0.993437853001906));
#940=DIRECTION('ref_axis',(0.,-0.993437853001906,0.114373214621967));
#941=DIRECTION('',(-1.,0.,0.));
#942=DIRECTION('',(0.,-0.993437853001906,0.114373214621967));
#943=DIRECTION('center_axis',(1.,0.,0.));
#944=DIRECTION('ref_axis',(0.,-0.749869180747182,-0.661586133292975));
#945=DIRECTION('',(1.,0.,0.));
#946=DIRECTION('center_axis',(-1.,0.,0.));
#947=DIRECTION('ref_axis',(0.,-0.749869180747182,-0.661586133292975));
#948=DIRECTION('center_axis',(1.,0.,0.));
#949=DIRECTION('ref_axis',(0.,1.,0.));
#950=DIRECTION('',(0.,2.01251176539386E-15,1.));
#951=DIRECTION('center_axis',(1.,0.,0.));
#952=DIRECTION('ref_axis',(0.,-0.114373214621976,-0.993437853001905));
#953=DIRECTION('',(0.,0.993437853001906,-0.114373214621967));
#954=DIRECTION('center_axis',(1.,0.,0.));
#955=DIRECTION('ref_axis',(0.,-1.,-4.44089209850062E-15));
#956=DIRECTION('',(0.,0.,-1.));
#957=DIRECTION('center_axis',(1.,0.,0.));
#958=DIRECTION('ref_axis',(0.,-4.44089209850061E-15,1.));
#959=DIRECTION('',(0.,-1.,2.52323414687536E-17));
#960=DIRECTION('center_axis',(1.,0.,0.));
#961=DIRECTION('ref_axis',(0.,1.,-3.40005801291455E-15));
#962=DIRECTION('center_axis',(1.,0.,0.));
#963=DIRECTION('ref_axis',(0.,1.,0.));
#964=DIRECTION('center_axis',(1.,0.,0.));
#965=DIRECTION('ref_axis',(0.,1.,0.));
#966=DIRECTION('center_axis',(1.,0.,0.));
#967=DIRECTION('ref_axis',(0.,1.,0.));
#968=DIRECTION('center_axis',(1.,0.,0.));
#969=DIRECTION('ref_axis',(0.,1.,0.));
#970=DIRECTION('center_axis',(1.,0.,0.));
#971=DIRECTION('ref_axis',(0.,0.,-1.));
#972=DIRECTION('center_axis',(0.,0.00793560920646643,0.999968512557532));
#973=DIRECTION('ref_axis',(0.,-0.999968512557532,0.00793560920646643));
#974=DIRECTION('center_axis',(1.,0.,0.));
#975=DIRECTION('ref_axis',(0.,0.709906898546023,0.704295531291209));
#976=DIRECTION('center_axis',(0.,1.,0.));
#977=DIRECTION('ref_axis',(1.,0.,0.));
#978=DIRECTION('center_axis',(-1.,0.,0.));
#979=DIRECTION('ref_axis',(0.,0.709906898546023,0.70429553129121));
#980=DIRECTION('center_axis',(0.,1.,0.));
#981=DIRECTION('ref_axis',(0.707106781186552,0.,-0.707106781186543));
#982=DIRECTION('center_axis',(0.,1.,0.));
#983=DIRECTION('ref_axis',(1.,0.,0.));
#984=DIRECTION('',(0.,1.,0.));
#985=DIRECTION('',(0.,-1.,0.));
#986=DIRECTION('center_axis',(1.,0.,0.));
#987=DIRECTION('ref_axis',(0.,0.,-1.));
#988=DIRECTION('center_axis',(0.,0.0103080816065205,0.999946870315415));
#989=DIRECTION('ref_axis',(1.,0.,0.));
#990=DIRECTION('center_axis',(-1.,0.,0.));
#991=DIRECTION('ref_axis',(0.,-0.703452883423431,0.710741894644786));
#992=DIRECTION('center_axis',(1.,0.,0.));
#993=DIRECTION('ref_axis',(0.,-0.703452883423431,0.710741894644786));
#994=DIRECTION('center_axis',(0.,0.01030808160652,0.999946870315415));
#995=DIRECTION('ref_axis',(0.707106781186559,0.707069212826284,-0.00728891440499649));
#996=DIRECTION('center_axis',(0.,0.0103080816065226,0.999946870315415));
#997=DIRECTION('ref_axis',(1.,0.,0.));
#998=DIRECTION('',(0.,0.01030808160652,0.999946870315415));
#999=DIRECTION('',(0.,-0.01030808160652,-0.999946870315415));
#1000=DIRECTION('center_axis',(1.,0.,0.));
#1001=DIRECTION('ref_axis',(0.,0.,-1.));
#1002=DIRECTION('center_axis',(0.,-0.993437853001907,0.114373214621964));
#1003=DIRECTION('ref_axis',(1.,0.,0.));
#1004=DIRECTION('center_axis',(1.,0.,0.));
#1005=DIRECTION('ref_axis',(0.,-0.749869180747182,-0.661586133292975));
#1006=DIRECTION('center_axis',(0.,-0.993437853001906,0.114373214621967));
#1007=DIRECTION('ref_axis',(0.707106781186554,0.0808740756452943,0.702466642545047));
#1008=DIRECTION('center_axis',(0.,-0.993437853001907,0.114373214621964));
#1009=DIRECTION('ref_axis',(1.,0.,0.));
#1010=DIRECTION('',(0.,0.993437853001906,-0.114373214621967));
#1011=DIRECTION('center_axis',(1.,0.,0.));
#1012=DIRECTION('ref_axis',(0.,0.,-1.));
#1013=DIRECTION('center_axis',(0.,-0.00793560920645754,-0.999968512557532));
#1014=DIRECTION('ref_axis',(1.,0.,0.));
#1015=DIRECTION('center_axis',(1.,0.,0.));
#1016=DIRECTION('ref_axis',(0.,0.662475226754071,-0.749083823037944));
#1017=DIRECTION('center_axis',(0.,0.00793560920646486,0.999968512557532));
#1018=DIRECTION('ref_axis',(0.707106781186553,-0.70708451620245,0.00561132308273876));
#1019=DIRECTION('',(0.,0.00793560920646486,0.999968512557532));
#1020=DIRECTION('center_axis',(1.,0.,0.));
#1021=DIRECTION('ref_axis',(0.,0.709906898546023,0.70429553129121));
#1022=DIRECTION('',(-1.,0.,0.));
#1023=DIRECTION('center_axis',(1.,0.,0.));
#1024=DIRECTION('ref_axis',(0.,1.,0.));
#1025=DIRECTION('',(0.,2.01251176539386E-15,1.));
#1026=DIRECTION('center_axis',(1.,0.,0.));
#1027=DIRECTION('ref_axis',(0.,1.,-3.40005801291455E-15));
#1028=DIRECTION('',(0.,-1.,2.52323414687536E-17));
#1029=DIRECTION('center_axis',(1.,0.,0.));
#1030=DIRECTION('ref_axis',(0.,-4.44089209850061E-15,1.));
#1031=DIRECTION('',(0.,0.,-1.));
#1032=DIRECTION('center_axis',(1.,0.,0.));
#1033=DIRECTION('ref_axis',(0.,-1.,-4.44089209850062E-15));
#1034=DIRECTION('',(0.,0.993437853001906,-0.114373214621967));
#1035=DIRECTION('center_axis',(1.,0.,0.));
#1036=DIRECTION('ref_axis',(0.,-0.114373214621976,-0.993437853001905));
#1037=DIRECTION('center_axis',(-1.,0.,0.));
#1038=DIRECTION('ref_axis',(0.,1.,0.));
#1039=DIRECTION('center_axis',(-1.,0.,0.));
#1040=DIRECTION('ref_axis',(0.,1.,0.));
#1041=DIRECTION('center_axis',(-1.,0.,0.));
#1042=DIRECTION('ref_axis',(0.,1.,0.));
#1043=DIRECTION('center_axis',(-1.,0.,0.));
#1044=DIRECTION('ref_axis',(0.,1.,0.));
#1045=DIRECTION('center_axis',(1.,0.,0.));
#1046=DIRECTION('ref_axis',(0.,-0.703452883423432,0.710741894644786));
#1047=DIRECTION('',(1.,0.,0.));
#1048=DIRECTION('',(-1.,0.,0.));
#1049=DIRECTION('center_axis',(0.,0.,-1.));
#1050=DIRECTION('ref_axis',(0.,1.,0.));
#1051=DIRECTION('center_axis',(0.,0.999946870315415,-0.01030808160652));
#1052=DIRECTION('ref_axis',(0.,-0.01030808160652,-0.999946870315415));
#1053=DIRECTION('center_axis',(-1.,0.,0.));
#1054=DIRECTION('ref_axis',(0.,1.,0.));
#1055=DIRECTION('',(-1.,0.,0.));
#1056=DIRECTION('center_axis',(-1.,0.,0.));
#1057=DIRECTION('ref_axis',(0.,1.,0.));
#1058=DIRECTION('center_axis',(1.,0.,0.));
#1059=DIRECTION('ref_axis',(0.,1.,0.));
#1060=DIRECTION('center_axis',(1.,0.,0.));
#1061=DIRECTION('ref_axis',(0.,1.,0.));
#1062=DIRECTION('center_axis',(-1.,0.,0.));
#1063=DIRECTION('ref_axis',(0.,1.,0.));
#1064=DIRECTION('',(-1.,0.,0.));
#1065=DIRECTION('center_axis',(-1.,0.,0.));
#1066=DIRECTION('ref_axis',(0.,1.,0.));
#1067=DIRECTION('center_axis',(1.,0.,0.));
#1068=DIRECTION('ref_axis',(0.,1.,0.));
#1069=DIRECTION('center_axis',(1.,0.,0.));
#1070=DIRECTION('ref_axis',(0.,1.,0.));
#1071=DIRECTION('center_axis',(-1.,0.,0.));
#1072=DIRECTION('ref_axis',(0.,1.,0.));
#1073=DIRECTION('',(-1.,0.,0.));
#1074=DIRECTION('center_axis',(-1.,0.,0.));
#1075=DIRECTION('ref_axis',(0.,1.,0.));
#1076=DIRECTION('center_axis',(1.,0.,0.));
#1077=DIRECTION('ref_axis',(0.,1.,0.));
#1078=DIRECTION('center_axis',(1.,0.,0.));
#1079=DIRECTION('ref_axis',(0.,1.,0.));
#1080=DIRECTION('center_axis',(-1.,0.,0.));
#1081=DIRECTION('ref_axis',(0.,1.,0.));
#1082=DIRECTION('',(-1.,0.,0.));
#1083=DIRECTION('center_axis',(-1.,0.,0.));
#1084=DIRECTION('ref_axis',(0.,1.,0.));
#1085=DIRECTION('center_axis',(1.,0.,0.));
#1086=DIRECTION('ref_axis',(0.,1.,0.));
#1087=DIRECTION('center_axis',(1.,0.,0.));
#1088=DIRECTION('ref_axis',(0.,1.,0.));
#1089=DIRECTION('center_axis',(-1.,0.,0.));
#1090=DIRECTION('ref_axis',(0.,1.,0.));
#1091=DIRECTION('',(-1.,0.,0.));
#1092=DIRECTION('center_axis',(-1.,0.,0.));
#1093=DIRECTION('ref_axis',(0.,1.,0.));
#1094=DIRECTION('',(-1.,0.,0.));
#1095=DIRECTION('center_axis',(-1.,0.,0.));
#1096=DIRECTION('ref_axis',(0.,1.,0.));
#1097=DIRECTION('',(-1.,0.,0.));
#1098=DIRECTION('center_axis',(-1.,0.,0.));
#1099=DIRECTION('ref_axis',(0.,1.,0.));
#1100=DIRECTION('',(-1.,0.,0.));
#1101=DIRECTION('center_axis',(1.,0.,0.));
#1102=DIRECTION('ref_axis',(0.,-0.114373214621976,-0.993437853001905));
#1103=DIRECTION('',(1.,0.,0.));
#1104=DIRECTION('',(1.,0.,0.));
#1105=DIRECTION('center_axis',(0.,-0.114373214621967,-0.993437853001906));
#1106=DIRECTION('ref_axis',(0.,0.993437853001906,-0.114373214621967));
#1107=DIRECTION('',(1.,0.,0.));
#1108=DIRECTION('center_axis',(1.,0.,0.));
#1109=DIRECTION('ref_axis',(0.,-1.,-4.44089209850062E-15));
#1110=DIRECTION('',(1.,0.,0.));
#1111=DIRECTION('center_axis',(0.,-1.,0.));
#1112=DIRECTION('ref_axis',(0.,0.,-1.));
#1113=DIRECTION('',(1.,0.,0.));
#1114=DIRECTION('center_axis',(1.,0.,0.));
#1115=DIRECTION('ref_axis',(0.,-4.44089209850061E-15,1.));
#1116=DIRECTION('',(1.,0.,0.));
#1117=DIRECTION('center_axis',(0.,2.52323414687536E-17,1.));
#1118=DIRECTION('ref_axis',(0.,-1.,2.52323414687536E-17));
#1119=DIRECTION('',(1.,0.,0.));
#1120=DIRECTION('center_axis',(1.,0.,0.));
#1121=DIRECTION('ref_axis',(0.,1.,-3.40005801291455E-15));
#1122=DIRECTION('',(1.,0.,0.));
#1123=DIRECTION('center_axis',(0.,1.,-2.01251176539386E-15));
#1124=DIRECTION('ref_axis',(0.,2.01251176539386E-15,1.));
#1125=CARTESIAN_POINT('',(0.,0.,0.));
#1126=CARTESIAN_POINT('Origin',(65.9,-28.1955548428032,-22.4181843687878));
#1127=CARTESIAN_POINT('',(65.9,-28.5386744866691,-25.3984979277935));
#1128=CARTESIAN_POINT('',(65.4,-28.5958610939801,-25.8952168542944));
#1129=CARTESIAN_POINT('Origin',(65.9,-28.5958610939801,-25.8952168542944));
#1130=CARTESIAN_POINT('',(65.4,-31.6953688889072,-22.3821060831649));
#1131=CARTESIAN_POINT('Origin',(65.4,-28.1955548428032,-22.4181843687878));
#1132=CARTESIAN_POINT('',(65.9,-31.1953954537495,-22.3872601239682));
#1133=CARTESIAN_POINT('Origin',(65.9,-31.6953688889072,-22.3821060831649));
#1134=CARTESIAN_POINT('Origin',(65.9,-28.1955548428032,-22.4181843687878));
#1135=CARTESIAN_POINT('Origin',(65.9,-31.5815919319043,-11.3450463845771));
#1136=CARTESIAN_POINT('',(65.4,-31.5302611952742,-6.36565143956684));
#1137=CARTESIAN_POINT('',(65.9,-31.0302877601165,-6.3708054803701));
#1138=CARTESIAN_POINT('Origin',(65.9,-31.5302611952742,-6.36565143956684));
#1139=CARTESIAN_POINT('',(65.9,-31.0816184967466,-11.3502004253804));
#1140=CARTESIAN_POINT('',(65.4,-31.5815919319043,-11.3450463845771));
#1141=CARTESIAN_POINT('Origin',(65.9,-28.0304471491702,-6.40172972518966));
#1142=CARTESIAN_POINT('',(65.4,-28.0304471491702,-2.90172972518966));
#1143=CARTESIAN_POINT('',(65.9,-28.0304471491702,-3.40172972518966));
#1144=CARTESIAN_POINT('Origin',(65.9,-28.0304471491702,-2.90172972518966));
#1145=CARTESIAN_POINT('Origin',(65.9,-28.0304471491702,-6.40172972518966));
#1146=CARTESIAN_POINT('Origin',(65.4,-28.0304471491702,-6.40172972518966));
#1147=CARTESIAN_POINT('Origin',(65.9,-15.4998403293952,-2.90172972518966));
#1148=CARTESIAN_POINT('',(65.4,27.9705663034933,-2.90172972518966));
#1149=CARTESIAN_POINT('',(65.9,27.9705663034933,-3.40172972518966));
#1150=CARTESIAN_POINT('Origin',(65.9,27.9705663034933,-2.90172972518966));
#1151=CARTESIAN_POINT('',(65.9,-15.4998403293952,-3.40172972518966));
#1152=CARTESIAN_POINT('',(65.4,-15.4998403293952,-2.90172972518966));
#1153=CARTESIAN_POINT('Origin',(65.9,27.9705663034933,-6.40172972518966));
#1154=CARTESIAN_POINT('',(65.4,31.4704560974447,-6.42950435741229));
#1155=CARTESIAN_POINT('',(65.9,30.9704718411659,-6.42553655280905));
#1156=CARTESIAN_POINT('Origin',(65.9,31.4704560974447,-6.42950435741229));
#1157=CARTESIAN_POINT('Origin',(65.9,27.9705663034933,-6.40172972518966));
#1158=CARTESIAN_POINT('Origin',(65.4,27.9705663034933,-6.40172972518966));
#1159=CARTESIAN_POINT('Origin',(65.9,31.3147548641937,-26.0494637791089));
#1160=CARTESIAN_POINT('',(65.4,31.2921987279742,-28.8917693157902));
#1161=CARTESIAN_POINT('',(65.9,30.7922144716955,-28.887801511187));
#1162=CARTESIAN_POINT('Origin',(65.9,31.2921987279742,-28.8917693157902));
#1163=CARTESIAN_POINT('',(65.9,30.814770607915,-26.0454959745057));
#1164=CARTESIAN_POINT('',(65.4,31.3147548641937,-26.0494637791089));
#1165=CARTESIAN_POINT('Origin',(65.9,27.7923089340229,-28.8639946835676));
#1166=CARTESIAN_POINT('',(65.4,27.392002682846,-32.3410271690742));
#1167=CARTESIAN_POINT('',(65.9,27.449189290157,-31.8443082425733));
#1168=CARTESIAN_POINT('Origin',(65.9,27.392002682846,-32.3410271690742));
#1169=CARTESIAN_POINT('Origin',(65.9,27.7923089340229,-28.8639946835676));
#1170=CARTESIAN_POINT('Origin',(65.4,27.7923089340229,-28.8639946835676));
#1171=CARTESIAN_POINT('Origin',(65.9,14.8107253449573,-30.8925609878867));
#1172=CARTESIAN_POINT('',(65.9,14.8679119522683,-30.3958420613857));
#1173=CARTESIAN_POINT('',(65.4,14.8107253449573,-30.8925609878867));
#1174=CARTESIAN_POINT('Origin',(70.4,30.7657219168103,-32.2261363526687));
#1175=CARTESIAN_POINT('',(69.9,30.7922144716955,-28.887801511187));
#1176=CARTESIAN_POINT('',(67.9,30.7922144716955,-28.887801511187));
#1177=CARTESIAN_POINT('',(69.9,30.9704718411659,-6.42553655280905));
#1178=CARTESIAN_POINT('',(69.9,30.814770607915,-26.0454959745057));
#1179=CARTESIAN_POINT('',(67.9,30.9704718411659,-6.42553655280905));
#1180=CARTESIAN_POINT('Origin',(67.9,27.7923089340229,-28.8639946835676));
#1181=CARTESIAN_POINT('',(69.9,27.449189290157,-31.8443082425733));
#1182=CARTESIAN_POINT('',(67.9,27.449189290157,-31.8443082425733));
#1183=CARTESIAN_POINT('Origin',(69.9,27.7923089340229,-28.8639946835676));
#1184=CARTESIAN_POINT('Origin',(65.4,30.7657219168103,-32.2261363526687));
#1185=CARTESIAN_POINT('',(69.9,-28.5386744866691,-25.3984979277935));
#1186=CARTESIAN_POINT('',(67.9,-28.5386744866691,-25.3984979277935));
#1187=CARTESIAN_POINT('',(69.9,14.8679119522683,-30.3958420613857));
#1188=CARTESIAN_POINT('Origin',(67.9,-28.1955548428032,-22.4181843687878));
#1189=CARTESIAN_POINT('',(69.9,-31.1953954537495,-22.3872601239682));
#1190=CARTESIAN_POINT('',(67.9,-31.1953954537495,-22.3872601239682));
#1191=CARTESIAN_POINT('Origin',(69.9,-28.1955548428032,-22.4181843687878));
#1192=CARTESIAN_POINT('Origin',(65.4,0.,-19.6199246755184));
#1193=CARTESIAN_POINT('',(65.4,46.,-39.8398493510368));
#1194=CARTESIAN_POINT('',(65.4,46.,0.600000000000001));
#1195=CARTESIAN_POINT('',(65.4,46.,-39.8398493510368));
#1196=CARTESIAN_POINT('',(65.4,43.771253570756,-41.8267250570406));
#1197=CARTESIAN_POINT('Origin',(65.4,44.,-39.8398493510368));
#1198=CARTESIAN_POINT('',(65.4,-44.2287464292439,-31.6953989189034));
#1199=CARTESIAN_POINT('',(65.4,-44.2287464292439,-31.6953989189034));
#1200=CARTESIAN_POINT('',(65.4,-46.,-29.7085232128996));
#1201=CARTESIAN_POINT('Origin',(65.4,-44.,-29.7085232128996));
#1202=CARTESIAN_POINT('',(65.4,-46.,0.6));
#1203=CARTESIAN_POINT('',(65.4,-46.,0.6));
#1204=CARTESIAN_POINT('',(65.4,-44.,2.6));
#1205=CARTESIAN_POINT('Origin',(65.4,-44.,0.599999999999995));
#1206=CARTESIAN_POINT('',(65.4,44.,2.6));
#1207=CARTESIAN_POINT('',(65.4,44.,2.6));
#1208=CARTESIAN_POINT('Origin',(65.4,44.,0.600000000000007));
#1209=CARTESIAN_POINT('',(65.4,36.45,-4.9));
#1210=CARTESIAN_POINT('Origin',(65.4,38.,-4.9));
#1211=CARTESIAN_POINT('',(65.4,36.45,-19.));
#1212=CARTESIAN_POINT('Origin',(65.4,38.,-19.));
#1213=CARTESIAN_POINT('',(65.4,-39.55,-19.));
#1214=CARTESIAN_POINT('Origin',(65.4,-38.,-19.));
#1215=CARTESIAN_POINT('',(65.4,-39.55,-4.9));
#1216=CARTESIAN_POINT('Origin',(65.4,-38.,-4.9));
#1217=CARTESIAN_POINT('Origin',(69.9,27.9705663034933,-6.40172972518966));
#1218=CARTESIAN_POINT('',(70.4,31.4704560974447,-6.42950435741229));
#1219=CARTESIAN_POINT('Origin',(69.9,31.4704560974447,-6.42950435741229));
#1220=CARTESIAN_POINT('',(70.4,27.9705663034933,-2.90172972518966));
#1221=CARTESIAN_POINT('Origin',(70.4,27.9705663034933,-6.40172972518966));
#1222=CARTESIAN_POINT('',(69.9,27.9705663034933,-3.40172972518966));
#1223=CARTESIAN_POINT('Origin',(69.9,27.9705663034933,-2.90172972518966));
#1224=CARTESIAN_POINT('Origin',(69.9,27.9705663034933,-6.40172972518966));
#1225=CARTESIAN_POINT('Origin',(69.9,-15.4998403293952,-2.90172972518966));
#1226=CARTESIAN_POINT('',(70.4,-28.0304471491702,-2.90172972518966));
#1227=CARTESIAN_POINT('',(69.9,-28.0304471491702,-3.40172972518966));
#1228=CARTESIAN_POINT('Origin',(69.9,-28.0304471491702,-2.90172972518966));
#1229=CARTESIAN_POINT('',(69.9,-15.4998403293952,-3.40172972518966));
#1230=CARTESIAN_POINT('',(70.4,-15.4998403293952,-2.90172972518966));
#1231=CARTESIAN_POINT('Origin',(69.9,-28.0304471491702,-6.40172972518966));
#1232=CARTESIAN_POINT('',(70.4,-31.5302611952742,-6.36565143956684));
#1233=CARTESIAN_POINT('',(69.9,-31.0302877601165,-6.3708054803701));
#1234=CARTESIAN_POINT('Origin',(69.9,-31.5302611952742,-6.36565143956684));
#1235=CARTESIAN_POINT('Origin',(69.9,-28.0304471491702,-6.40172972518966));
#1236=CARTESIAN_POINT('Origin',(70.4,-28.0304471491702,-6.40172972518966));
#1237=CARTESIAN_POINT('Origin',(69.9,-31.5815919319043,-11.3450463845771));
#1238=CARTESIAN_POINT('',(70.4,-31.6953688889072,-22.3821060831649));
#1239=CARTESIAN_POINT('Origin',(69.9,-31.6953688889072,-22.3821060831649));
#1240=CARTESIAN_POINT('',(69.9,-31.0816184967466,-11.3502004253804));
#1241=CARTESIAN_POINT('',(70.4,-31.5815919319043,-11.3450463845771));
#1242=CARTESIAN_POINT('Origin',(69.9,-28.1955548428032,-22.4181843687878));
#1243=CARTESIAN_POINT('',(70.4,-28.5958610939801,-25.8952168542944));
#1244=CARTESIAN_POINT('Origin',(69.9,-28.5958610939801,-25.8952168542944));
#1245=CARTESIAN_POINT('Origin',(70.4,-28.1955548428032,-22.4181843687878));
#1246=CARTESIAN_POINT('Origin',(69.9,14.8107253449573,-30.8925609878867));
#1247=CARTESIAN_POINT('',(70.4,27.392002682846,-32.3410271690742));
#1248=CARTESIAN_POINT('Origin',(69.9,27.392002682846,-32.3410271690742));
#1249=CARTESIAN_POINT('',(70.4,14.8107253449573,-30.8925609878867));
#1250=CARTESIAN_POINT('Origin',(69.9,27.7923089340229,-28.8639946835676));
#1251=CARTESIAN_POINT('',(70.4,31.2921987279742,-28.8917693157902));
#1252=CARTESIAN_POINT('Origin',(69.9,31.2921987279742,-28.8917693157902));
#1253=CARTESIAN_POINT('Origin',(70.4,27.7923089340229,-28.8639946835676));
#1254=CARTESIAN_POINT('Origin',(69.9,31.3147548641937,-26.0494637791089));
#1255=CARTESIAN_POINT('',(70.4,31.3147548641937,-26.0494637791089));
#1256=CARTESIAN_POINT('Origin',(67.9,27.9705663034933,-6.40172972518966));
#1257=CARTESIAN_POINT('',(67.9,27.9705663034933,-3.40172972518966));
#1258=CARTESIAN_POINT('Origin',(70.4,0.,-19.6199246755184));
#1259=CARTESIAN_POINT('',(70.4,46.,-39.8398493510368));
#1260=CARTESIAN_POINT('',(70.4,46.,0.600000000000001));
#1261=CARTESIAN_POINT('',(70.4,46.,-39.8398493510368));
#1262=CARTESIAN_POINT('',(70.4,44.,2.6));
#1263=CARTESIAN_POINT('Origin',(70.4,44.,0.600000000000007));
#1264=CARTESIAN_POINT('',(70.4,-44.,2.6));
#1265=CARTESIAN_POINT('',(70.4,44.,2.6));
#1266=CARTESIAN_POINT('',(70.4,-46.,0.600000000000001));
#1267=CARTESIAN_POINT('Origin',(70.4,-44.,0.599999999999995));
#1268=CARTESIAN_POINT('',(70.4,-46.,-29.7085232128996));
#1269=CARTESIAN_POINT('',(70.4,-46.,0.6));
#1270=CARTESIAN_POINT('',(70.4,-44.2287464292439,-31.6953989189034));
#1271=CARTESIAN_POINT('Origin',(70.4,-44.,-29.7085232128996));
#1272=CARTESIAN_POINT('',(70.4,43.771253570756,-41.8267250570406));
#1273=CARTESIAN_POINT('',(70.4,-44.2287464292439,-31.6953989189034));
#1274=CARTESIAN_POINT('Origin',(70.4,44.,-39.8398493510368));
#1275=CARTESIAN_POINT('',(70.4,35.,-4.9));
#1276=CARTESIAN_POINT('Origin',(70.4,38.,-4.9));
#1277=CARTESIAN_POINT('',(70.4,-41.,-4.9));
#1278=CARTESIAN_POINT('Origin',(70.4,-38.,-4.9));
#1279=CARTESIAN_POINT('',(70.4,35.,-19.));
#1280=CARTESIAN_POINT('Origin',(70.4,38.,-19.));
#1281=CARTESIAN_POINT('',(70.4,-41.,-19.));
#1282=CARTESIAN_POINT('Origin',(70.4,-38.,-19.));
#1283=CARTESIAN_POINT('Origin',(67.9,-28.0304471491702,-6.40172972518966));
#1284=CARTESIAN_POINT('',(67.9,-28.0304471491702,-3.40172972518966));
#1285=CARTESIAN_POINT('',(67.9,-31.0302877601165,-6.3708054803701));
#1286=CARTESIAN_POINT('Origin',(65.4,-30.9996806587905,-3.40172972518966));
#1287=CARTESIAN_POINT('Origin',(70.4,-30.9996806587905,-3.40172972518966));
#1288=CARTESIAN_POINT('Origin',(70.4,38.,-4.9));
#1289=CARTESIAN_POINT('',(67.9,35.,-4.9));
#1290=CARTESIAN_POINT('',(70.4,35.,-4.9));
#1291=CARTESIAN_POINT('Origin',(67.9,38.,-4.9));
#1292=CARTESIAN_POINT('Origin',(67.9,38.,-4.9));
#1293=CARTESIAN_POINT('',(67.9,36.45,-4.9));
#1294=CARTESIAN_POINT('Origin',(67.9,38.,-4.9));
#1295=CARTESIAN_POINT('Origin',(70.4,-38.,-4.9));
#1296=CARTESIAN_POINT('',(67.9,-41.,-4.9));
#1297=CARTESIAN_POINT('',(70.4,-41.,-4.9));
#1298=CARTESIAN_POINT('Origin',(67.9,-38.,-4.9));
#1299=CARTESIAN_POINT('Origin',(67.9,-38.,-4.9));
#1300=CARTESIAN_POINT('',(67.9,-39.55,-4.9));
#1301=CARTESIAN_POINT('Origin',(67.9,-38.,-4.9));
#1302=CARTESIAN_POINT('Origin',(70.4,38.,-19.));
#1303=CARTESIAN_POINT('',(67.9,35.,-19.));
#1304=CARTESIAN_POINT('',(70.4,35.,-19.));
#1305=CARTESIAN_POINT('Origin',(67.9,38.,-19.));
#1306=CARTESIAN_POINT('Origin',(67.9,38.,-19.));
#1307=CARTESIAN_POINT('',(67.9,36.45,-19.));
#1308=CARTESIAN_POINT('Origin',(67.9,38.,-19.));
#1309=CARTESIAN_POINT('Origin',(70.4,-38.,-19.));
#1310=CARTESIAN_POINT('',(67.9,-41.,-19.));
#1311=CARTESIAN_POINT('',(70.4,-41.,-19.));
#1312=CARTESIAN_POINT('Origin',(67.9,-38.,-19.));
#1313=CARTESIAN_POINT('Origin',(67.9,-38.,-19.));
#1314=CARTESIAN_POINT('',(67.9,-39.55,-19.));
#1315=CARTESIAN_POINT('Origin',(67.9,-38.,-19.));
#1316=CARTESIAN_POINT('Origin',(70.4,-38.,-4.9));
#1317=CARTESIAN_POINT('',(70.4,-39.55,-4.9));
#1318=CARTESIAN_POINT('Origin',(70.4,-38.,-19.));
#1319=CARTESIAN_POINT('',(70.4,-39.55,-19.));
#1320=CARTESIAN_POINT('Origin',(70.4,38.,-19.));
#1321=CARTESIAN_POINT('',(70.4,36.45,-19.));
#1322=CARTESIAN_POINT('Origin',(70.4,38.,-4.9));
#1323=CARTESIAN_POINT('',(70.4,36.45,-4.9));
#1324=CARTESIAN_POINT('Origin',(65.4,44.,-39.8398493510368));
#1325=CARTESIAN_POINT('',(65.4,46.,-39.8398493510368));
#1326=CARTESIAN_POINT('',(65.4,43.771253570756,-41.8267250570406));
#1327=CARTESIAN_POINT('Origin',(65.4,-44.2287464292439,-31.6953989189034));
#1328=CARTESIAN_POINT('',(65.4,-44.2287464292439,-31.6953989189034));
#1329=CARTESIAN_POINT('Origin',(65.4,-44.,-29.7085232128996));
#1330=CARTESIAN_POINT('',(65.4,-46.,-29.7085232128996));
#1331=CARTESIAN_POINT('Origin',(65.4,-46.,0.6));
#1332=CARTESIAN_POINT('',(65.4,-46.,0.6));
#1333=CARTESIAN_POINT('Origin',(65.4,-44.,0.599999999999995));
#1334=CARTESIAN_POINT('',(65.4,-44.,2.6));
#1335=CARTESIAN_POINT('Origin',(65.4,44.,2.6));
#1336=CARTESIAN_POINT('',(65.4,44.,2.6));
#1337=CARTESIAN_POINT('Origin',(65.4,44.,0.600000000000007));
#1338=CARTESIAN_POINT('',(65.4,46.,0.600000000000001));
#1339=CARTESIAN_POINT('Origin',(65.4,46.,-39.8398493510368));
#1340=UNCERTAINTY_MEASURE_WITH_UNIT(LENGTH_MEASURE(0.01),#1344,
'DISTANCE_ACCURACY_VALUE',
'Maximum model space distance between geometric entities at asserted c
onnectivities');
#1341=UNCERTAINTY_MEASURE_WITH_UNIT(LENGTH_MEASURE(0.01),#1344,
'DISTANCE_ACCURACY_VALUE',
'Maximum model space distance between geometric entities at asserted c
onnectivities');
#1342=(
GEOMETRIC_REPRESENTATION_CONTEXT(3)
GLOBAL_UNCERTAINTY_ASSIGNED_CONTEXT((#1340))
GLOBAL_UNIT_ASSIGNED_CONTEXT((#1344,#1346,#1347))
REPRESENTATION_CONTEXT('','3D')
);
#1343=(
GEOMETRIC_REPRESENTATION_CONTEXT(3)
GLOBAL_UNCERTAINTY_ASSIGNED_CONTEXT((#1341))
GLOBAL_UNIT_ASSIGNED_CONTEXT((#1344,#1346,#1347))
REPRESENTATION_CONTEXT('','3D')
);
#1344=(
LENGTH_UNIT()
NAMED_UNIT(*)
SI_UNIT(.MILLI.,.METRE.)
);
#1345=(
LENGTH_UNIT()
NAMED_UNIT(*)
SI_UNIT($,.METRE.)
);
#1346=(
NAMED_UNIT(*)
PLANE_ANGLE_UNIT()
SI_UNIT($,.RADIAN.)
);
#1347=(
NAMED_UNIT(*)
SI_UNIT($,.STERADIAN.)
SOLID_ANGLE_UNIT()
);
#1348=SHAPE_DEFINITION_REPRESENTATION(#1349,#1350);
#1349=PRODUCT_DEFINITION_SHAPE('',$,#1352);
#1350=SHAPE_REPRESENTATION('',(#768),#1342);
#1351=PRODUCT_DEFINITION_CONTEXT('part definition',#1356,'design');
#1352=PRODUCT_DEFINITION('ParaEQwithsides','ParaEQwithsides v10',#1353,
#1351);
#1353=PRODUCT_DEFINITION_FORMATION('',$,#1358);
#1354=PRODUCT_RELATED_PRODUCT_CATEGORY('ParaEQwithsides v10',
'ParaEQwithsides v10',(#1358));
#1355=APPLICATION_PROTOCOL_DEFINITION('international standard',
'automotive_design',2009,#1356);
#1356=APPLICATION_CONTEXT(
'Core Data for Automotive Mechanical Design Process');
#1357=PRODUCT_CONTEXT('part definition',#1356,'mechanical');
#1358=PRODUCT('ParaEQwithsides','ParaEQwithsides v10',$,(#1357));
#1359=PRESENTATION_STYLE_ASSIGNMENT((#1360));
#1360=SURFACE_STYLE_USAGE(.BOTH.,#1361);
#1361=SURFACE_SIDE_STYLE('',(#1362));
#1362=SURFACE_STYLE_FILL_AREA(#1363);
#1363=FILL_AREA_STYLE('Steel - Satin',(#1364));
#1364=FILL_AREA_STYLE_COLOUR('Steel - Satin',#1365);
#1365=COLOUR_RGB('Steel - Satin',0.627450980392157,0.627450980392157,0.627450980392157);
ENDSEC;
END-ISO-10303-21;
